<?xml version="1.0" encoding="UTF-8" standalone="no"?>
<!DOCTYPE svg PUBLIC "-//W3C//DTD SVG 1.1//EN"
 "http://www.w3.org/Graphics/SVG/1.1/DTD/svg11.dtd">
<!-- Generated by graphviz version 2.43.0 (0)
 -->
<!-- Title: G Pages: 1 -->
<svg width="309pt" height="189pt"
 viewBox="0.00 0.00 309.20 189.20" xmlns="http://www.w3.org/2000/svg" xmlns:xlink="http://www.w3.org/1999/xlink">
<g id="graph0" class="graph" transform="scale(1 1) rotate(0) translate(21.6 167.6)">
<title>G</title>
<polygon fill="#111111" stroke="transparent" points="-21.6,21.6 -21.6,-167.6 287.6,-167.6 287.6,21.6 -21.6,21.6"/>
<!-- __tests__/auth.test.ts -->
<g id="node1" class="node">
<title>__tests__/auth.test.ts</title>
<path fill="none" stroke="#c6c5fe" d="M144.33,-146C144.33,-146 14.67,-146 14.67,-146 10.83,-146 7,-142.17 7,-138.33 7,-138.33 7,-130.67 7,-130.67 7,-126.83 10.83,-123 14.67,-123 14.67,-123 144.33,-123 144.33,-123 148.17,-123 152,-126.83 152,-130.67 152,-130.67 152,-138.33 152,-138.33 152,-142.17 148.17,-146 144.33,-146"/>
<text text-anchor="middle" x="79.5" y="-130.8" font-family="Arial" font-size="14.00" fill="#c6c5fe">__tests__/auth.test.ts</text>
</g>
<!-- auth.ts -->
<g id="node2" class="node">
<title>auth.ts</title>
<path fill="none" stroke="#cfffac" d="M251.33,-135C251.33,-135 209.67,-135 209.67,-135 205.83,-135 202,-131.17 202,-127.33 202,-127.33 202,-119.67 202,-119.67 202,-115.83 205.83,-112 209.67,-112 209.67,-112 251.33,-112 251.33,-112 255.17,-112 259,-115.83 259,-119.67 259,-119.67 259,-127.33 259,-127.33 259,-131.17 255.17,-135 251.33,-135"/>
<text text-anchor="middle" x="230.5" y="-119.8" font-family="Arial" font-size="14.00" fill="#cfffac">auth.ts</text>
</g>
<!-- __tests__/auth.test.ts&#45;&gt;auth.ts -->
<g id="edge1" class="edge">
<title>__tests__/auth.test.ts&#45;&gt;auth.ts</title>
<path fill="none" stroke="#757575" d="M152.38,-129.19C165.96,-128.19 179.66,-127.18 191.67,-126.29"/>
<polygon fill="#757575" stroke="#757575" points="192.03,-129.78 201.74,-125.55 191.51,-122.8 192.03,-129.78"/>
</g>
<!-- __tests__/chat.test.ts -->
<g id="node3" class="node">
<title>__tests__/chat.test.ts</title>
<path fill="none" stroke="#c6c5fe" d="M143.83,-64C143.83,-64 15.17,-64 15.17,-64 11.33,-64 7.5,-60.17 7.5,-56.33 7.5,-56.33 7.5,-48.67 7.5,-48.67 7.5,-44.83 11.33,-41 15.17,-41 15.17,-41 143.83,-41 143.83,-41 147.67,-41 151.5,-44.83 151.5,-48.67 151.5,-48.67 151.5,-56.33 151.5,-56.33 151.5,-60.17 147.67,-64 143.83,-64"/>
<text text-anchor="middle" x="79.5" y="-48.8" font-family="Arial" font-size="14.00" fill="#c6c5fe">__tests__/chat.test.ts</text>
</g>
<!-- chat.ts -->
<g id="node4" class="node">
<title>chat.ts</title>
<path fill="none" stroke="#cfffac" d="M250.83,-84C250.83,-84 210.17,-84 210.17,-84 206.33,-84 202.5,-80.17 202.5,-76.33 202.5,-76.33 202.5,-68.67 202.5,-68.67 202.5,-64.83 206.33,-61 210.17,-61 210.17,-61 250.83,-61 250.83,-61 254.67,-61 258.5,-64.83 258.5,-68.67 258.5,-68.67 258.5,-76.33 258.5,-76.33 258.5,-80.17 254.67,-84 250.83,-84"/>
<text text-anchor="middle" x="230.5" y="-68.8" font-family="Arial" font-size="14.00" fill="#cfffac">chat.ts</text>
</g>
<!-- __tests__/chat.test.ts&#45;&gt;chat.ts -->
<g id="edge2" class="edge">
<title>__tests__/chat.test.ts&#45;&gt;chat.ts</title>
<path fill="none" stroke="#757575" d="M151.51,-62.03C165.68,-63.93 180.02,-65.86 192.47,-67.53"/>
<polygon fill="#757575" stroke="#757575" points="192.06,-71.01 202.44,-68.87 193,-64.07 192.06,-71.01"/>
</g>
<!-- __tests__/course.test.ts -->
<g id="node5" class="node">
<title>__tests__/course.test.ts</title>
<path fill="none" stroke="#c6c5fe" d="M151.33,-23C151.33,-23 7.67,-23 7.67,-23 3.83,-23 0,-19.17 0,-15.33 0,-15.33 0,-7.67 0,-7.67 0,-3.83 3.83,0 7.67,0 7.67,0 151.33,0 151.33,0 155.17,0 159,-3.83 159,-7.67 159,-7.67 159,-15.33 159,-15.33 159,-19.17 155.17,-23 151.33,-23"/>
<text text-anchor="middle" x="79.5" y="-7.8" font-family="Arial" font-size="14.00" fill="#c6c5fe">__tests__/course.test.ts</text>
</g>
<!-- course.ts -->
<g id="node6" class="node">
<title>course.ts</title>
<path fill="none" stroke="#cfffac" d="M258.33,-33C258.33,-33 202.67,-33 202.67,-33 198.83,-33 195,-29.17 195,-25.33 195,-25.33 195,-17.67 195,-17.67 195,-13.83 198.83,-10 202.67,-10 202.67,-10 258.33,-10 258.33,-10 262.17,-10 266,-13.83 266,-17.67 266,-17.67 266,-25.33 266,-25.33 266,-29.17 262.17,-33 258.33,-33"/>
<text text-anchor="middle" x="230.5" y="-17.8" font-family="Arial" font-size="14.00" fill="#cfffac">course.ts</text>
</g>
<!-- __tests__/course.test.ts&#45;&gt;course.ts -->
<g id="edge3" class="edge">
<title>__tests__/course.test.ts&#45;&gt;course.ts</title>
<path fill="none" stroke="#757575" d="M159.36,-16.79C168,-17.37 176.56,-17.95 184.58,-18.49"/>
<polygon fill="#757575" stroke="#757575" points="184.55,-21.99 194.76,-19.17 185.02,-15.01 184.55,-21.99"/>
</g>
<!-- index.ts -->
<g id="node7" class="node">
<title>index.ts</title>
<path fill="none" stroke="#c6c5fe" d="M103.33,-105C103.33,-105 55.67,-105 55.67,-105 51.83,-105 48,-101.17 48,-97.33 48,-97.33 48,-89.67 48,-89.67 48,-85.83 51.83,-82 55.67,-82 55.67,-82 103.33,-82 103.33,-82 107.17,-82 111,-85.83 111,-89.67 111,-89.67 111,-97.33 111,-97.33 111,-101.17 107.17,-105 103.33,-105"/>
<text text-anchor="middle" x="79.5" y="-89.8" font-family="Arial" font-size="14.00" fill="#c6c5fe">index.ts</text>
</g>
<!-- index.ts&#45;&gt;auth.ts -->
<g id="edge4" class="edge">
<title>index.ts&#45;&gt;auth.ts</title>
<path fill="none" stroke="#757575" d="M111.01,-99.64C134.36,-104.34 166.69,-110.85 191.68,-115.88"/>
<polygon fill="#757575" stroke="#757575" points="191.05,-119.33 201.55,-117.87 192.43,-112.47 191.05,-119.33"/>
</g>
<!-- index.ts&#45;&gt;chat.ts -->
<g id="edge5" class="edge">
<title>index.ts&#45;&gt;chat.ts</title>
<path fill="none" stroke="#757575" d="M111.01,-89.2C134.4,-85.9 166.81,-81.34 191.82,-77.81"/>
<polygon fill="#757575" stroke="#757575" points="192.63,-81.23 202.04,-76.37 191.65,-74.3 192.63,-81.23"/>
</g>
<!-- index.ts&#45;&gt;course.ts -->
<g id="edge6" class="edge">
<title>index.ts&#45;&gt;course.ts</title>
<path fill="none" stroke="#757575" d="M111.27,-88.53C126.15,-85.41 144,-80.61 159,-73.5 177.44,-64.76 195.91,-50.9 209.32,-39.69"/>
<polygon fill="#757575" stroke="#757575" points="211.67,-42.29 216.97,-33.12 207.1,-36.98 211.67,-42.29"/>
</g>
</g>
</svg>
