<?xml version="1.0" encoding="UTF-8" standalone="no"?>
<!DOCTYPE svg PUBLIC "-//W3C//DTD SVG 1.1//EN"
 "http://www.w3.org/Graphics/SVG/1.1/DTD/svg11.dtd">
<!-- Generated by graphviz version 2.43.0 (0)
 -->
<!-- Title: G Pages: 1 -->
<svg width="1109pt" height="784pt"
 viewBox="0.00 0.00 1109.20 783.99" xmlns="http://www.w3.org/2000/svg" xmlns:xlink="http://www.w3.org/1999/xlink">
<g id="graph0" class="graph" transform="scale(1 1) rotate(0) translate(21.6 762.39)">
<title>G</title>
<polygon fill="#111111" stroke="transparent" points="-21.6,21.6 -21.6,-762.39 1087.6,-762.39 1087.6,21.6 -21.6,21.6"/>
<!-- __tests__/bullmq.provider.test.ts -->
<g id="node1" class="node">
<title>__tests__/bullmq.provider.test.ts</title>
<path fill="none" stroke="#c6c5fe" d="M421.83,-187.79C421.83,-187.79 226.17,-187.79 226.17,-187.79 222.33,-187.79 218.5,-183.95 218.5,-180.12 218.5,-180.12 218.5,-172.45 218.5,-172.45 218.5,-168.62 222.33,-164.79 226.17,-164.79 226.17,-164.79 421.83,-164.79 421.83,-164.79 425.67,-164.79 429.5,-168.62 429.5,-172.45 429.5,-172.45 429.5,-180.12 429.5,-180.12 429.5,-183.95 425.67,-187.79 421.83,-187.79"/>
<text text-anchor="middle" x="324" y="-172.59" font-family="Arial" font-size="14.00" fill="#c6c5fe">__tests__/bullmq.provider.test.ts</text>
</g>
<!-- implementations/queue/bullmq.provider.ts -->
<g id="node2" class="node">
<title>implementations/queue/bullmq.provider.ts</title>
<path fill="none" stroke="#c6c5fe" d="M801.83,-187.79C801.83,-187.79 549.17,-187.79 549.17,-187.79 545.33,-187.79 541.5,-183.95 541.5,-180.12 541.5,-180.12 541.5,-172.45 541.5,-172.45 541.5,-168.62 545.33,-164.79 549.17,-164.79 549.17,-164.79 801.83,-164.79 801.83,-164.79 805.67,-164.79 809.5,-168.62 809.5,-172.45 809.5,-172.45 809.5,-180.12 809.5,-180.12 809.5,-183.95 805.67,-187.79 801.83,-187.79"/>
<text text-anchor="middle" x="675.5" y="-172.59" font-family="Arial" font-size="14.00" fill="#c6c5fe">implementations/queue/bullmq.provider.ts</text>
</g>
<!-- __tests__/bullmq.provider.test.ts&#45;&gt;implementations/queue/bullmq.provider.ts -->
<g id="edge1" class="edge">
<title>__tests__/bullmq.provider.test.ts&#45;&gt;implementations/queue/bullmq.provider.ts</title>
<path fill="none" stroke="#757575" d="M429.86,-176.29C461.8,-176.29 497.46,-176.29 531.46,-176.29"/>
<polygon fill="#757575" stroke="#757575" points="531.48,-179.79 541.48,-176.29 531.48,-172.79 531.48,-179.79"/>
</g>
<!-- interfaces/queue.ts -->
<g id="node16" class="node">
<title>interfaces/queue.ts</title>
<path fill="none" stroke="#cfffac" d="M1039.33,-187.79C1039.33,-187.79 923.67,-187.79 923.67,-187.79 919.83,-187.79 916,-183.95 916,-180.12 916,-180.12 916,-172.45 916,-172.45 916,-168.62 919.83,-164.79 923.67,-164.79 923.67,-164.79 1039.33,-164.79 1039.33,-164.79 1043.17,-164.79 1047,-168.62 1047,-172.45 1047,-172.45 1047,-180.12 1047,-180.12 1047,-183.95 1043.17,-187.79 1039.33,-187.79"/>
<text text-anchor="middle" x="981.5" y="-172.59" font-family="Arial" font-size="14.00" fill="#cfffac">interfaces/queue.ts</text>
</g>
<!-- implementations/queue/bullmq.provider.ts&#45;&gt;interfaces/queue.ts -->
<g id="edge23" class="edge">
<title>implementations/queue/bullmq.provider.ts&#45;&gt;interfaces/queue.ts</title>
<path fill="none" stroke="#757575" d="M809.84,-176.29C842.66,-176.29 876.66,-176.29 905.6,-176.29"/>
<polygon fill="#757575" stroke="#757575" points="905.61,-179.79 915.61,-176.29 905.61,-172.79 905.61,-179.79"/>
</g>
<!-- __tests__/factory.test.ts -->
<g id="node3" class="node">
<title>__tests__/factory.test.ts</title>
<path fill="none" stroke="#c6c5fe" d="M150.33,-381.79C150.33,-381.79 7.67,-381.79 7.67,-381.79 3.83,-381.79 0,-377.95 0,-374.12 0,-374.12 0,-366.45 0,-366.45 0,-362.62 3.83,-358.79 7.67,-358.79 7.67,-358.79 150.33,-358.79 150.33,-358.79 154.17,-358.79 158,-362.62 158,-366.45 158,-366.45 158,-374.12 158,-374.12 158,-377.95 154.17,-381.79 150.33,-381.79"/>
<text text-anchor="middle" x="79" y="-366.59" font-family="Arial" font-size="14.00" fill="#c6c5fe">__tests__/factory.test.ts</text>
</g>
<!-- factory.ts -->
<g id="node4" class="node">
<title>factory.ts</title>
<path fill="none" stroke="#c6c5fe" d="M351.83,-381.79C351.83,-381.79 296.17,-381.79 296.17,-381.79 292.33,-381.79 288.5,-377.95 288.5,-374.12 288.5,-374.12 288.5,-366.45 288.5,-366.45 288.5,-362.62 292.33,-358.79 296.17,-358.79 296.17,-358.79 351.83,-358.79 351.83,-358.79 355.67,-358.79 359.5,-362.62 359.5,-366.45 359.5,-366.45 359.5,-374.12 359.5,-374.12 359.5,-377.95 355.67,-381.79 351.83,-381.79"/>
<text text-anchor="middle" x="324" y="-366.59" font-family="Arial" font-size="14.00" fill="#c6c5fe">factory.ts</text>
</g>
<!-- __tests__/factory.test.ts&#45;&gt;factory.ts -->
<g id="edge2" class="edge">
<title>__tests__/factory.test.ts&#45;&gt;factory.ts</title>
<path fill="none" stroke="#757575" d="M158.22,-370.29C197.79,-370.29 244.39,-370.29 277.92,-370.29"/>
<polygon fill="#757575" stroke="#757575" points="278.32,-373.79 288.32,-370.29 278.32,-366.79 278.32,-373.79"/>
</g>
<!-- factory.ts&#45;&gt;implementations/queue/bullmq.provider.ts -->
<g id="edge10" class="edge">
<title>factory.ts&#45;&gt;implementations/queue/bullmq.provider.ts</title>
<path fill="none" stroke="#757575" d="M332.52,-358.37C353.2,-326.72 414.44,-240.4 490,-202.29 502.91,-195.78 516.93,-190.75 531.28,-186.88"/>
<polygon fill="#757575" stroke="#757575" points="532.41,-190.2 541.27,-184.38 530.72,-183.41 532.41,-190.2"/>
</g>
<!-- implementations/auth/supabase&#45;auth.provider.ts -->
<g id="node6" class="node">
<title>implementations/auth/supabase&#45;auth.provider.ts</title>
<path fill="none" stroke="#c6c5fe" d="M820.33,-107.79C820.33,-107.79 530.67,-107.79 530.67,-107.79 526.83,-107.79 523,-103.95 523,-100.12 523,-100.12 523,-92.45 523,-92.45 523,-88.62 526.83,-84.79 530.67,-84.79 530.67,-84.79 820.33,-84.79 820.33,-84.79 824.17,-84.79 828,-88.62 828,-92.45 828,-92.45 828,-100.12 828,-100.12 828,-103.95 824.17,-107.79 820.33,-107.79"/>
<text text-anchor="middle" x="675.5" y="-92.59" font-family="Arial" font-size="14.00" fill="#c6c5fe">implementations/auth/supabase&#45;auth.provider.ts</text>
</g>
<!-- factory.ts&#45;&gt;implementations/auth/supabase&#45;auth.provider.ts -->
<g id="edge4" class="edge">
<title>factory.ts&#45;&gt;implementations/auth/supabase&#45;auth.provider.ts</title>
<path fill="none" stroke="#757575" d="M333.68,-358.58C366.2,-314.77 479.46,-162.7 490,-155.29 521.3,-133.28 561.22,-119.18 595.91,-110.31"/>
<polygon fill="#757575" stroke="#757575" points="597.14,-113.61 606.02,-107.83 595.47,-106.81 597.14,-113.61"/>
</g>
<!-- implementations/checkpointer/memory.provider.ts -->
<g id="node7" class="node">
<title>implementations/checkpointer/memory.provider.ts</title>
<path fill="none" stroke="#c6c5fe" d="M825.83,-463.79C825.83,-463.79 525.17,-463.79 525.17,-463.79 521.33,-463.79 517.5,-459.95 517.5,-456.12 517.5,-456.12 517.5,-448.45 517.5,-448.45 517.5,-444.62 521.33,-440.79 525.17,-440.79 525.17,-440.79 825.83,-440.79 825.83,-440.79 829.67,-440.79 833.5,-444.62 833.5,-448.45 833.5,-448.45 833.5,-456.12 833.5,-456.12 833.5,-459.95 829.67,-463.79 825.83,-463.79"/>
<text text-anchor="middle" x="675.5" y="-448.59" font-family="Arial" font-size="14.00" fill="#c6c5fe">implementations/checkpointer/memory.provider.ts</text>
</g>
<!-- factory.ts&#45;&gt;implementations/checkpointer/memory.provider.ts -->
<g id="edge5" class="edge">
<title>factory.ts&#45;&gt;implementations/checkpointer/memory.provider.ts</title>
<path fill="none" stroke="#757575" d="M349.82,-381.87C381.58,-396.16 438.65,-420.06 490,-432.29 500.91,-434.88 512.26,-437.14 523.74,-439.11"/>
<polygon fill="#757575" stroke="#757575" points="523.41,-442.61 533.84,-440.77 524.54,-435.7 523.41,-442.61"/>
</g>
<!-- implementations/checkpointer/postgres.provider.ts -->
<g id="node8" class="node">
<title>implementations/checkpointer/postgres.provider.ts</title>
<path fill="none" stroke="#c6c5fe" d="M826.83,-543.79C826.83,-543.79 524.17,-543.79 524.17,-543.79 520.33,-543.79 516.5,-539.95 516.5,-536.12 516.5,-536.12 516.5,-528.45 516.5,-528.45 516.5,-524.62 520.33,-520.79 524.17,-520.79 524.17,-520.79 826.83,-520.79 826.83,-520.79 830.67,-520.79 834.5,-524.62 834.5,-528.45 834.5,-528.45 834.5,-536.12 834.5,-536.12 834.5,-539.95 830.67,-543.79 826.83,-543.79"/>
<text text-anchor="middle" x="675.5" y="-528.59" font-family="Arial" font-size="14.00" fill="#c6c5fe">implementations/checkpointer/postgres.provider.ts</text>
</g>
<!-- factory.ts&#45;&gt;implementations/checkpointer/postgres.provider.ts -->
<g id="edge6" class="edge">
<title>factory.ts&#45;&gt;implementations/checkpointer/postgres.provider.ts</title>
<path fill="none" stroke="#757575" d="M334.77,-381.86C358.31,-408.87 421.37,-476.08 490,-506.29 500.76,-511.02 512.17,-514.94 523.85,-518.17"/>
<polygon fill="#757575" stroke="#757575" points="523.15,-521.6 533.71,-520.72 524.91,-514.83 523.15,-521.6"/>
</g>
<!-- implementations/embedding/openai&#45;embedding.provider.ts -->
<g id="node9" class="node">
<title>implementations/embedding/openai&#45;embedding.provider.ts</title>
<path fill="none" stroke="#c6c5fe" d="M852.83,-584.79C852.83,-584.79 498.17,-584.79 498.17,-584.79 494.33,-584.79 490.5,-580.95 490.5,-577.12 490.5,-577.12 490.5,-569.45 490.5,-569.45 490.5,-565.62 494.33,-561.79 498.17,-561.79 498.17,-561.79 852.83,-561.79 852.83,-561.79 856.67,-561.79 860.5,-565.62 860.5,-569.45 860.5,-569.45 860.5,-577.12 860.5,-577.12 860.5,-580.95 856.67,-584.79 852.83,-584.79"/>
<text text-anchor="middle" x="675.5" y="-569.59" font-family="Arial" font-size="14.00" fill="#c6c5fe">implementations/embedding/openai&#45;embedding.provider.ts</text>
</g>
<!-- factory.ts&#45;&gt;implementations/embedding/openai&#45;embedding.provider.ts -->
<g id="edge7" class="edge">
<title>factory.ts&#45;&gt;implementations/embedding/openai&#45;embedding.provider.ts</title>
<path fill="none" stroke="#757575" d="M331.32,-381.93C350.22,-415.45 410.01,-512.4 490,-553.29 493.18,-554.91 496.43,-556.44 499.74,-557.86"/>
<polygon fill="#757575" stroke="#757575" points="498.63,-561.18 509.21,-561.62 501.21,-554.68 498.63,-561.18"/>
</g>
<!-- implementations/llm/anthropic.provider.ts -->
<g id="node10" class="node">
<title>implementations/llm/anthropic.provider.ts</title>
<path fill="none" stroke="#c6c5fe" d="M799.33,-422.79C799.33,-422.79 551.67,-422.79 551.67,-422.79 547.83,-422.79 544,-418.95 544,-415.12 544,-415.12 544,-407.45 544,-407.45 544,-403.62 547.83,-399.79 551.67,-399.79 551.67,-399.79 799.33,-399.79 799.33,-399.79 803.17,-399.79 807,-403.62 807,-407.45 807,-407.45 807,-415.12 807,-415.12 807,-418.95 803.17,-422.79 799.33,-422.79"/>
<text text-anchor="middle" x="675.5" y="-407.59" font-family="Arial" font-size="14.00" fill="#c6c5fe">implementations/llm/anthropic.provider.ts</text>
</g>
<!-- factory.ts&#45;&gt;implementations/llm/anthropic.provider.ts -->
<g id="edge8" class="edge">
<title>factory.ts&#45;&gt;implementations/llm/anthropic.provider.ts</title>
<path fill="none" stroke="#757575" d="M359.74,-374.9C393.12,-379.29 444.97,-385.98 490,-391.29 510.99,-393.76 533.34,-396.28 554.98,-398.66"/>
<polygon fill="#757575" stroke="#757575" points="554.87,-402.17 565.2,-399.78 555.64,-395.21 554.87,-402.17"/>
</g>
<!-- implementations/llm/openai.provider.ts -->
<g id="node11" class="node">
<title>implementations/llm/openai.provider.ts</title>
<path fill="none" stroke="#c6c5fe" d="M791.83,-381.79C791.83,-381.79 559.17,-381.79 559.17,-381.79 555.33,-381.79 551.5,-377.95 551.5,-374.12 551.5,-374.12 551.5,-366.45 551.5,-366.45 551.5,-362.62 555.33,-358.79 559.17,-358.79 559.17,-358.79 791.83,-358.79 791.83,-358.79 795.67,-358.79 799.5,-362.62 799.5,-366.45 799.5,-366.45 799.5,-374.12 799.5,-374.12 799.5,-377.95 795.67,-381.79 791.83,-381.79"/>
<text text-anchor="middle" x="675.5" y="-366.59" font-family="Arial" font-size="14.00" fill="#c6c5fe">implementations/llm/openai.provider.ts</text>
</g>
<!-- factory.ts&#45;&gt;implementations/llm/openai.provider.ts -->
<g id="edge9" class="edge">
<title>factory.ts&#45;&gt;implementations/llm/openai.provider.ts</title>
<path fill="none" stroke="#757575" d="M359.79,-370.29C402.08,-370.29 475.93,-370.29 541.46,-370.29"/>
<polygon fill="#757575" stroke="#757575" points="541.48,-373.79 551.48,-370.29 541.48,-366.79 541.48,-373.79"/>
</g>
<!-- interfaces/auth.ts -->
<g id="node12" class="node">
<title>interfaces/auth.ts</title>
<path fill="none" stroke="#cfffac" d="M1033.33,-107.79C1033.33,-107.79 929.67,-107.79 929.67,-107.79 925.83,-107.79 922,-103.95 922,-100.12 922,-100.12 922,-92.45 922,-92.45 922,-88.62 925.83,-84.79 929.67,-84.79 929.67,-84.79 1033.33,-84.79 1033.33,-84.79 1037.17,-84.79 1041,-88.62 1041,-92.45 1041,-92.45 1041,-100.12 1041,-100.12 1041,-103.95 1037.17,-107.79 1033.33,-107.79"/>
<text text-anchor="middle" x="981.5" y="-92.59" font-family="Arial" font-size="14.00" fill="#cfffac">interfaces/auth.ts</text>
</g>
<!-- factory.ts&#45;&gt;interfaces/auth.ts -->
<g id="edge11" class="edge">
<title>factory.ts&#45;&gt;interfaces/auth.ts</title>
<path fill="none" stroke="#757575" d="M334.25,-358.57C357.13,-330.54 419.68,-259.81 490,-230.29 642.67,-166.19 713.44,-271.4 861,-196.29 882.61,-185.29 878.97,-171.51 897,-155.29 914.26,-139.76 935.67,-124.7 952.5,-113.68"/>
<polygon fill="#757575" stroke="#757575" points="954.8,-116.36 961.31,-108 951.01,-110.47 954.8,-116.36"/>
</g>
<!-- interfaces/checkpointer.ts -->
<g id="node13" class="node">
<title>interfaces/checkpointer.ts</title>
<path fill="none" stroke="#cfffac" d="M1058.33,-523.79C1058.33,-523.79 904.67,-523.79 904.67,-523.79 900.83,-523.79 897,-519.95 897,-516.12 897,-516.12 897,-508.45 897,-508.45 897,-504.62 900.83,-500.79 904.67,-500.79 904.67,-500.79 1058.33,-500.79 1058.33,-500.79 1062.17,-500.79 1066,-504.62 1066,-508.45 1066,-508.45 1066,-516.12 1066,-516.12 1066,-519.95 1062.17,-523.79 1058.33,-523.79"/>
<text text-anchor="middle" x="981.5" y="-508.59" font-family="Arial" font-size="14.00" fill="#cfffac">interfaces/checkpointer.ts</text>
</g>
<!-- factory.ts&#45;&gt;interfaces/checkpointer.ts -->
<g id="edge12" class="edge">
<title>factory.ts&#45;&gt;interfaces/checkpointer.ts</title>
<path fill="none" stroke="#757575" d="M338.4,-381.87C365.11,-404.19 427.79,-452.76 490,-473.29 561.21,-496.78 765.44,-506.39 886.75,-510.12"/>
<polygon fill="#757575" stroke="#757575" points="886.68,-513.61 896.78,-510.42 886.89,-506.62 886.68,-513.61"/>
</g>
<!-- interfaces/embedding.ts -->
<g id="node14" class="node">
<title>interfaces/embedding.ts</title>
<path fill="none" stroke="#cfffac" d="M1054.33,-662.79C1054.33,-662.79 908.67,-662.79 908.67,-662.79 904.83,-662.79 901,-658.95 901,-655.12 901,-655.12 901,-647.45 901,-647.45 901,-643.62 904.83,-639.79 908.67,-639.79 908.67,-639.79 1054.33,-639.79 1054.33,-639.79 1058.17,-639.79 1062,-643.62 1062,-647.45 1062,-647.45 1062,-655.12 1062,-655.12 1062,-658.95 1058.17,-662.79 1054.33,-662.79"/>
<text text-anchor="middle" x="981.5" y="-647.59" font-family="Arial" font-size="14.00" fill="#cfffac">interfaces/embedding.ts</text>
</g>
<!-- factory.ts&#45;&gt;interfaces/embedding.ts -->
<g id="edge13" class="edge">
<title>factory.ts&#45;&gt;interfaces/embedding.ts</title>
<path fill="none" stroke="#757575" d="M329.54,-381.94C345.11,-420.17 400.39,-542.29 490,-594.29 614.5,-666.54 786.7,-668.53 890.46,-661.35"/>
<polygon fill="#757575" stroke="#757575" points="890.88,-664.83 900.59,-660.6 890.36,-657.85 890.88,-664.83"/>
</g>
<!-- interfaces/llm.ts -->
<g id="node15" class="node">
<title>interfaces/llm.ts</title>
<path fill="none" stroke="#cfffac" d="M1029.33,-361.79C1029.33,-361.79 933.67,-361.79 933.67,-361.79 929.83,-361.79 926,-357.95 926,-354.12 926,-354.12 926,-346.45 926,-346.45 926,-342.62 929.83,-338.79 933.67,-338.79 933.67,-338.79 1029.33,-338.79 1029.33,-338.79 1033.17,-338.79 1037,-342.62 1037,-346.45 1037,-346.45 1037,-354.12 1037,-354.12 1037,-357.95 1033.17,-361.79 1029.33,-361.79"/>
<text text-anchor="middle" x="981.5" y="-346.59" font-family="Arial" font-size="14.00" fill="#cfffac">interfaces/llm.ts</text>
</g>
<!-- factory.ts&#45;&gt;interfaces/llm.ts -->
<g id="edge14" class="edge">
<title>factory.ts&#45;&gt;interfaces/llm.ts</title>
<path fill="none" stroke="#757575" d="M359.64,-364.58C392.95,-359.4 444.75,-352.16 490,-349.29 642.36,-339.63 821.88,-343.99 915.8,-347.47"/>
<polygon fill="#757575" stroke="#757575" points="915.87,-350.97 925.99,-347.86 916.13,-343.98 915.87,-350.97"/>
</g>
<!-- factory.ts&#45;&gt;interfaces/queue.ts -->
<g id="edge15" class="edge">
<title>factory.ts&#45;&gt;interfaces/queue.ts</title>
<path fill="none" stroke="#757575" d="M359.78,-363.34C446.05,-345.64 676.25,-295.63 861,-230.29 891.56,-219.48 925.09,-203.99 948.84,-192.37"/>
<polygon fill="#757575" stroke="#757575" points="950.65,-195.38 958.06,-187.81 947.55,-189.1 950.65,-195.38"/>
</g>
<!-- __tests__/supabase&#45;auth.provider.test.ts -->
<g id="node5" class="node">
<title>__tests__/supabase&#45;auth.provider.test.ts</title>
<path fill="none" stroke="#c6c5fe" d="M446.33,-107.79C446.33,-107.79 201.67,-107.79 201.67,-107.79 197.83,-107.79 194,-103.95 194,-100.12 194,-100.12 194,-92.45 194,-92.45 194,-88.62 197.83,-84.79 201.67,-84.79 201.67,-84.79 446.33,-84.79 446.33,-84.79 450.17,-84.79 454,-88.62 454,-92.45 454,-92.45 454,-100.12 454,-100.12 454,-103.95 450.17,-107.79 446.33,-107.79"/>
<text text-anchor="middle" x="324" y="-92.59" font-family="Arial" font-size="14.00" fill="#c6c5fe">__tests__/supabase&#45;auth.provider.test.ts</text>
</g>
<!-- __tests__/supabase&#45;auth.provider.test.ts&#45;&gt;implementations/auth/supabase&#45;auth.provider.ts -->
<g id="edge3" class="edge">
<title>__tests__/supabase&#45;auth.provider.test.ts&#45;&gt;implementations/auth/supabase&#45;auth.provider.ts</title>
<path fill="none" stroke="#757575" d="M454.15,-96.29C473.19,-96.29 493.01,-96.29 512.61,-96.29"/>
<polygon fill="#757575" stroke="#757575" points="512.84,-99.79 522.84,-96.29 512.84,-92.79 512.84,-99.79"/>
</g>
<!-- implementations/auth/supabase&#45;auth.provider.ts&#45;&gt;interfaces/auth.ts -->
<g id="edge16" class="edge">
<title>implementations/auth/supabase&#45;auth.provider.ts&#45;&gt;interfaces/auth.ts</title>
<path fill="none" stroke="#757575" d="M828.05,-96.29C857.34,-96.29 886.64,-96.29 911.62,-96.29"/>
<polygon fill="#757575" stroke="#757575" points="911.68,-99.79 921.68,-96.29 911.68,-92.79 911.68,-99.79"/>
</g>
<!-- implementations/checkpointer/memory.provider.ts&#45;&gt;interfaces/checkpointer.ts -->
<g id="edge17" class="edge">
<title>implementations/checkpointer/memory.provider.ts&#45;&gt;interfaces/checkpointer.ts</title>
<path fill="none" stroke="#757575" d="M776.52,-463.83C804.03,-467.7 833.78,-472.53 861,-478.29 885.7,-483.52 912.8,-491.07 934.94,-497.74"/>
<polygon fill="#757575" stroke="#757575" points="934.15,-501.15 944.74,-500.72 936.19,-494.46 934.15,-501.15"/>
</g>
<!-- implementations/checkpointer/postgres.provider.ts&#45;&gt;interfaces/checkpointer.ts -->
<g id="edge18" class="edge">
<title>implementations/checkpointer/postgres.provider.ts&#45;&gt;interfaces/checkpointer.ts</title>
<path fill="none" stroke="#757575" d="M834.73,-521.88C852.53,-520.71 870.22,-519.54 886.82,-518.45"/>
<polygon fill="#757575" stroke="#757575" points="887.25,-521.93 897,-517.78 886.79,-514.94 887.25,-521.93"/>
</g>
<!-- implementations/embedding/openai&#45;embedding.provider.ts&#45;&gt;interfaces/embedding.ts -->
<g id="edge20" class="edge">
<title>implementations/embedding/openai&#45;embedding.provider.ts&#45;&gt;interfaces/embedding.ts</title>
<path fill="none" stroke="#757575" d="M793.14,-584.85C815.88,-588.47 839.36,-593.18 861,-599.29 892.19,-608.1 925.9,-623.33 949.53,-635.04"/>
<polygon fill="#757575" stroke="#757575" points="948.19,-638.28 958.7,-639.65 951.34,-632.03 948.19,-638.28"/>
</g>
<!-- implementations/llm/anthropic.provider.ts&#45;&gt;interfaces/llm.ts -->
<g id="edge21" class="edge">
<title>implementations/llm/anthropic.provider.ts&#45;&gt;interfaces/llm.ts</title>
<path fill="none" stroke="#757575" d="M807.12,-400.79C825.32,-398.26 843.7,-395.14 861,-391.29 889.1,-385.03 919.8,-374.41 943.04,-365.55"/>
<polygon fill="#757575" stroke="#757575" points="944.46,-368.75 952.52,-361.87 941.93,-362.22 944.46,-368.75"/>
</g>
<!-- implementations/llm/openai.provider.ts&#45;&gt;interfaces/llm.ts -->
<g id="edge22" class="edge">
<title>implementations/llm/openai.provider.ts&#45;&gt;interfaces/llm.ts</title>
<path fill="none" stroke="#757575" d="M799.71,-362.18C839.39,-359.57 881.78,-356.78 915.53,-354.56"/>
<polygon fill="#757575" stroke="#757575" points="915.97,-358.04 925.72,-353.89 915.51,-351.06 915.97,-358.04"/>
</g>
<!-- implementations/embedding/cohere&#45;embedding.provider.ts -->
<g id="node17" class="node">
<title>implementations/embedding/cohere&#45;embedding.provider.ts</title>
<path fill="none" stroke="#c6c5fe" d="M853.33,-740.79C853.33,-740.79 497.67,-740.79 497.67,-740.79 493.83,-740.79 490,-736.95 490,-733.12 490,-733.12 490,-725.45 490,-725.45 490,-721.62 493.83,-717.79 497.67,-717.79 497.67,-717.79 853.33,-717.79 853.33,-717.79 857.17,-717.79 861,-721.62 861,-725.45 861,-725.45 861,-733.12 861,-733.12 861,-736.95 857.17,-740.79 853.33,-740.79"/>
<text text-anchor="middle" x="675.5" y="-725.59" font-family="Arial" font-size="14.00" fill="#c6c5fe">implementations/embedding/cohere&#45;embedding.provider.ts</text>
</g>
<!-- implementations/embedding/cohere&#45;embedding.provider.ts&#45;&gt;interfaces/embedding.ts -->
<g id="edge19" class="edge">
<title>implementations/embedding/cohere&#45;embedding.provider.ts&#45;&gt;interfaces/embedding.ts</title>
<path fill="none" stroke="#757575" d="M793.14,-717.72C815.88,-714.11 839.36,-709.4 861,-703.29 892.19,-694.48 925.9,-679.24 949.53,-667.53"/>
<polygon fill="#757575" stroke="#757575" points="951.34,-670.54 958.7,-662.92 948.19,-664.29 951.34,-670.54"/>
</g>
<!-- index.ts -->
<g id="node18" class="node">
<title>index.ts</title>
<path fill="none" stroke="#c6c5fe" d="M102.83,-303.79C102.83,-303.79 55.17,-303.79 55.17,-303.79 51.33,-303.79 47.5,-299.95 47.5,-296.12 47.5,-296.12 47.5,-288.45 47.5,-288.45 47.5,-284.62 51.33,-280.79 55.17,-280.79 55.17,-280.79 102.83,-280.79 102.83,-280.79 106.67,-280.79 110.5,-284.62 110.5,-288.45 110.5,-288.45 110.5,-296.12 110.5,-296.12 110.5,-299.95 106.67,-303.79 102.83,-303.79"/>
<text text-anchor="middle" x="79" y="-288.59" font-family="Arial" font-size="14.00" fill="#c6c5fe">index.ts</text>
</g>
<!-- index.ts&#45;&gt;factory.ts -->
<g id="edge24" class="edge">
<title>index.ts&#45;&gt;factory.ts</title>
<path fill="none" stroke="#757575" d="M110.78,-302.17C153.19,-315.78 229.88,-340.4 278.53,-356.01"/>
<polygon fill="#757575" stroke="#757575" points="277.57,-359.38 288.16,-359.1 279.71,-352.72 277.57,-359.38"/>
</g>
<!-- index.ts&#45;&gt;interfaces/auth.ts -->
<g id="edge25" class="edge">
<title>index.ts&#45;&gt;interfaces/auth.ts</title>
<path fill="none" stroke="#757575" d="M81.86,-280.75C88.63,-242.94 115.87,-122.5 194,-75.29 441.61,74.33 817.85,-37.99 940.4,-81.24"/>
<polygon fill="#757575" stroke="#757575" points="939.53,-84.65 950.12,-84.72 941.88,-78.06 939.53,-84.65"/>
</g>
<!-- index.ts&#45;&gt;interfaces/checkpointer.ts -->
<g id="edge26" class="edge">
<title>index.ts&#45;&gt;interfaces/checkpointer.ts</title>
<path fill="none" stroke="#757575" d="M98.25,-303.87C114.67,-314.68 139.04,-331.75 158,-349.29 176.05,-365.98 175.71,-374.86 194,-391.29 312.69,-497.86 337.63,-547.06 490,-594.29 647.5,-643.11 703.51,-643.13 861,-594.29 901.02,-581.88 939.55,-550.91 961.59,-530.78"/>
<polygon fill="#757575" stroke="#757575" points="964.02,-533.3 968.93,-523.91 959.24,-528.19 964.02,-533.3"/>
</g>
<!-- index.ts&#45;&gt;interfaces/embedding.ts -->
<g id="edge27" class="edge">
<title>index.ts&#45;&gt;interfaces/embedding.ts</title>
<path fill="none" stroke="#757575" d="M104.05,-303.92C121.62,-313.66 144.63,-329.18 158,-349.29 196.21,-406.74 149.49,-447.57 194,-500.29 286.24,-609.53 350.68,-594.15 490,-626.29 627.16,-657.92 791.39,-659.15 890.74,-656.04"/>
<polygon fill="#757575" stroke="#757575" points="890.87,-659.54 900.74,-655.7 890.63,-652.54 890.87,-659.54"/>
</g>
<!-- index.ts&#45;&gt;interfaces/llm.ts -->
<g id="edge28" class="edge">
<title>index.ts&#45;&gt;interfaces/llm.ts</title>
<path fill="none" stroke="#757575" d="M110.53,-293.92C215.18,-299.57 569.02,-319.1 861,-340.29 878.7,-341.57 897.87,-343.11 915.56,-344.59"/>
<polygon fill="#757575" stroke="#757575" points="915.53,-348.1 925.79,-345.45 916.12,-341.12 915.53,-348.1"/>
</g>
<!-- index.ts&#45;&gt;interfaces/queue.ts -->
<g id="edge29" class="edge">
<title>index.ts&#45;&gt;interfaces/queue.ts</title>
<path fill="none" stroke="#757575" d="M85.32,-280.53C98.77,-252.47 137.13,-181.95 194,-155.29 328.21,-92.37 713.34,-142.41 861,-155.29 879.15,-156.87 898.68,-159.78 916.59,-162.94"/>
<polygon fill="#757575" stroke="#757575" points="916.16,-166.42 926.63,-164.77 917.42,-159.54 916.16,-166.42"/>
</g>
</g>
</svg>
