<?xml version="1.0" encoding="UTF-8" standalone="no"?>
<!DOCTYPE svg PUBLIC "-//W3C//DTD SVG 1.1//EN"
 "http://www.w3.org/Graphics/SVG/1.1/DTD/svg11.dtd">
<!-- Generated by graphviz version 2.43.0 (0)
 -->
<!-- Title: G Pages: 1 -->
<svg width="2755pt" height="842pt"
 viewBox="0.00 0.00 2755.20 841.90" xmlns="http://www.w3.org/2000/svg" xmlns:xlink="http://www.w3.org/1999/xlink">
<g id="graph0" class="graph" transform="scale(1 1) rotate(0) translate(21.6 820.3)">
<title>G</title>
<polygon fill="#111111" stroke="transparent" points="-21.6,21.6 -21.6,-820.3 2733.6,-820.3 2733.6,21.6 -21.6,21.6"/>
<!-- ../../../packages/db/src/schema/chat_sessions.ts -->
<g id="node1" class="node">
<title>../../../packages/db/src/schema/chat_sessions.ts</title>
<path fill="none" stroke="#c6c5fe" d="M1771.83,-642.38C1771.83,-642.38 1483.17,-642.38 1483.17,-642.38 1479.33,-642.38 1475.5,-638.55 1475.5,-634.72 1475.5,-634.72 1475.5,-627.05 1475.5,-627.05 1475.5,-623.22 1479.33,-619.38 1483.17,-619.38 1483.17,-619.38 1771.83,-619.38 1771.83,-619.38 1775.67,-619.38 1779.5,-623.22 1779.5,-627.05 1779.5,-627.05 1779.5,-634.72 1779.5,-634.72 1779.5,-638.55 1775.67,-642.38 1771.83,-642.38"/>
<text text-anchor="middle" x="1627.5" y="-627.18" font-family="Arial" font-size="14.00" fill="#c6c5fe">../../../packages/db/src/schema/chat_sessions.ts</text>
</g>
<!-- ../../../packages/db/src/schema/modules.ts -->
<g id="node2" class="node">
<title>../../../packages/db/src/schema/modules.ts</title>
<path fill="none" stroke="#c6c5fe" d="M2096.83,-544.38C2096.83,-544.38 1842.17,-544.38 1842.17,-544.38 1838.33,-544.38 1834.5,-540.55 1834.5,-536.72 1834.5,-536.72 1834.5,-529.05 1834.5,-529.05 1834.5,-525.22 1838.33,-521.38 1842.17,-521.38 1842.17,-521.38 2096.83,-521.38 2096.83,-521.38 2100.67,-521.38 2104.5,-525.22 2104.5,-529.05 2104.5,-529.05 2104.5,-536.72 2104.5,-536.72 2104.5,-540.55 2100.67,-544.38 2096.83,-544.38"/>
<text text-anchor="middle" x="1969.5" y="-529.18" font-family="Arial" font-size="14.00" fill="#c6c5fe">../../../packages/db/src/schema/modules.ts</text>
</g>
<!-- ../../../packages/db/src/schema/chat_sessions.ts&#45;&gt;../../../packages/db/src/schema/modules.ts -->
<g id="edge1" class="edge">
<title>../../../packages/db/src/schema/chat_sessions.ts&#45;&gt;../../../packages/db/src/schema/modules.ts</title>
<path fill="none" stroke="#757575" d="M1684.93,-619.33C1715.86,-612.64 1754.76,-603.62 1789,-593.88 1837.33,-580.14 1891.84,-561.1 1927.98,-547.96"/>
<polygon fill="#757575" stroke="#757575" points="1929.48,-551.14 1937.67,-544.42 1927.08,-544.57 1929.48,-551.14"/>
</g>
<!-- ../../../packages/db/src/schema/users.ts -->
<g id="node3" class="node">
<title>../../../packages/db/src/schema/users.ts</title>
<path fill="none" stroke="#cfffac" d="M2699.83,-660.38C2699.83,-660.38 2464.17,-660.38 2464.17,-660.38 2460.33,-660.38 2456.5,-656.55 2456.5,-652.72 2456.5,-652.72 2456.5,-645.05 2456.5,-645.05 2456.5,-641.22 2460.33,-637.38 2464.17,-637.38 2464.17,-637.38 2699.83,-637.38 2699.83,-637.38 2703.67,-637.38 2707.5,-641.22 2707.5,-645.05 2707.5,-645.05 2707.5,-652.72 2707.5,-652.72 2707.5,-656.55 2703.67,-660.38 2699.83,-660.38"/>
<text text-anchor="middle" x="2582" y="-645.18" font-family="Arial" font-size="14.00" fill="#cfffac">../../../packages/db/src/schema/users.ts</text>
</g>
<!-- ../../../packages/db/src/schema/chat_sessions.ts&#45;&gt;../../../packages/db/src/schema/users.ts -->
<g id="edge2" class="edge">
<title>../../../packages/db/src/schema/chat_sessions.ts&#45;&gt;../../../packages/db/src/schema/users.ts</title>
<path fill="none" stroke="#757575" d="M1779.69,-633.74C1963.32,-637.21 2270.29,-643.01 2446.19,-646.34"/>
<polygon fill="#757575" stroke="#757575" points="2446.22,-649.84 2456.29,-646.53 2446.36,-642.84 2446.22,-649.84"/>
</g>
<!-- ../../../packages/db/src/schema/courses.ts -->
<g id="node4" class="node">
<title>../../../packages/db/src/schema/courses.ts</title>
<path fill="none" stroke="#c6c5fe" d="M2408.33,-582.38C2408.33,-582.38 2157.67,-582.38 2157.67,-582.38 2153.83,-582.38 2150,-578.55 2150,-574.72 2150,-574.72 2150,-567.05 2150,-567.05 2150,-563.22 2153.83,-559.38 2157.67,-559.38 2157.67,-559.38 2408.33,-559.38 2408.33,-559.38 2412.17,-559.38 2416,-563.22 2416,-567.05 2416,-567.05 2416,-574.72 2416,-574.72 2416,-578.55 2412.17,-582.38 2408.33,-582.38"/>
<text text-anchor="middle" x="2283" y="-567.18" font-family="Arial" font-size="14.00" fill="#c6c5fe">../../../packages/db/src/schema/courses.ts</text>
</g>
<!-- ../../../packages/db/src/schema/modules.ts&#45;&gt;../../../packages/db/src/schema/courses.ts -->
<g id="edge19" class="edge">
<title>../../../packages/db/src/schema/modules.ts&#45;&gt;../../../packages/db/src/schema/courses.ts</title>
<path fill="none" stroke="#757575" d="M2064.81,-544.39C2100.32,-548.72 2140.92,-553.67 2177.33,-558.11"/>
<polygon fill="#757575" stroke="#757575" points="2177.13,-561.62 2187.48,-559.35 2177.98,-554.67 2177.13,-561.62"/>
</g>
<!-- ../../../packages/db/src/schema/enums.ts -->
<g id="node5" class="node">
<title>../../../packages/db/src/schema/enums.ts</title>
<path fill="none" stroke="#cfffac" d="M2704.33,-523.38C2704.33,-523.38 2459.67,-523.38 2459.67,-523.38 2455.83,-523.38 2452,-519.55 2452,-515.72 2452,-515.72 2452,-508.05 2452,-508.05 2452,-504.22 2455.83,-500.38 2459.67,-500.38 2459.67,-500.38 2704.33,-500.38 2704.33,-500.38 2708.17,-500.38 2712,-504.22 2712,-508.05 2712,-508.05 2712,-515.72 2712,-515.72 2712,-519.55 2708.17,-523.38 2704.33,-523.38"/>
<text text-anchor="middle" x="2582" y="-508.18" font-family="Arial" font-size="14.00" fill="#cfffac">../../../packages/db/src/schema/enums.ts</text>
</g>
<!-- ../../../packages/db/src/schema/modules.ts&#45;&gt;../../../packages/db/src/schema/enums.ts -->
<g id="edge20" class="edge">
<title>../../../packages/db/src/schema/modules.ts&#45;&gt;../../../packages/db/src/schema/enums.ts</title>
<path fill="none" stroke="#757575" d="M2104.85,-528.26C2204.73,-524.83 2340.61,-520.15 2441.66,-516.68"/>
<polygon fill="#757575" stroke="#757575" points="2442.07,-520.16 2451.94,-516.32 2441.83,-513.17 2442.07,-520.16"/>
</g>
<!-- ../../../packages/db/src/schema/courses.ts&#45;&gt;../../../packages/db/src/schema/users.ts -->
<g id="edge4" class="edge">
<title>../../../packages/db/src/schema/courses.ts&#45;&gt;../../../packages/db/src/schema/users.ts</title>
<path fill="none" stroke="#757575" d="M2350.12,-582.42C2371.28,-586.51 2394.73,-591.45 2416,-596.88 2458.07,-607.62 2505.23,-622.81 2538.33,-634"/>
<polygon fill="#757575" stroke="#757575" points="2537.53,-637.43 2548.13,-637.34 2539.79,-630.8 2537.53,-637.43"/>
</g>
<!-- ../../../packages/db/src/schema/courses.ts&#45;&gt;../../../packages/db/src/schema/enums.ts -->
<g id="edge3" class="edge">
<title>../../../packages/db/src/schema/courses.ts&#45;&gt;../../../packages/db/src/schema/enums.ts</title>
<path fill="none" stroke="#757575" d="M2342.82,-559.34C2365.67,-554.84 2392.06,-549.63 2416,-544.88 2448.05,-538.52 2483.59,-531.42 2513.46,-525.44"/>
<polygon fill="#757575" stroke="#757575" points="2514.24,-528.85 2523.36,-523.45 2512.86,-521.99 2514.24,-528.85"/>
</g>
<!-- ../../../packages/db/src/vector.ts -->
<g id="node6" class="node">
<title>../../../packages/db/src/vector.ts</title>
<path fill="none" stroke="#cfffac" d="M2675.83,-582.38C2675.83,-582.38 2488.17,-582.38 2488.17,-582.38 2484.33,-582.38 2480.5,-578.55 2480.5,-574.72 2480.5,-574.72 2480.5,-567.05 2480.5,-567.05 2480.5,-563.22 2484.33,-559.38 2488.17,-559.38 2488.17,-559.38 2675.83,-559.38 2675.83,-559.38 2679.67,-559.38 2683.5,-563.22 2683.5,-567.05 2683.5,-567.05 2683.5,-574.72 2683.5,-574.72 2683.5,-578.55 2679.67,-582.38 2675.83,-582.38"/>
<text text-anchor="middle" x="2582" y="-567.18" font-family="Arial" font-size="14.00" fill="#cfffac">../../../packages/db/src/vector.ts</text>
</g>
<!-- ../../../packages/db/src/schema/courses.ts&#45;&gt;../../../packages/db/src/vector.ts -->
<g id="edge5" class="edge">
<title>../../../packages/db/src/schema/courses.ts&#45;&gt;../../../packages/db/src/vector.ts</title>
<path fill="none" stroke="#757575" d="M2416.43,-570.88C2434.4,-570.88 2452.7,-570.88 2470.24,-570.88"/>
<polygon fill="#757575" stroke="#757575" points="2470.47,-574.38 2480.47,-570.88 2470.47,-567.38 2470.47,-574.38"/>
</g>
<!-- ../../../packages/db/src/schema/enrollments.ts -->
<g id="node7" class="node">
<title>../../../packages/db/src/schema/enrollments.ts</title>
<path fill="none" stroke="#c6c5fe" d="M2106.33,-738.38C2106.33,-738.38 1832.67,-738.38 1832.67,-738.38 1828.83,-738.38 1825,-734.55 1825,-730.72 1825,-730.72 1825,-723.05 1825,-723.05 1825,-719.22 1828.83,-715.38 1832.67,-715.38 1832.67,-715.38 2106.33,-715.38 2106.33,-715.38 2110.17,-715.38 2114,-719.22 2114,-723.05 2114,-723.05 2114,-730.72 2114,-730.72 2114,-734.55 2110.17,-738.38 2106.33,-738.38"/>
<text text-anchor="middle" x="1969.5" y="-723.18" font-family="Arial" font-size="14.00" fill="#c6c5fe">../../../packages/db/src/schema/enrollments.ts</text>
</g>
<!-- ../../../packages/db/src/schema/enrollments.ts&#45;&gt;../../../packages/db/src/schema/users.ts -->
<g id="edge7" class="edge">
<title>../../../packages/db/src/schema/enrollments.ts&#45;&gt;../../../packages/db/src/schema/users.ts</title>
<path fill="none" stroke="#757575" d="M2060.58,-715.37C2172.74,-701.04 2363.74,-676.64 2480.53,-661.72"/>
<polygon fill="#757575" stroke="#757575" points="2481.07,-665.18 2490.55,-660.44 2480.19,-658.23 2481.07,-665.18"/>
</g>
<!-- ../../../packages/db/src/schema/enrollments.ts&#45;&gt;../../../packages/db/src/schema/courses.ts -->
<g id="edge6" class="edge">
<title>../../../packages/db/src/schema/enrollments.ts&#45;&gt;../../../packages/db/src/schema/courses.ts</title>
<path fill="none" stroke="#757575" d="M2069.64,-715.36C2084.87,-711.77 2100.12,-707.06 2114,-700.88 2175.59,-673.46 2234.89,-618.91 2263.76,-589.96"/>
<polygon fill="#757575" stroke="#757575" points="2266.56,-592.1 2271.07,-582.52 2261.57,-587.2 2266.56,-592.1"/>
</g>
<!-- ../../../packages/db/src/schema/index.ts -->
<g id="node8" class="node">
<title>../../../packages/db/src/schema/index.ts</title>
<path fill="none" stroke="#c6c5fe" d="M1404.33,-642.38C1404.33,-642.38 1168.67,-642.38 1168.67,-642.38 1164.83,-642.38 1161,-638.55 1161,-634.72 1161,-634.72 1161,-627.05 1161,-627.05 1161,-623.22 1164.83,-619.38 1168.67,-619.38 1168.67,-619.38 1404.33,-619.38 1404.33,-619.38 1408.17,-619.38 1412,-623.22 1412,-627.05 1412,-627.05 1412,-634.72 1412,-634.72 1412,-638.55 1408.17,-642.38 1404.33,-642.38"/>
<text text-anchor="middle" x="1286.5" y="-627.18" font-family="Arial" font-size="14.00" fill="#c6c5fe">../../../packages/db/src/schema/index.ts</text>
</g>
<!-- ../../../packages/db/src/schema/index.ts&#45;&gt;../../../packages/db/src/schema/chat_sessions.ts -->
<g id="edge8" class="edge">
<title>../../../packages/db/src/schema/index.ts&#45;&gt;../../../packages/db/src/schema/chat_sessions.ts</title>
<path fill="none" stroke="#757575" d="M1412.29,-630.88C1429.41,-630.88 1447.19,-630.88 1464.85,-630.88"/>
<polygon fill="#757575" stroke="#757575" points="1465.23,-634.38 1475.23,-630.88 1465.23,-627.38 1465.23,-634.38"/>
</g>
<!-- ../../../packages/db/src/schema/index.ts&#45;&gt;../../../packages/db/src/schema/modules.ts -->
<g id="edge13" class="edge">
<title>../../../packages/db/src/schema/index.ts&#45;&gt;../../../packages/db/src/schema/modules.ts</title>
<path fill="none" stroke="#757575" d="M1356.89,-619.31C1381.18,-613.26 1407.89,-604.23 1430,-590.88 1449.92,-578.86 1444.82,-562.5 1466,-552.88 1608.58,-488.16 1798,-504.31 1898.66,-519.78"/>
<polygon fill="#757575" stroke="#757575" points="1898.29,-523.26 1908.72,-521.37 1899.38,-516.35 1898.29,-523.26"/>
</g>
<!-- ../../../packages/db/src/schema/index.ts&#45;&gt;../../../packages/db/src/schema/users.ts -->
<g id="edge14" class="edge">
<title>../../../packages/db/src/schema/index.ts&#45;&gt;../../../packages/db/src/schema/users.ts</title>
<path fill="none" stroke="#757575" d="M1302.66,-642.51C1332.18,-664.37 1400.24,-711.1 1466,-729.88 1872.16,-845.9 2004.81,-798.58 2416,-701.88 2459.13,-691.74 2507.24,-675.73 2540.33,-663.96"/>
<polygon fill="#757575" stroke="#757575" points="2541.86,-667.12 2550.09,-660.45 2539.5,-660.53 2541.86,-667.12"/>
</g>
<!-- ../../../packages/db/src/schema/index.ts&#45;&gt;../../../packages/db/src/schema/courses.ts -->
<g id="edge9" class="edge">
<title>../../../packages/db/src/schema/index.ts&#45;&gt;../../../packages/db/src/schema/courses.ts</title>
<path fill="none" stroke="#757575" d="M1368.18,-642.4C1398.75,-646.24 1433.92,-650 1466,-651.88 1609.31,-660.28 1645.92,-663.56 1789,-651.88 1945.19,-639.14 2126.46,-604.04 2219.63,-584.49"/>
<polygon fill="#757575" stroke="#757575" points="2220.39,-587.9 2229.45,-582.41 2218.95,-581.05 2220.39,-587.9"/>
</g>
<!-- ../../../packages/db/src/schema/index.ts&#45;&gt;../../../packages/db/src/schema/enums.ts -->
<g id="edge11" class="edge">
<title>../../../packages/db/src/schema/index.ts&#45;&gt;../../../packages/db/src/schema/enums.ts</title>
<path fill="none" stroke="#757575" d="M1375.93,-619.33C1395.48,-613.37 1414.85,-604.39 1430,-590.88 1461.54,-562.76 1431.45,-527.21 1466,-502.88 1814.09,-257.77 2386.98,-440.44 2541.55,-496.79"/>
<polygon fill="#757575" stroke="#757575" points="2540.52,-500.14 2551.11,-500.32 2542.94,-493.58 2540.52,-500.14"/>
</g>
<!-- ../../../packages/db/src/schema/index.ts&#45;&gt;../../../packages/db/src/schema/enrollments.ts -->
<g id="edge10" class="edge">
<title>../../../packages/db/src/schema/index.ts&#45;&gt;../../../packages/db/src/schema/enrollments.ts</title>
<path fill="none" stroke="#757575" d="M1309.87,-642.38C1342.98,-658.77 1407.43,-688.23 1466,-700.88 1581.06,-725.73 1714.21,-731.63 1814.53,-731.63"/>
<polygon fill="#757575" stroke="#757575" points="1814.76,-735.13 1824.75,-731.61 1814.74,-728.13 1814.76,-735.13"/>
</g>
<!-- ../../../packages/db/src/schema/module_progress.ts -->
<g id="node9" class="node">
<title>../../../packages/db/src/schema/module_progress.ts</title>
<path fill="none" stroke="#c6c5fe" d="M1781.33,-584.38C1781.33,-584.38 1473.67,-584.38 1473.67,-584.38 1469.83,-584.38 1466,-580.55 1466,-576.72 1466,-576.72 1466,-569.05 1466,-569.05 1466,-565.22 1469.83,-561.38 1473.67,-561.38 1473.67,-561.38 1781.33,-561.38 1781.33,-561.38 1785.17,-561.38 1789,-565.22 1789,-569.05 1789,-569.05 1789,-576.72 1789,-576.72 1789,-580.55 1785.17,-584.38 1781.33,-584.38"/>
<text text-anchor="middle" x="1627.5" y="-569.18" font-family="Arial" font-size="14.00" fill="#c6c5fe">../../../packages/db/src/schema/module_progress.ts</text>
</g>
<!-- ../../../packages/db/src/schema/index.ts&#45;&gt;../../../packages/db/src/schema/module_progress.ts -->
<g id="edge12" class="edge">
<title>../../../packages/db/src/schema/index.ts&#45;&gt;../../../packages/db/src/schema/module_progress.ts</title>
<path fill="none" stroke="#757575" d="M1354.88,-619.35C1410.92,-609.77 1490.7,-596.12 1549.3,-586.09"/>
<polygon fill="#757575" stroke="#757575" points="1549.98,-589.53 1559.25,-584.39 1548.8,-582.63 1549.98,-589.53"/>
</g>
<!-- ../../../packages/db/src/schema/module_progress.ts&#45;&gt;../../../packages/db/src/schema/modules.ts -->
<g id="edge17" class="edge">
<title>../../../packages/db/src/schema/module_progress.ts&#45;&gt;../../../packages/db/src/schema/modules.ts</title>
<path fill="none" stroke="#757575" d="M1726.39,-561.37C1768.43,-556.42 1817.69,-550.62 1860.77,-545.56"/>
<polygon fill="#757575" stroke="#757575" points="1861.19,-549.03 1870.72,-544.39 1860.38,-542.08 1861.19,-549.03"/>
</g>
<!-- ../../../packages/db/src/schema/module_progress.ts&#45;&gt;../../../packages/db/src/schema/users.ts -->
<g id="edge18" class="edge">
<title>../../../packages/db/src/schema/module_progress.ts&#45;&gt;../../../packages/db/src/schema/users.ts</title>
<path fill="none" stroke="#757575" d="M1772.65,-584.38C1955.29,-598.96 2267.68,-623.88 2445.91,-638.1"/>
<polygon fill="#757575" stroke="#757575" points="2445.88,-641.61 2456.13,-638.92 2446.44,-634.64 2445.88,-641.61"/>
</g>
<!-- ../../../packages/db/src/schema/module_progress.ts&#45;&gt;../../../packages/db/src/schema/courses.ts -->
<g id="edge15" class="edge">
<title>../../../packages/db/src/schema/module_progress.ts&#45;&gt;../../../packages/db/src/schema/courses.ts</title>
<path fill="none" stroke="#757575" d="M1789.2,-572.39C1896.55,-572.06 2036.46,-571.63 2139.76,-571.32"/>
<polygon fill="#757575" stroke="#757575" points="2139.97,-574.82 2149.96,-571.29 2139.95,-567.82 2139.97,-574.82"/>
</g>
<!-- ../../../packages/db/src/schema/module_progress.ts&#45;&gt;../../../packages/db/src/schema/enums.ts -->
<g id="edge16" class="edge">
<title>../../../packages/db/src/schema/module_progress.ts&#45;&gt;../../../packages/db/src/schema/enums.ts</title>
<path fill="none" stroke="#757575" d="M1656.18,-561.37C1693.67,-546.46 1763.02,-521.28 1825,-511.88 2039.38,-479.37 2291.9,-488.82 2444.06,-499.61"/>
<polygon fill="#757575" stroke="#757575" points="2444.16,-503.13 2454.39,-500.36 2444.67,-496.15 2444.16,-503.13"/>
</g>
<!-- __tests__/auth.guard.test.ts -->
<g id="node10" class="node">
<title>__tests__/auth.guard.test.ts</title>
<path fill="none" stroke="#c6c5fe" d="M1048.83,-323.38C1048.83,-323.38 881.17,-323.38 881.17,-323.38 877.33,-323.38 873.5,-319.55 873.5,-315.72 873.5,-315.72 873.5,-308.05 873.5,-308.05 873.5,-304.22 877.33,-300.38 881.17,-300.38 881.17,-300.38 1048.83,-300.38 1048.83,-300.38 1052.67,-300.38 1056.5,-304.22 1056.5,-308.05 1056.5,-308.05 1056.5,-315.72 1056.5,-315.72 1056.5,-319.55 1052.67,-323.38 1048.83,-323.38"/>
<text text-anchor="middle" x="965" y="-308.18" font-family="Arial" font-size="14.00" fill="#c6c5fe">__tests__/auth.guard.test.ts</text>
</g>
<!-- modules/auth/auth.guard.ts -->
<g id="node11" class="node">
<title>modules/auth/auth.guard.ts</title>
<path fill="none" stroke="#cfffac" d="M1369.33,-323.38C1369.33,-323.38 1203.67,-323.38 1203.67,-323.38 1199.83,-323.38 1196,-319.55 1196,-315.72 1196,-315.72 1196,-308.05 1196,-308.05 1196,-304.22 1199.83,-300.38 1203.67,-300.38 1203.67,-300.38 1369.33,-300.38 1369.33,-300.38 1373.17,-300.38 1377,-304.22 1377,-308.05 1377,-308.05 1377,-315.72 1377,-315.72 1377,-319.55 1373.17,-323.38 1369.33,-323.38"/>
<text text-anchor="middle" x="1286.5" y="-308.18" font-family="Arial" font-size="14.00" fill="#cfffac">modules/auth/auth.guard.ts</text>
</g>
<!-- __tests__/auth.guard.test.ts&#45;&gt;modules/auth/auth.guard.ts -->
<g id="edge21" class="edge">
<title>__tests__/auth.guard.test.ts&#45;&gt;modules/auth/auth.guard.ts</title>
<path fill="none" stroke="#757575" d="M1056.7,-311.88C1097.01,-311.88 1144.58,-311.88 1185.87,-311.88"/>
<polygon fill="#757575" stroke="#757575" points="1185.95,-315.38 1195.95,-311.88 1185.95,-308.38 1185.95,-315.38"/>
</g>
<!-- __tests__/chat.service.integration.test.ts -->
<g id="node12" class="node">
<title>__tests__/chat.service.integration.test.ts</title>
<path fill="none" stroke="#c6c5fe" d="M768.33,-523.38C768.33,-523.38 526.67,-523.38 526.67,-523.38 522.83,-523.38 519,-519.55 519,-515.72 519,-515.72 519,-508.05 519,-508.05 519,-504.22 522.83,-500.38 526.67,-500.38 526.67,-500.38 768.33,-500.38 768.33,-500.38 772.17,-500.38 776,-504.22 776,-508.05 776,-508.05 776,-515.72 776,-515.72 776,-519.55 772.17,-523.38 768.33,-523.38"/>
<text text-anchor="middle" x="647.5" y="-508.18" font-family="Arial" font-size="14.00" fill="#c6c5fe">__tests__/chat.service.integration.test.ts</text>
</g>
<!-- modules/chat/chat.service.ts -->
<g id="node13" class="node">
<title>modules/chat/chat.service.ts</title>
<path fill="none" stroke="#c6c5fe" d="M1051.33,-521.38C1051.33,-521.38 878.67,-521.38 878.67,-521.38 874.83,-521.38 871,-517.55 871,-513.72 871,-513.72 871,-506.05 871,-506.05 871,-502.22 874.83,-498.38 878.67,-498.38 878.67,-498.38 1051.33,-498.38 1051.33,-498.38 1055.17,-498.38 1059,-502.22 1059,-506.05 1059,-506.05 1059,-513.72 1059,-513.72 1059,-517.55 1055.17,-521.38 1051.33,-521.38"/>
<text text-anchor="middle" x="965" y="-506.18" font-family="Arial" font-size="14.00" fill="#c6c5fe">modules/chat/chat.service.ts</text>
</g>
<!-- __tests__/chat.service.integration.test.ts&#45;&gt;modules/chat/chat.service.ts -->
<g id="edge22" class="edge">
<title>__tests__/chat.service.integration.test.ts&#45;&gt;modules/chat/chat.service.ts</title>
<path fill="none" stroke="#757575" d="M776.37,-511.07C804.39,-510.89 833.72,-510.71 860.64,-510.54"/>
<polygon fill="#757575" stroke="#757575" points="860.85,-514.04 870.83,-510.47 860.81,-507.04 860.85,-514.04"/>
</g>
<!-- modules/progress/progress.service.ts -->
<g id="node18" class="node">
<title>modules/progress/progress.service.ts</title>
<path fill="none" stroke="#cfffac" d="M1399.83,-581.38C1399.83,-581.38 1173.17,-581.38 1173.17,-581.38 1169.33,-581.38 1165.5,-577.55 1165.5,-573.72 1165.5,-573.72 1165.5,-566.05 1165.5,-566.05 1165.5,-562.22 1169.33,-558.38 1173.17,-558.38 1173.17,-558.38 1399.83,-558.38 1399.83,-558.38 1403.67,-558.38 1407.5,-562.22 1407.5,-566.05 1407.5,-566.05 1407.5,-573.72 1407.5,-573.72 1407.5,-577.55 1403.67,-581.38 1399.83,-581.38"/>
<text text-anchor="middle" x="1286.5" y="-566.18" font-family="Arial" font-size="14.00" fill="#cfffac">modules/progress/progress.service.ts</text>
</g>
<!-- modules/chat/chat.service.ts&#45;&gt;modules/progress/progress.service.ts -->
<g id="edge45" class="edge">
<title>modules/chat/chat.service.ts&#45;&gt;modules/progress/progress.service.ts</title>
<path fill="none" stroke="#757575" d="M1049.66,-521.39C1068.56,-524.26 1088.5,-527.49 1107,-530.88 1147.18,-538.26 1192.11,-548.08 1226.84,-556.02"/>
<polygon fill="#757575" stroke="#757575" points="1226.28,-559.49 1236.81,-558.32 1227.85,-552.67 1226.28,-559.49"/>
</g>
<!-- __tests__/courses.service.integration.test.ts -->
<g id="node14" class="node">
<title>__tests__/courses.service.integration.test.ts</title>
<path fill="none" stroke="#c6c5fe" d="M779.33,-124.38C779.33,-124.38 515.67,-124.38 515.67,-124.38 511.83,-124.38 508,-120.55 508,-116.72 508,-116.72 508,-109.05 508,-109.05 508,-105.22 511.83,-101.38 515.67,-101.38 515.67,-101.38 779.33,-101.38 779.33,-101.38 783.17,-101.38 787,-105.22 787,-109.05 787,-109.05 787,-116.72 787,-116.72 787,-120.55 783.17,-124.38 779.33,-124.38"/>
<text text-anchor="middle" x="647.5" y="-109.18" font-family="Arial" font-size="14.00" fill="#c6c5fe">__tests__/courses.service.integration.test.ts</text>
</g>
<!-- modules/courses/courses.service.ts -->
<g id="node15" class="node">
<title>modules/courses/courses.service.ts</title>
<path fill="none" stroke="#c6c5fe" d="M1072.83,-164.38C1072.83,-164.38 857.17,-164.38 857.17,-164.38 853.33,-164.38 849.5,-160.55 849.5,-156.72 849.5,-156.72 849.5,-149.05 849.5,-149.05 849.5,-145.22 853.33,-141.38 857.17,-141.38 857.17,-141.38 1072.83,-141.38 1072.83,-141.38 1076.67,-141.38 1080.5,-145.22 1080.5,-149.05 1080.5,-149.05 1080.5,-156.72 1080.5,-156.72 1080.5,-160.55 1076.67,-164.38 1072.83,-164.38"/>
<text text-anchor="middle" x="965" y="-149.18" font-family="Arial" font-size="14.00" fill="#c6c5fe">modules/courses/courses.service.ts</text>
</g>
<!-- __tests__/courses.service.integration.test.ts&#45;&gt;modules/courses/courses.service.ts -->
<g id="edge23" class="edge">
<title>__tests__/courses.service.integration.test.ts&#45;&gt;modules/courses/courses.service.ts</title>
<path fill="none" stroke="#757575" d="M739.33,-124.4C778.1,-129.31 823.48,-135.07 863.27,-140.11"/>
<polygon fill="#757575" stroke="#757575" points="862.9,-143.59 873.26,-141.38 863.78,-136.65 862.9,-143.59"/>
</g>
<!-- services/agent.client.ts -->
<g id="node33" class="node">
<title>services/agent.client.ts</title>
<path fill="none" stroke="#cfffac" d="M1355.33,-104.38C1355.33,-104.38 1217.67,-104.38 1217.67,-104.38 1213.83,-104.38 1210,-100.55 1210,-96.72 1210,-96.72 1210,-89.05 1210,-89.05 1210,-85.22 1213.83,-81.38 1217.67,-81.38 1217.67,-81.38 1355.33,-81.38 1355.33,-81.38 1359.17,-81.38 1363,-85.22 1363,-89.05 1363,-89.05 1363,-96.72 1363,-96.72 1363,-100.55 1359.17,-104.38 1355.33,-104.38"/>
<text text-anchor="middle" x="1286.5" y="-89.18" font-family="Arial" font-size="14.00" fill="#cfffac">services/agent.client.ts</text>
</g>
<!-- modules/courses/courses.service.ts&#45;&gt;services/agent.client.ts -->
<g id="edge55" class="edge">
<title>modules/courses/courses.service.ts&#45;&gt;services/agent.client.ts</title>
<path fill="none" stroke="#757575" d="M1027.6,-141.31C1080.97,-131.29 1158.21,-116.79 1214.23,-106.27"/>
<polygon fill="#757575" stroke="#757575" points="1214.9,-109.7 1224.09,-104.42 1213.61,-102.82 1214.9,-109.7"/>
</g>
<!-- queues/definitions.ts -->
<g id="node34" class="node">
<title>queues/definitions.ts</title>
<path fill="none" stroke="#cfffac" d="M1348.83,-164.38C1348.83,-164.38 1224.17,-164.38 1224.17,-164.38 1220.33,-164.38 1216.5,-160.55 1216.5,-156.72 1216.5,-156.72 1216.5,-149.05 1216.5,-149.05 1216.5,-145.22 1220.33,-141.38 1224.17,-141.38 1224.17,-141.38 1348.83,-141.38 1348.83,-141.38 1352.67,-141.38 1356.5,-145.22 1356.5,-149.05 1356.5,-149.05 1356.5,-156.72 1356.5,-156.72 1356.5,-160.55 1352.67,-164.38 1348.83,-164.38"/>
<text text-anchor="middle" x="1286.5" y="-149.18" font-family="Arial" font-size="14.00" fill="#cfffac">queues/definitions.ts</text>
</g>
<!-- modules/courses/courses.service.ts&#45;&gt;queues/definitions.ts -->
<g id="edge54" class="edge">
<title>modules/courses/courses.service.ts&#45;&gt;queues/definitions.ts</title>
<path fill="none" stroke="#757575" d="M1080.9,-152.88C1122.27,-152.88 1168.01,-152.88 1205.73,-152.88"/>
<polygon fill="#757575" stroke="#757575" points="1206.15,-156.38 1216.15,-152.88 1206.15,-149.38 1206.15,-156.38"/>
</g>
<!-- __tests__/courses.service.slug.test.ts -->
<g id="node16" class="node">
<title>__tests__/courses.service.slug.test.ts</title>
<path fill="none" stroke="#c6c5fe" d="M760.33,-204.38C760.33,-204.38 534.67,-204.38 534.67,-204.38 530.83,-204.38 527,-200.55 527,-196.72 527,-196.72 527,-189.05 527,-189.05 527,-185.22 530.83,-181.38 534.67,-181.38 534.67,-181.38 760.33,-181.38 760.33,-181.38 764.17,-181.38 768,-185.22 768,-189.05 768,-189.05 768,-196.72 768,-196.72 768,-200.55 764.17,-204.38 760.33,-204.38"/>
<text text-anchor="middle" x="647.5" y="-189.18" font-family="Arial" font-size="14.00" fill="#c6c5fe">__tests__/courses.service.slug.test.ts</text>
</g>
<!-- __tests__/courses.service.slug.test.ts&#45;&gt;modules/courses/courses.service.ts -->
<g id="edge24" class="edge">
<title>__tests__/courses.service.slug.test.ts&#45;&gt;modules/courses/courses.service.ts</title>
<path fill="none" stroke="#757575" d="M739.33,-181.37C778.1,-176.45 823.48,-170.7 863.27,-165.65"/>
<polygon fill="#757575" stroke="#757575" points="863.78,-169.12 873.26,-164.39 862.9,-162.17 863.78,-169.12"/>
</g>
<!-- __tests__/progress.service.integration.test.ts -->
<g id="node17" class="node">
<title>__tests__/progress.service.integration.test.ts</title>
<path fill="none" stroke="#c6c5fe" d="M1099.33,-642.38C1099.33,-642.38 830.67,-642.38 830.67,-642.38 826.83,-642.38 823,-638.55 823,-634.72 823,-634.72 823,-627.05 823,-627.05 823,-623.22 826.83,-619.38 830.67,-619.38 830.67,-619.38 1099.33,-619.38 1099.33,-619.38 1103.17,-619.38 1107,-623.22 1107,-627.05 1107,-627.05 1107,-634.72 1107,-634.72 1107,-638.55 1103.17,-642.38 1099.33,-642.38"/>
<text text-anchor="middle" x="965" y="-627.18" font-family="Arial" font-size="14.00" fill="#c6c5fe">__tests__/progress.service.integration.test.ts</text>
</g>
<!-- __tests__/progress.service.integration.test.ts&#45;&gt;../../../packages/db/src/schema/index.ts -->
<g id="edge25" class="edge">
<title>__tests__/progress.service.integration.test.ts&#45;&gt;../../../packages/db/src/schema/index.ts</title>
<path fill="none" stroke="#757575" d="M1107.07,-630.88C1121.46,-630.88 1136.06,-630.88 1150.39,-630.88"/>
<polygon fill="#757575" stroke="#757575" points="1150.76,-634.38 1160.76,-630.88 1150.76,-627.38 1150.76,-634.38"/>
</g>
<!-- __tests__/progress.service.integration.test.ts&#45;&gt;modules/progress/progress.service.ts -->
<g id="edge26" class="edge">
<title>__tests__/progress.service.integration.test.ts&#45;&gt;modules/progress/progress.service.ts</title>
<path fill="none" stroke="#757575" d="M1029.55,-619.32C1053.8,-614.87 1081.69,-609.7 1107,-604.88 1143.55,-597.93 1184.26,-589.96 1217.57,-583.39"/>
<polygon fill="#757575" stroke="#757575" points="1218.52,-586.77 1227.65,-581.4 1217.16,-579.9 1218.52,-586.77"/>
</g>
<!-- __tests__/zod&#45;validation.pipe.test.ts -->
<g id="node19" class="node">
<title>__tests__/zod&#45;validation.pipe.test.ts</title>
<path fill="none" stroke="#c6c5fe" d="M755.33,-402.38C755.33,-402.38 539.67,-402.38 539.67,-402.38 535.83,-402.38 532,-398.55 532,-394.72 532,-394.72 532,-387.05 532,-387.05 532,-383.22 535.83,-379.38 539.67,-379.38 539.67,-379.38 755.33,-379.38 755.33,-379.38 759.17,-379.38 763,-383.22 763,-387.05 763,-387.05 763,-394.72 763,-394.72 763,-398.55 759.17,-402.38 755.33,-402.38"/>
<text text-anchor="middle" x="647.5" y="-387.18" font-family="Arial" font-size="14.00" fill="#c6c5fe">__tests__/zod&#45;validation.pipe.test.ts</text>
</g>
<!-- common/pipes/zod&#45;validation.pipe.ts -->
<g id="node20" class="node">
<title>common/pipes/zod&#45;validation.pipe.ts</title>
<path fill="none" stroke="#cfffac" d="M1075.33,-403.38C1075.33,-403.38 854.67,-403.38 854.67,-403.38 850.83,-403.38 847,-399.55 847,-395.72 847,-395.72 847,-388.05 847,-388.05 847,-384.22 850.83,-380.38 854.67,-380.38 854.67,-380.38 1075.33,-380.38 1075.33,-380.38 1079.17,-380.38 1083,-384.22 1083,-388.05 1083,-388.05 1083,-395.72 1083,-395.72 1083,-399.55 1079.17,-403.38 1075.33,-403.38"/>
<text text-anchor="middle" x="965" y="-388.18" font-family="Arial" font-size="14.00" fill="#cfffac">common/pipes/zod&#45;validation.pipe.ts</text>
</g>
<!-- __tests__/zod&#45;validation.pipe.test.ts&#45;&gt;common/pipes/zod&#45;validation.pipe.ts -->
<g id="edge27" class="edge">
<title>__tests__/zod&#45;validation.pipe.test.ts&#45;&gt;common/pipes/zod&#45;validation.pipe.ts</title>
<path fill="none" stroke="#757575" d="M763.3,-391.25C787.11,-391.32 812.35,-391.4 836.59,-391.48"/>
<polygon fill="#757575" stroke="#757575" points="836.9,-394.98 846.91,-391.51 836.92,-387.98 836.9,-394.98"/>
</g>
<!-- app.module.ts -->
<g id="node21" class="node">
<title>app.module.ts</title>
<path fill="none" stroke="#c6c5fe" d="M191.33,-286.38C191.33,-286.38 104.67,-286.38 104.67,-286.38 100.83,-286.38 97,-282.55 97,-278.72 97,-278.72 97,-271.05 97,-271.05 97,-267.22 100.83,-263.38 104.67,-263.38 104.67,-263.38 191.33,-263.38 191.33,-263.38 195.17,-263.38 199,-267.22 199,-271.05 199,-271.05 199,-278.72 199,-278.72 199,-282.55 195.17,-286.38 191.33,-286.38"/>
<text text-anchor="middle" x="148" y="-271.18" font-family="Arial" font-size="14.00" fill="#c6c5fe">app.module.ts</text>
</g>
<!-- common/filters/http&#45;exception.filter.ts -->
<g id="node22" class="node">
<title>common/filters/http&#45;exception.filter.ts</title>
<path fill="none" stroke="#cfffac" d="M464.33,-205.38C464.33,-205.38 242.67,-205.38 242.67,-205.38 238.83,-205.38 235,-201.55 235,-197.72 235,-197.72 235,-190.05 235,-190.05 235,-186.22 238.83,-182.38 242.67,-182.38 242.67,-182.38 464.33,-182.38 464.33,-182.38 468.17,-182.38 472,-186.22 472,-190.05 472,-190.05 472,-197.72 472,-197.72 472,-201.55 468.17,-205.38 464.33,-205.38"/>
<text text-anchor="middle" x="353.5" y="-190.18" font-family="Arial" font-size="14.00" fill="#cfffac">common/filters/http&#45;exception.filter.ts</text>
</g>
<!-- app.module.ts&#45;&gt;common/filters/http&#45;exception.filter.ts -->
<g id="edge28" class="edge">
<title>app.module.ts&#45;&gt;common/filters/http&#45;exception.filter.ts</title>
<path fill="none" stroke="#757575" d="M161.31,-263.38C177.09,-249.33 205.91,-225.93 235,-213.88 240.08,-211.78 245.37,-209.9 250.77,-208.21"/>
<polygon fill="#757575" stroke="#757575" points="251.95,-211.51 260.59,-205.39 250.02,-204.79 251.95,-211.51"/>
</g>
<!-- modules/auth/auth.module.ts -->
<g id="node23" class="node">
<title>modules/auth/auth.module.ts</title>
<path fill="none" stroke="#c6c5fe" d="M441.33,-326.38C441.33,-326.38 265.67,-326.38 265.67,-326.38 261.83,-326.38 258,-322.55 258,-318.72 258,-318.72 258,-311.05 258,-311.05 258,-307.22 261.83,-303.38 265.67,-303.38 265.67,-303.38 441.33,-303.38 441.33,-303.38 445.17,-303.38 449,-307.22 449,-311.05 449,-311.05 449,-318.72 449,-318.72 449,-322.55 445.17,-326.38 441.33,-326.38"/>
<text text-anchor="middle" x="353.5" y="-311.18" font-family="Arial" font-size="14.00" fill="#c6c5fe">modules/auth/auth.module.ts</text>
</g>
<!-- app.module.ts&#45;&gt;modules/auth/auth.module.ts -->
<g id="edge29" class="edge">
<title>app.module.ts&#45;&gt;modules/auth/auth.module.ts</title>
<path fill="none" stroke="#757575" d="M199.04,-284.72C224.62,-289.75 256.13,-295.94 283.93,-301.4"/>
<polygon fill="#757575" stroke="#757575" points="283.5,-304.89 293.98,-303.38 284.85,-298.02 283.5,-304.89"/>
</g>
<!-- modules/chat/chat.module.ts -->
<g id="node24" class="node">
<title>modules/chat/chat.module.ts</title>
<path fill="none" stroke="#c6c5fe" d="M440.83,-463.38C440.83,-463.38 266.17,-463.38 266.17,-463.38 262.33,-463.38 258.5,-459.55 258.5,-455.72 258.5,-455.72 258.5,-448.05 258.5,-448.05 258.5,-444.22 262.33,-440.38 266.17,-440.38 266.17,-440.38 440.83,-440.38 440.83,-440.38 444.67,-440.38 448.5,-444.22 448.5,-448.05 448.5,-448.05 448.5,-455.72 448.5,-455.72 448.5,-459.55 444.67,-463.38 440.83,-463.38"/>
<text text-anchor="middle" x="353.5" y="-448.18" font-family="Arial" font-size="14.00" fill="#c6c5fe">modules/chat/chat.module.ts</text>
</g>
<!-- app.module.ts&#45;&gt;modules/chat/chat.module.ts -->
<g id="edge30" class="edge">
<title>app.module.ts&#45;&gt;modules/chat/chat.module.ts</title>
<path fill="none" stroke="#757575" d="M162.35,-286.5C196.92,-316.56 289.56,-397.14 331.43,-433.56"/>
<polygon fill="#757575" stroke="#757575" points="329.26,-436.3 339.1,-440.23 333.85,-431.02 329.26,-436.3"/>
</g>
<!-- modules/courses/courses.module.ts -->
<g id="node25" class="node">
<title>modules/courses/courses.module.ts</title>
<path fill="none" stroke="#c6c5fe" d="M462.33,-246.38C462.33,-246.38 244.67,-246.38 244.67,-246.38 240.83,-246.38 237,-242.55 237,-238.72 237,-238.72 237,-231.05 237,-231.05 237,-227.22 240.83,-223.38 244.67,-223.38 244.67,-223.38 462.33,-223.38 462.33,-223.38 466.17,-223.38 470,-227.22 470,-231.05 470,-231.05 470,-238.72 470,-238.72 470,-242.55 466.17,-246.38 462.33,-246.38"/>
<text text-anchor="middle" x="353.5" y="-231.18" font-family="Arial" font-size="14.00" fill="#c6c5fe">modules/courses/courses.module.ts</text>
</g>
<!-- app.module.ts&#45;&gt;modules/courses/courses.module.ts -->
<g id="edge31" class="edge">
<title>app.module.ts&#45;&gt;modules/courses/courses.module.ts</title>
<path fill="none" stroke="#757575" d="M199.04,-265.05C224.62,-260.02 256.13,-253.83 283.93,-248.36"/>
<polygon fill="#757575" stroke="#757575" points="284.85,-251.75 293.98,-246.39 283.5,-244.88 284.85,-251.75"/>
</g>
<!-- modules/health/health.controller.ts -->
<g id="node26" class="node">
<title>modules/health/health.controller.ts</title>
<path fill="none" stroke="#cfffac" d="M456.83,-164.38C456.83,-164.38 250.17,-164.38 250.17,-164.38 246.33,-164.38 242.5,-160.55 242.5,-156.72 242.5,-156.72 242.5,-149.05 242.5,-149.05 242.5,-145.22 246.33,-141.38 250.17,-141.38 250.17,-141.38 456.83,-141.38 456.83,-141.38 460.67,-141.38 464.5,-145.22 464.5,-149.05 464.5,-149.05 464.5,-156.72 464.5,-156.72 464.5,-160.55 460.67,-164.38 456.83,-164.38"/>
<text text-anchor="middle" x="353.5" y="-149.18" font-family="Arial" font-size="14.00" fill="#cfffac">modules/health/health.controller.ts</text>
</g>
<!-- app.module.ts&#45;&gt;modules/health/health.controller.ts -->
<g id="edge32" class="edge">
<title>app.module.ts&#45;&gt;modules/health/health.controller.ts</title>
<path fill="none" stroke="#757575" d="M155.2,-263.08C167.32,-241.3 196.39,-194.96 235,-172.88 237.87,-171.24 240.85,-169.72 243.9,-168.32"/>
<polygon fill="#757575" stroke="#757575" points="245.34,-171.52 253.25,-164.47 242.67,-165.04 245.34,-171.52"/>
</g>
<!-- modules/progress/progress.module.ts -->
<g id="node27" class="node">
<title>modules/progress/progress.module.ts</title>
<path fill="none" stroke="#c6c5fe" d="M761.83,-564.38C761.83,-564.38 533.17,-564.38 533.17,-564.38 529.33,-564.38 525.5,-560.55 525.5,-556.72 525.5,-556.72 525.5,-549.05 525.5,-549.05 525.5,-545.22 529.33,-541.38 533.17,-541.38 533.17,-541.38 761.83,-541.38 761.83,-541.38 765.67,-541.38 769.5,-545.22 769.5,-549.05 769.5,-549.05 769.5,-556.72 769.5,-556.72 769.5,-560.55 765.67,-564.38 761.83,-564.38"/>
<text text-anchor="middle" x="647.5" y="-549.18" font-family="Arial" font-size="14.00" fill="#c6c5fe">modules/progress/progress.module.ts</text>
</g>
<!-- app.module.ts&#45;&gt;modules/progress/progress.module.ts -->
<g id="edge33" class="edge">
<title>app.module.ts&#45;&gt;modules/progress/progress.module.ts</title>
<path fill="none" stroke="#757575" d="M150.48,-286.85C155.4,-321.4 174.53,-422.03 235,-471.88 312.76,-536 426.73,-554.46 515.02,-557.89"/>
<polygon fill="#757575" stroke="#757575" points="515,-561.39 525.11,-558.23 515.23,-554.4 515,-561.39"/>
</g>
<!-- providers.token.ts -->
<g id="node28" class="node">
<title>providers.token.ts</title>
<path fill="none" stroke="#cfffac" d="M701.33,-286.38C701.33,-286.38 593.67,-286.38 593.67,-286.38 589.83,-286.38 586,-282.55 586,-278.72 586,-278.72 586,-271.05 586,-271.05 586,-267.22 589.83,-263.38 593.67,-263.38 593.67,-263.38 701.33,-263.38 701.33,-263.38 705.17,-263.38 709,-267.22 709,-271.05 709,-271.05 709,-278.72 709,-278.72 709,-282.55 705.17,-286.38 701.33,-286.38"/>
<text text-anchor="middle" x="647.5" y="-271.18" font-family="Arial" font-size="14.00" fill="#cfffac">providers.token.ts</text>
</g>
<!-- app.module.ts&#45;&gt;providers.token.ts -->
<g id="edge34" class="edge">
<title>app.module.ts&#45;&gt;providers.token.ts</title>
<path fill="none" stroke="#757575" d="M199.44,-274.88C288.52,-274.88 473.89,-274.88 575.73,-274.88"/>
<polygon fill="#757575" stroke="#757575" points="575.91,-278.38 585.91,-274.88 575.91,-271.38 575.91,-278.38"/>
</g>
<!-- modules/auth/auth.module.ts&#45;&gt;modules/auth/auth.guard.ts -->
<g id="edge36" class="edge">
<title>modules/auth/auth.module.ts&#45;&gt;modules/auth/auth.guard.ts</title>
<path fill="none" stroke="#757575" d="M449.1,-312.26C536.8,-309.42 670.85,-304.01 787,-294.88 803.05,-293.62 806.93,-291.77 823,-290.88 949.03,-283.9 980.99,-283.5 1107,-290.88 1135.58,-292.56 1166.59,-295.73 1194.63,-299.11"/>
<polygon fill="#757575" stroke="#757575" points="1194.46,-302.61 1204.82,-300.36 1195.32,-295.67 1194.46,-302.61"/>
</g>
<!-- modules/auth/auth.module.ts&#45;&gt;providers.token.ts -->
<g id="edge37" class="edge">
<title>modules/auth/auth.module.ts&#45;&gt;providers.token.ts</title>
<path fill="none" stroke="#757575" d="M438.57,-303.37C481.99,-297.42 534.39,-290.24 575.72,-284.58"/>
<polygon fill="#757575" stroke="#757575" points="576.28,-288.03 585.71,-283.21 575.33,-281.1 576.28,-288.03"/>
</g>
<!-- modules/chat/chat.module.ts&#45;&gt;modules/chat/chat.service.ts -->
<g id="edge43" class="edge">
<title>modules/chat/chat.module.ts&#45;&gt;modules/chat/chat.service.ts</title>
<path fill="none" stroke="#757575" d="M448.61,-459.91C536.26,-467.49 670.52,-479.38 787,-490.88 810.82,-493.23 836.42,-495.9 860.55,-498.48"/>
<polygon fill="#757575" stroke="#757575" points="860.48,-501.99 870.79,-499.58 861.22,-495.03 860.48,-501.99"/>
</g>
<!-- modules/chat/chat.module.ts&#45;&gt;modules/progress/progress.module.ts -->
<g id="edge44" class="edge">
<title>modules/chat/chat.module.ts&#45;&gt;modules/progress/progress.module.ts</title>
<path fill="none" stroke="#757575" d="M374.42,-463.49C409.41,-483.7 480.78,-524.03 508,-532.88 515.15,-535.21 522.59,-537.26 530.16,-539.08"/>
<polygon fill="#757575" stroke="#757575" points="529.63,-542.55 540.15,-541.33 531.17,-535.72 529.63,-542.55"/>
</g>
<!-- modules/chat/chat.controller.ts -->
<g id="node31" class="node">
<title>modules/chat/chat.controller.ts</title>
<path fill="none" stroke="#c6c5fe" d="M739.83,-443.38C739.83,-443.38 555.17,-443.38 555.17,-443.38 551.33,-443.38 547.5,-439.55 547.5,-435.72 547.5,-435.72 547.5,-428.05 547.5,-428.05 547.5,-424.22 551.33,-420.38 555.17,-420.38 555.17,-420.38 739.83,-420.38 739.83,-420.38 743.67,-420.38 747.5,-424.22 747.5,-428.05 747.5,-428.05 747.5,-435.72 747.5,-435.72 747.5,-439.55 743.67,-443.38 739.83,-443.38"/>
<text text-anchor="middle" x="647.5" y="-428.18" font-family="Arial" font-size="14.00" fill="#c6c5fe">modules/chat/chat.controller.ts</text>
</g>
<!-- modules/chat/chat.module.ts&#45;&gt;modules/chat/chat.controller.ts -->
<g id="edge42" class="edge">
<title>modules/chat/chat.module.ts&#45;&gt;modules/chat/chat.controller.ts</title>
<path fill="none" stroke="#757575" d="M448.9,-445.42C477.07,-443.49 508.18,-441.36 537.22,-439.37"/>
<polygon fill="#757575" stroke="#757575" points="537.66,-442.85 547.4,-438.67 537.18,-435.86 537.66,-442.85"/>
</g>
<!-- modules/courses/courses.module.ts&#45;&gt;modules/courses/courses.service.ts -->
<g id="edge51" class="edge">
<title>modules/courses/courses.module.ts&#45;&gt;modules/courses/courses.service.ts</title>
<path fill="none" stroke="#757575" d="M451.03,-223.32C458.35,-220.75 465.43,-217.64 472,-213.88 493.34,-201.68 485.88,-182.62 508,-171.88 564.26,-144.57 724.53,-143.72 839.14,-147.08"/>
<polygon fill="#757575" stroke="#757575" points="839.29,-150.58 849.39,-147.39 839.5,-143.59 839.29,-150.58"/>
</g>
<!-- modules/courses/courses.module.ts&#45;&gt;providers.token.ts -->
<g id="edge52" class="edge">
<title>modules/courses/courses.module.ts&#45;&gt;providers.token.ts</title>
<path fill="none" stroke="#757575" d="M438.57,-246.4C481.99,-252.35 534.39,-259.53 575.72,-265.19"/>
<polygon fill="#757575" stroke="#757575" points="575.33,-268.67 585.71,-266.56 576.28,-261.73 575.33,-268.67"/>
</g>
<!-- modules/courses/courses.controller.ts -->
<g id="node32" class="node">
<title>modules/courses/courses.controller.ts</title>
<path fill="none" stroke="#c6c5fe" d="M761.33,-245.38C761.33,-245.38 533.67,-245.38 533.67,-245.38 529.83,-245.38 526,-241.55 526,-237.72 526,-237.72 526,-230.05 526,-230.05 526,-226.22 529.83,-222.38 533.67,-222.38 533.67,-222.38 761.33,-222.38 761.33,-222.38 765.17,-222.38 769,-226.22 769,-230.05 769,-230.05 769,-237.72 769,-237.72 769,-241.55 765.17,-245.38 761.33,-245.38"/>
<text text-anchor="middle" x="647.5" y="-230.18" font-family="Arial" font-size="14.00" fill="#c6c5fe">modules/courses/courses.controller.ts</text>
</g>
<!-- modules/courses/courses.module.ts&#45;&gt;modules/courses/courses.controller.ts -->
<g id="edge50" class="edge">
<title>modules/courses/courses.module.ts&#45;&gt;modules/courses/courses.controller.ts</title>
<path fill="none" stroke="#757575" d="M470.33,-234.49C485.07,-234.44 500.25,-234.38 515.22,-234.33"/>
<polygon fill="#757575" stroke="#757575" points="515.56,-237.83 525.54,-234.3 515.53,-230.83 515.56,-237.83"/>
</g>
<!-- modules/courses/courses.module.ts&#45;&gt;services/agent.client.ts -->
<g id="edge53" class="edge">
<title>modules/courses/courses.module.ts&#45;&gt;services/agent.client.ts</title>
<path fill="none" stroke="#757575" d="M458.62,-223.34C463.41,-220.68 467.91,-217.55 472,-213.88 514.11,-176.17 462.72,-125.73 508,-91.88 737.74,79.86 1121.78,-34.2 1245.67,-77.93"/>
<polygon fill="#757575" stroke="#757575" points="1244.56,-81.25 1255.16,-81.32 1246.92,-74.66 1244.56,-81.25"/>
</g>
<!-- modules/progress/progress.module.ts&#45;&gt;modules/progress/progress.service.ts -->
<g id="edge60" class="edge">
<title>modules/progress/progress.module.ts&#45;&gt;modules/progress/progress.service.ts</title>
<path fill="none" stroke="#757575" d="M737.12,-564.41C764.59,-567.48 795,-570.36 823,-571.88 934.86,-577.95 1062.17,-576.81 1154.86,-574.52"/>
<polygon fill="#757575" stroke="#757575" points="1155.23,-578.01 1165.14,-574.26 1155.05,-571.01 1155.23,-578.01"/>
</g>
<!-- modules/progress/progress.controller.ts -->
<g id="node35" class="node">
<title>modules/progress/progress.controller.ts</title>
<path fill="none" stroke="#c6c5fe" d="M1084.33,-562.38C1084.33,-562.38 845.67,-562.38 845.67,-562.38 841.83,-562.38 838,-558.55 838,-554.72 838,-554.72 838,-547.05 838,-547.05 838,-543.22 841.83,-539.38 845.67,-539.38 845.67,-539.38 1084.33,-539.38 1084.33,-539.38 1088.17,-539.38 1092,-543.22 1092,-547.05 1092,-547.05 1092,-554.72 1092,-554.72 1092,-558.55 1088.17,-562.38 1084.33,-562.38"/>
<text text-anchor="middle" x="965" y="-547.18" font-family="Arial" font-size="14.00" fill="#c6c5fe">modules/progress/progress.controller.ts</text>
</g>
<!-- modules/progress/progress.module.ts&#45;&gt;modules/progress/progress.controller.ts -->
<g id="edge59" class="edge">
<title>modules/progress/progress.module.ts&#45;&gt;modules/progress/progress.controller.ts</title>
<path fill="none" stroke="#757575" d="M769.58,-552.12C788.59,-551.99 808.36,-551.87 827.69,-551.75"/>
<polygon fill="#757575" stroke="#757575" points="827.78,-555.25 837.75,-551.68 827.73,-548.25 827.78,-555.25"/>
</g>
<!-- common/decorators/current&#45;user.decorator.ts -->
<g id="node29" class="node">
<title>common/decorators/current&#45;user.decorator.ts</title>
<path fill="none" stroke="#cfffac" d="M1422.33,-481.38C1422.33,-481.38 1150.67,-481.38 1150.67,-481.38 1146.83,-481.38 1143,-477.55 1143,-473.72 1143,-473.72 1143,-466.05 1143,-466.05 1143,-462.22 1146.83,-458.38 1150.67,-458.38 1150.67,-458.38 1422.33,-458.38 1422.33,-458.38 1426.17,-458.38 1430,-462.22 1430,-466.05 1430,-466.05 1430,-473.72 1430,-473.72 1430,-477.55 1426.17,-481.38 1422.33,-481.38"/>
<text text-anchor="middle" x="1286.5" y="-466.18" font-family="Arial" font-size="14.00" fill="#cfffac">common/decorators/current&#45;user.decorator.ts</text>
</g>
<!-- main.ts -->
<g id="node30" class="node">
<title>main.ts</title>
<path fill="none" stroke="#c6c5fe" d="M53.33,-286.38C53.33,-286.38 7.67,-286.38 7.67,-286.38 3.83,-286.38 0,-282.55 0,-278.72 0,-278.72 0,-271.05 0,-271.05 0,-267.22 3.83,-263.38 7.67,-263.38 7.67,-263.38 53.33,-263.38 53.33,-263.38 57.17,-263.38 61,-267.22 61,-271.05 61,-271.05 61,-278.72 61,-278.72 61,-282.55 57.17,-286.38 53.33,-286.38"/>
<text text-anchor="middle" x="30.5" y="-271.18" font-family="Arial" font-size="14.00" fill="#c6c5fe">main.ts</text>
</g>
<!-- main.ts&#45;&gt;app.module.ts -->
<g id="edge35" class="edge">
<title>main.ts&#45;&gt;app.module.ts</title>
<path fill="none" stroke="#757575" d="M61.24,-274.88C69.03,-274.88 77.7,-274.88 86.47,-274.88"/>
<polygon fill="#757575" stroke="#757575" points="86.75,-278.38 96.75,-274.88 86.75,-271.38 86.75,-278.38"/>
</g>
<!-- modules/chat/chat.controller.ts&#45;&gt;modules/auth/auth.guard.ts -->
<g id="edge40" class="edge">
<title>modules/chat/chat.controller.ts&#45;&gt;modules/auth/auth.guard.ts</title>
<path fill="none" stroke="#757575" d="M747.64,-440.6C841.95,-445.88 986.87,-446.05 1107,-411.88 1167.27,-394.74 1229.24,-353.73 1261.95,-329.9"/>
<polygon fill="#757575" stroke="#757575" points="1264.41,-332.43 1270.37,-323.66 1260.25,-326.8 1264.41,-332.43"/>
</g>
<!-- modules/chat/chat.controller.ts&#45;&gt;modules/chat/chat.service.ts -->
<g id="edge41" class="edge">
<title>modules/chat/chat.controller.ts&#45;&gt;modules/chat/chat.service.ts</title>
<path fill="none" stroke="#757575" d="M741.08,-443.4C756.76,-446.99 772.61,-451.71 787,-457.88 805.14,-465.67 804.85,-476.13 823,-483.88 834.95,-488.99 847.88,-493.09 860.91,-496.39"/>
<polygon fill="#757575" stroke="#757575" points="860.33,-499.85 870.87,-498.76 861.95,-493.04 860.33,-499.85"/>
</g>
<!-- modules/chat/chat.controller.ts&#45;&gt;common/pipes/zod&#45;validation.pipe.ts -->
<g id="edge39" class="edge">
<title>modules/chat/chat.controller.ts&#45;&gt;common/pipes/zod&#45;validation.pipe.ts</title>
<path fill="none" stroke="#757575" d="M739.33,-420.37C778.1,-415.45 823.48,-409.7 863.27,-404.65"/>
<polygon fill="#757575" stroke="#757575" points="863.78,-408.12 873.26,-403.39 862.9,-401.17 863.78,-408.12"/>
</g>
<!-- modules/chat/chat.controller.ts&#45;&gt;common/decorators/current&#45;user.decorator.ts -->
<g id="edge38" class="edge">
<title>modules/chat/chat.controller.ts&#45;&gt;common/decorators/current&#45;user.decorator.ts</title>
<path fill="none" stroke="#757575" d="M747.67,-440.33C772.27,-442.29 798.59,-444.27 823,-445.88 926.33,-452.71 1042.76,-458.74 1132.95,-463.05"/>
<polygon fill="#757575" stroke="#757575" points="1132.82,-466.55 1142.98,-463.53 1133.15,-459.56 1132.82,-466.55"/>
</g>
<!-- modules/courses/courses.controller.ts&#45;&gt;modules/auth/auth.guard.ts -->
<g id="edge48" class="edge">
<title>modules/courses/courses.controller.ts&#45;&gt;modules/auth/auth.guard.ts</title>
<path fill="none" stroke="#757575" d="M769.1,-232.29C862.08,-232.96 993.54,-238.05 1107,-257.88 1155.83,-266.42 1210.1,-284.06 1245.84,-296.86"/>
<polygon fill="#757575" stroke="#757575" points="1244.81,-300.21 1255.4,-300.33 1247.2,-293.63 1244.81,-300.21"/>
</g>
<!-- modules/courses/courses.controller.ts&#45;&gt;modules/courses/courses.service.ts -->
<g id="edge49" class="edge">
<title>modules/courses/courses.controller.ts&#45;&gt;modules/courses/courses.service.ts</title>
<path fill="none" stroke="#757575" d="M739.84,-222.37C755.66,-219.71 771.88,-216.56 787,-212.88 835.7,-201.03 890.08,-181.64 925.55,-168.12"/>
<polygon fill="#757575" stroke="#757575" points="926.95,-171.33 935.03,-164.47 924.44,-164.79 926.95,-171.33"/>
</g>
<!-- modules/courses/courses.controller.ts&#45;&gt;common/pipes/zod&#45;validation.pipe.ts -->
<g id="edge47" class="edge">
<title>modules/courses/courses.controller.ts&#45;&gt;common/pipes/zod&#45;validation.pipe.ts</title>
<path fill="none" stroke="#757575" d="M769.05,-242.28C775.47,-245.43 781.53,-249.26 787,-253.88 826.94,-287.63 783.73,-331.36 823,-365.88 827.55,-369.88 832.51,-373.36 837.76,-376.37"/>
<polygon fill="#757575" stroke="#757575" points="836.36,-379.58 846.85,-381.02 839.54,-373.35 836.36,-379.58"/>
</g>
<!-- modules/courses/courses.controller.ts&#45;&gt;common/decorators/current&#45;user.decorator.ts -->
<g id="edge46" class="edge">
<title>modules/courses/courses.controller.ts&#45;&gt;common/decorators/current&#45;user.decorator.ts</title>
<path fill="none" stroke="#757575" d="M769.08,-243.39C775.42,-246.28 781.45,-249.74 787,-253.88 817.6,-276.71 792.32,-309.16 823,-331.88 925.39,-407.71 986.12,-330.63 1107,-370.88 1165.7,-390.43 1227.35,-429.36 1260.63,-452.14"/>
<polygon fill="#757575" stroke="#757575" points="1259.03,-455.29 1269.24,-458.11 1263.02,-449.54 1259.03,-455.29"/>
</g>
<!-- modules/progress/progress.controller.ts&#45;&gt;modules/auth/auth.guard.ts -->
<g id="edge57" class="edge">
<title>modules/progress/progress.controller.ts&#45;&gt;modules/auth/auth.guard.ts</title>
<path fill="none" stroke="#757575" d="M1092.2,-540.05C1097.4,-537.43 1102.37,-534.39 1107,-530.88 1138.71,-506.83 1120.22,-481.52 1143,-448.88 1177.29,-399.75 1231.09,-353.92 1261.84,-329.73"/>
<polygon fill="#757575" stroke="#757575" points="1264.11,-332.4 1269.86,-323.5 1259.82,-326.87 1264.11,-332.4"/>
</g>
<!-- modules/progress/progress.controller.ts&#45;&gt;modules/progress/progress.service.ts -->
<g id="edge58" class="edge">
<title>modules/progress/progress.controller.ts&#45;&gt;modules/progress/progress.service.ts</title>
<path fill="none" stroke="#757575" d="M1092.27,-558.39C1112.96,-559.62 1134.43,-560.9 1155.21,-562.13"/>
<polygon fill="#757575" stroke="#757575" points="1155.16,-565.64 1165.35,-562.74 1155.58,-558.65 1155.16,-565.64"/>
</g>
<!-- modules/progress/progress.controller.ts&#45;&gt;common/decorators/current&#45;user.decorator.ts -->
<g id="edge56" class="edge">
<title>modules/progress/progress.controller.ts&#45;&gt;common/decorators/current&#45;user.decorator.ts</title>
<path fill="none" stroke="#757575" d="M1064.3,-539.37C1078.7,-536.98 1093.29,-534.17 1107,-530.88 1156.63,-518.99 1211.99,-498.97 1247.71,-485.13"/>
<polygon fill="#757575" stroke="#757575" points="1249.2,-488.3 1257.24,-481.4 1246.65,-481.78 1249.2,-488.3"/>
</g>
</g>
</svg>
