<?xml version="1.0" encoding="UTF-8" standalone="no"?>
<!DOCTYPE svg PUBLIC "-//W3C//DTD SVG 1.1//EN"
 "http://www.w3.org/Graphics/SVG/1.1/DTD/svg11.dtd">
<!-- Generated by graphviz version 2.43.0 (0)
 -->
<!-- Title: G Pages: 1 -->
<svg width="830pt" height="188pt"
 viewBox="0.00 0.00 830.20 188.20" xmlns="http://www.w3.org/2000/svg" xmlns:xlink="http://www.w3.org/1999/xlink">
<g id="graph0" class="graph" transform="scale(1 1) rotate(0) translate(21.6 166.6)">
<title>G</title>
<polygon fill="#111111" stroke="transparent" points="-21.6,21.6 -21.6,-166.6 808.6,-166.6 808.6,21.6 -21.6,21.6"/>
<!-- __tests__/agent.client.test.ts -->
<g id="node1" class="node">
<title>__tests__/agent.client.test.ts</title>
<path fill="none" stroke="#c6c5fe" d="M548.33,-145C548.33,-145 375.67,-145 375.67,-145 371.83,-145 368,-141.17 368,-137.33 368,-137.33 368,-129.67 368,-129.67 368,-125.83 371.83,-122 375.67,-122 375.67,-122 548.33,-122 548.33,-122 552.17,-122 556,-125.83 556,-129.67 556,-129.67 556,-137.33 556,-137.33 556,-141.17 552.17,-145 548.33,-145"/>
<text text-anchor="middle" x="462" y="-129.8" font-family="Arial" font-size="14.00" fill="#c6c5fe">__tests__/agent.client.test.ts</text>
</g>
<!-- services/agent.client.ts -->
<g id="node2" class="node">
<title>services/agent.client.ts</title>
<path fill="none" stroke="#cfffac" d="M779.33,-95C779.33,-95 641.67,-95 641.67,-95 637.83,-95 634,-91.17 634,-87.33 634,-87.33 634,-79.67 634,-79.67 634,-75.83 637.83,-72 641.67,-72 641.67,-72 779.33,-72 779.33,-72 783.17,-72 787,-75.83 787,-79.67 787,-79.67 787,-87.33 787,-87.33 787,-91.17 783.17,-95 779.33,-95"/>
<text text-anchor="middle" x="710.5" y="-79.8" font-family="Arial" font-size="14.00" fill="#cfffac">services/agent.client.ts</text>
</g>
<!-- __tests__/agent.client.test.ts&#45;&gt;services/agent.client.ts -->
<g id="edge1" class="edge">
<title>__tests__/agent.client.test.ts&#45;&gt;services/agent.client.ts</title>
<path fill="none" stroke="#757575" d="M524.55,-121.94C547.61,-117.53 574.03,-112.39 598,-107.5 613.99,-104.24 631.23,-100.59 647.27,-97.14"/>
<polygon fill="#757575" stroke="#757575" points="648.04,-100.56 657.08,-95.03 646.57,-93.72 648.04,-100.56"/>
</g>
<!-- __tests__/course&#45;generation.processor.test.ts -->
<g id="node3" class="node">
<title>__tests__/course&#45;generation.processor.test.ts</title>
<path fill="none" stroke="#c6c5fe" d="M282.33,-23C282.33,-23 7.67,-23 7.67,-23 3.83,-23 0,-19.17 0,-15.33 0,-15.33 0,-7.67 0,-7.67 0,-3.83 3.83,0 7.67,0 7.67,0 282.33,0 282.33,0 286.17,0 290,-3.83 290,-7.67 290,-7.67 290,-15.33 290,-15.33 290,-19.17 286.17,-23 282.33,-23"/>
<text text-anchor="middle" x="145" y="-7.8" font-family="Arial" font-size="14.00" fill="#c6c5fe">__tests__/course&#45;generation.processor.test.ts</text>
</g>
<!-- processors/course&#45;generation.processor.ts -->
<g id="node4" class="node">
<title>processors/course&#45;generation.processor.ts</title>
<path fill="none" stroke="#c6c5fe" d="M590.33,-24C590.33,-24 333.67,-24 333.67,-24 329.83,-24 326,-20.17 326,-16.33 326,-16.33 326,-8.67 326,-8.67 326,-4.83 329.83,-1 333.67,-1 333.67,-1 590.33,-1 590.33,-1 594.17,-1 598,-4.83 598,-8.67 598,-8.67 598,-16.33 598,-16.33 598,-20.17 594.17,-24 590.33,-24"/>
<text text-anchor="middle" x="462" y="-8.8" font-family="Arial" font-size="14.00" fill="#c6c5fe">processors/course&#45;generation.processor.ts</text>
</g>
<!-- __tests__/course&#45;generation.processor.test.ts&#45;&gt;processors/course&#45;generation.processor.ts -->
<g id="edge2" class="edge">
<title>__tests__/course&#45;generation.processor.test.ts&#45;&gt;processors/course&#45;generation.processor.ts</title>
<path fill="none" stroke="#757575" d="M290.13,-11.96C298.54,-11.98 307,-12.01 315.41,-12.04"/>
<polygon fill="#757575" stroke="#757575" points="315.63,-15.54 325.65,-12.07 315.66,-8.54 315.63,-15.54"/>
</g>
<!-- processors/course&#45;generation.processor.ts&#45;&gt;services/agent.client.ts -->
<g id="edge8" class="edge">
<title>processors/course&#45;generation.processor.ts&#45;&gt;services/agent.client.ts</title>
<path fill="none" stroke="#757575" d="M568.25,-24.07C578.43,-26.39 588.5,-29.16 598,-32.5 615.48,-38.63 617.35,-45.39 634,-53.5 644.79,-58.75 656.75,-63.83 667.9,-68.26"/>
<polygon fill="#757575" stroke="#757575" points="666.86,-71.61 677.45,-71.98 669.4,-65.09 666.86,-71.61"/>
</g>
<!-- queues/definitions.ts -->
<g id="node8" class="node">
<title>queues/definitions.ts</title>
<path fill="none" stroke="#cfffac" d="M772.83,-44C772.83,-44 648.17,-44 648.17,-44 644.33,-44 640.5,-40.17 640.5,-36.33 640.5,-36.33 640.5,-28.67 640.5,-28.67 640.5,-24.83 644.33,-21 648.17,-21 648.17,-21 772.83,-21 772.83,-21 776.67,-21 780.5,-24.83 780.5,-28.67 780.5,-28.67 780.5,-36.33 780.5,-36.33 780.5,-40.17 776.67,-44 772.83,-44"/>
<text text-anchor="middle" x="710.5" y="-28.8" font-family="Arial" font-size="14.00" fill="#cfffac">queues/definitions.ts</text>
</g>
<!-- processors/course&#45;generation.processor.ts&#45;&gt;queues/definitions.ts -->
<g id="edge7" class="edge">
<title>processors/course&#45;generation.processor.ts&#45;&gt;queues/definitions.ts</title>
<path fill="none" stroke="#757575" d="M598.15,-23.47C609.08,-24.35 619.89,-25.23 630.22,-26.07"/>
<polygon fill="#757575" stroke="#757575" points="630.13,-29.57 640.38,-26.89 630.7,-22.59 630.13,-29.57"/>
</g>
<!-- __tests__/embedding.processor.test.ts -->
<g id="node5" class="node">
<title>__tests__/embedding.processor.test.ts</title>
<path fill="none" stroke="#c6c5fe" d="M261.33,-64C261.33,-64 28.67,-64 28.67,-64 24.83,-64 21,-60.17 21,-56.33 21,-56.33 21,-48.67 21,-48.67 21,-44.83 24.83,-41 28.67,-41 28.67,-41 261.33,-41 261.33,-41 265.17,-41 269,-44.83 269,-48.67 269,-48.67 269,-56.33 269,-56.33 269,-60.17 265.17,-64 261.33,-64"/>
<text text-anchor="middle" x="145" y="-48.8" font-family="Arial" font-size="14.00" fill="#c6c5fe">__tests__/embedding.processor.test.ts</text>
</g>
<!-- processors/embedding.processor.ts -->
<g id="node6" class="node">
<title>processors/embedding.processor.ts</title>
<path fill="none" stroke="#c6c5fe" d="M569.33,-65C569.33,-65 354.67,-65 354.67,-65 350.83,-65 347,-61.17 347,-57.33 347,-57.33 347,-49.67 347,-49.67 347,-45.83 350.83,-42 354.67,-42 354.67,-42 569.33,-42 569.33,-42 573.17,-42 577,-45.83 577,-49.67 577,-49.67 577,-57.33 577,-57.33 577,-61.17 573.17,-65 569.33,-65"/>
<text text-anchor="middle" x="462" y="-49.8" font-family="Arial" font-size="14.00" fill="#c6c5fe">processors/embedding.processor.ts</text>
</g>
<!-- __tests__/embedding.processor.test.ts&#45;&gt;processors/embedding.processor.ts -->
<g id="edge3" class="edge">
<title>__tests__/embedding.processor.test.ts&#45;&gt;processors/embedding.processor.ts</title>
<path fill="none" stroke="#757575" d="M269.14,-52.89C291.36,-52.96 314.54,-53.04 336.79,-53.11"/>
<polygon fill="#757575" stroke="#757575" points="336.93,-56.61 346.95,-53.14 336.96,-49.61 336.93,-56.61"/>
</g>
<!-- processors/embedding.processor.ts&#45;&gt;services/agent.client.ts -->
<g id="edge10" class="edge">
<title>processors/embedding.processor.ts&#45;&gt;services/agent.client.ts</title>
<path fill="none" stroke="#757575" d="M557.6,-65.01C579.4,-67.67 602.47,-70.47 623.86,-73.08"/>
<polygon fill="#757575" stroke="#757575" points="623.54,-76.56 633.89,-74.3 624.38,-69.62 623.54,-76.56"/>
</g>
<!-- processors/embedding.processor.ts&#45;&gt;queues/definitions.ts -->
<g id="edge9" class="edge">
<title>processors/embedding.processor.ts&#45;&gt;queues/definitions.ts</title>
<path fill="none" stroke="#757575" d="M577.23,-43.77C595.06,-42.25 613.15,-40.71 629.99,-39.27"/>
<polygon fill="#757575" stroke="#757575" points="630.63,-42.73 640.29,-38.4 630.03,-35.76 630.63,-42.73"/>
</g>
<!-- main.ts -->
<g id="node7" class="node">
<title>main.ts</title>
<path fill="none" stroke="#c6c5fe" d="M167.83,-105C167.83,-105 122.17,-105 122.17,-105 118.33,-105 114.5,-101.17 114.5,-97.33 114.5,-97.33 114.5,-89.67 114.5,-89.67 114.5,-85.83 118.33,-82 122.17,-82 122.17,-82 167.83,-82 167.83,-82 171.67,-82 175.5,-85.83 175.5,-89.67 175.5,-89.67 175.5,-97.33 175.5,-97.33 175.5,-101.17 171.67,-105 167.83,-105"/>
<text text-anchor="middle" x="145" y="-89.8" font-family="Arial" font-size="14.00" fill="#c6c5fe">main.ts</text>
</g>
<!-- main.ts&#45;&gt;services/agent.client.ts -->
<g id="edge6" class="edge">
<title>main.ts&#45;&gt;services/agent.client.ts</title>
<path fill="none" stroke="#757575" d="M175.5,-92.98C258.24,-91.51 494.81,-87.31 623.54,-85.03"/>
<polygon fill="#757575" stroke="#757575" points="623.82,-88.52 633.75,-84.84 623.69,-81.52 623.82,-88.52"/>
</g>
<!-- main.ts&#45;&gt;processors/course&#45;generation.processor.ts -->
<g id="edge4" class="edge">
<title>main.ts&#45;&gt;processors/course&#45;generation.processor.ts</title>
<path fill="none" stroke="#757575" d="M175.71,-95.24C206.2,-95.73 254.11,-92.83 290,-73.5 311.35,-62 304.7,-44.1 326,-32.5 329.11,-30.81 332.32,-29.24 335.6,-27.8"/>
<polygon fill="#757575" stroke="#757575" points="337.04,-30.99 345.04,-24.04 334.45,-24.49 337.04,-30.99"/>
</g>
<!-- main.ts&#45;&gt;processors/embedding.processor.ts -->
<g id="edge5" class="edge">
<title>main.ts&#45;&gt;processors/embedding.processor.ts</title>
<path fill="none" stroke="#757575" d="M175.63,-89.74C217.5,-84.42 296.02,-74.45 360.1,-66.31"/>
<polygon fill="#757575" stroke="#757575" points="360.78,-69.75 370.26,-65.02 359.9,-62.81 360.78,-69.75"/>
</g>
</g>
</svg>
