<?xml version="1.0" encoding="UTF-8" standalone="no"?>
<!DOCTYPE svg PUBLIC "-//W3C//DTD SVG 1.1//EN"
 "http://www.w3.org/Graphics/SVG/1.1/DTD/svg11.dtd">
<!-- Generated by graphviz version 2.43.0 (0)
 -->
<!-- Title: G Pages: 1 -->
<svg width="302pt" height="107pt"
 viewBox="0.00 0.00 302.20 107.20" xmlns="http://www.w3.org/2000/svg" xmlns:xlink="http://www.w3.org/1999/xlink">
<g id="graph0" class="graph" transform="scale(1 1) rotate(0) translate(21.6 85.6)">
<title>G</title>
<polygon fill="#111111" stroke="transparent" points="-21.6,21.6 -21.6,-85.6 280.6,-85.6 280.6,21.6 -21.6,21.6"/>
<!-- __tests__/logger.test.ts -->
<g id="node1" class="node">
<title>__tests__/logger.test.ts</title>
<path fill="none" stroke="#c6c5fe" d="M147.33,-64C147.33,-64 7.67,-64 7.67,-64 3.83,-64 0,-60.17 0,-56.33 0,-56.33 0,-48.67 0,-48.67 0,-44.83 3.83,-41 7.67,-41 7.67,-41 147.33,-41 147.33,-41 151.17,-41 155,-44.83 155,-48.67 155,-48.67 155,-56.33 155,-56.33 155,-60.17 151.17,-64 147.33,-64"/>
<text text-anchor="middle" x="77.5" y="-48.8" font-family="Arial" font-size="14.00" fill="#c6c5fe">__tests__/logger.test.ts</text>
</g>
<!-- logger.ts -->
<g id="node2" class="node">
<title>logger.ts</title>
<path fill="none" stroke="#cfffac" d="M251.33,-64C251.33,-64 198.67,-64 198.67,-64 194.83,-64 191,-60.17 191,-56.33 191,-56.33 191,-48.67 191,-48.67 191,-44.83 194.83,-41 198.67,-41 198.67,-41 251.33,-41 251.33,-41 255.17,-41 259,-44.83 259,-48.67 259,-48.67 259,-56.33 259,-56.33 259,-60.17 255.17,-64 251.33,-64"/>
<text text-anchor="middle" x="225" y="-48.8" font-family="Arial" font-size="14.00" fill="#cfffac">logger.ts</text>
</g>
<!-- __tests__/logger.test.ts&#45;&gt;logger.ts -->
<g id="edge1" class="edge">
<title>__tests__/logger.test.ts&#45;&gt;logger.ts</title>
<path fill="none" stroke="#757575" d="M155.08,-52.5C163.84,-52.5 172.53,-52.5 180.63,-52.5"/>
<polygon fill="#757575" stroke="#757575" points="180.9,-56 190.9,-52.5 180.9,-49 180.9,-56"/>
</g>
<!-- index.ts -->
<g id="node3" class="node">
<title>index.ts</title>
<path fill="none" stroke="#c6c5fe" d="M101.33,-23C101.33,-23 53.67,-23 53.67,-23 49.83,-23 46,-19.17 46,-15.33 46,-15.33 46,-7.67 46,-7.67 46,-3.83 49.83,0 53.67,0 53.67,0 101.33,0 101.33,0 105.17,0 109,-3.83 109,-7.67 109,-7.67 109,-15.33 109,-15.33 109,-19.17 105.17,-23 101.33,-23"/>
<text text-anchor="middle" x="77.5" y="-7.8" font-family="Arial" font-size="14.00" fill="#c6c5fe">index.ts</text>
</g>
<!-- index.ts&#45;&gt;logger.ts -->
<g id="edge2" class="edge">
<title>index.ts&#45;&gt;logger.ts</title>
<path fill="none" stroke="#757575" d="M109.05,-19.78C123.07,-23.61 139.89,-28.24 155,-32.5 163.37,-34.86 172.3,-37.42 180.86,-39.89"/>
<polygon fill="#757575" stroke="#757575" points="180.11,-43.32 190.69,-42.74 182.06,-36.6 180.11,-43.32"/>
</g>
<!-- tracer.ts -->
<g id="node4" class="node">
<title>tracer.ts</title>
<path fill="none" stroke="#cfffac" d="M249.83,-23C249.83,-23 200.17,-23 200.17,-23 196.33,-23 192.5,-19.17 192.5,-15.33 192.5,-15.33 192.5,-7.67 192.5,-7.67 192.5,-3.83 196.33,0 200.17,0 200.17,0 249.83,0 249.83,0 253.67,0 257.5,-3.83 257.5,-7.67 257.5,-7.67 257.5,-15.33 257.5,-15.33 257.5,-19.17 253.67,-23 249.83,-23"/>
<text text-anchor="middle" x="225" y="-7.8" font-family="Arial" font-size="14.00" fill="#cfffac">tracer.ts</text>
</g>
<!-- index.ts&#45;&gt;tracer.ts -->
<g id="edge3" class="edge">
<title>index.ts&#45;&gt;tracer.ts</title>
<path fill="none" stroke="#757575" d="M109,-11.5C130.17,-11.5 158.65,-11.5 181.97,-11.5"/>
<polygon fill="#757575" stroke="#757575" points="182.28,-15 192.28,-11.5 182.28,-8 182.28,-15"/>
</g>
</g>
</svg>
