<?xml version="1.0" encoding="UTF-8" standalone="no"?>
<!DOCTYPE svg PUBLIC "-//W3C//DTD SVG 1.1//EN"
 "http://www.w3.org/Graphics/SVG/1.1/DTD/svg11.dtd">
<!-- Generated by graphviz version 2.43.0 (0)
 -->
<!-- Title: G Pages: 1 -->
<svg width="1146pt" height="412pt"
 viewBox="0.00 0.00 1146.20 411.64" xmlns="http://www.w3.org/2000/svg" xmlns:xlink="http://www.w3.org/1999/xlink">
<g id="graph0" class="graph" transform="scale(1 1) rotate(0) translate(21.6 390.04)">
<title>G</title>
<polygon fill="#111111" stroke="transparent" points="-21.6,21.6 -21.6,-390.04 1124.6,-390.04 1124.6,21.6 -21.6,21.6"/>
<!-- __tests__/vector.test.ts -->
<g id="node1" class="node">
<title>__tests__/vector.test.ts</title>
<path fill="none" stroke="#c6c5fe" d="M935.33,-368.44C935.33,-368.44 795.67,-368.44 795.67,-368.44 791.83,-368.44 788,-364.61 788,-360.77 788,-360.77 788,-353.11 788,-353.11 788,-349.27 791.83,-345.44 795.67,-345.44 795.67,-345.44 935.33,-345.44 935.33,-345.44 939.17,-345.44 943,-349.27 943,-353.11 943,-353.11 943,-360.77 943,-360.77 943,-364.61 939.17,-368.44 935.33,-368.44"/>
<text text-anchor="middle" x="865.5" y="-353.24" font-family="Arial" font-size="14.00" fill="#c6c5fe">__tests__/vector.test.ts</text>
</g>
<!-- vector.ts -->
<g id="node2" class="node">
<title>vector.ts</title>
<path fill="none" stroke="#cfffac" d="M1066.83,-319.44C1066.83,-319.44 1015.17,-319.44 1015.17,-319.44 1011.33,-319.44 1007.5,-315.61 1007.5,-311.77 1007.5,-311.77 1007.5,-304.11 1007.5,-304.11 1007.5,-300.27 1011.33,-296.44 1015.17,-296.44 1015.17,-296.44 1066.83,-296.44 1066.83,-296.44 1070.67,-296.44 1074.5,-300.27 1074.5,-304.11 1074.5,-304.11 1074.5,-311.77 1074.5,-311.77 1074.5,-315.61 1070.67,-319.44 1066.83,-319.44"/>
<text text-anchor="middle" x="1041" y="-304.24" font-family="Arial" font-size="14.00" fill="#cfffac">vector.ts</text>
</g>
<!-- __tests__/vector.test.ts&#45;&gt;vector.ts -->
<g id="edge1" class="edge">
<title>__tests__/vector.test.ts&#45;&gt;vector.ts</title>
<path fill="none" stroke="#757575" d="M907.62,-345.33C934.75,-337.66 970.2,-327.65 997.59,-319.92"/>
<polygon fill="#757575" stroke="#757575" points="998.62,-323.26 1007.29,-317.18 996.71,-316.53 998.62,-323.26"/>
</g>
<!-- client.ts -->
<g id="node3" class="node">
<title>client.ts</title>
<path fill="none" stroke="#c6c5fe" d="M166.83,-152.44C166.83,-152.44 120.17,-152.44 120.17,-152.44 116.33,-152.44 112.5,-148.61 112.5,-144.77 112.5,-144.77 112.5,-137.11 112.5,-137.11 112.5,-133.27 116.33,-129.44 120.17,-129.44 120.17,-129.44 166.83,-129.44 166.83,-129.44 170.67,-129.44 174.5,-133.27 174.5,-137.11 174.5,-137.11 174.5,-144.77 174.5,-144.77 174.5,-148.61 170.67,-152.44 166.83,-152.44"/>
<text text-anchor="middle" x="143.5" y="-137.24" font-family="Arial" font-size="14.00" fill="#c6c5fe">client.ts</text>
</g>
<!-- schema/index.ts -->
<g id="node4" class="node">
<title>schema/index.ts</title>
<path fill="none" stroke="#c6c5fe" d="M331.33,-172.44C331.33,-172.44 231.67,-172.44 231.67,-172.44 227.83,-172.44 224,-168.61 224,-164.77 224,-164.77 224,-157.11 224,-157.11 224,-153.27 227.83,-149.44 231.67,-149.44 231.67,-149.44 331.33,-149.44 331.33,-149.44 335.17,-149.44 339,-153.27 339,-157.11 339,-157.11 339,-164.77 339,-164.77 339,-168.61 335.17,-172.44 331.33,-172.44"/>
<text text-anchor="middle" x="281.5" y="-157.24" font-family="Arial" font-size="14.00" fill="#c6c5fe">schema/index.ts</text>
</g>
<!-- client.ts&#45;&gt;schema/index.ts -->
<g id="edge2" class="edge">
<title>client.ts&#45;&gt;schema/index.ts</title>
<path fill="none" stroke="#757575" d="M174.68,-145.38C186.33,-147.09 200.15,-149.12 213.9,-151.14"/>
<polygon fill="#757575" stroke="#757575" points="213.46,-154.62 223.86,-152.61 214.48,-147.69 213.46,-154.62"/>
</g>
<!-- schema/chat_sessions.ts -->
<g id="node7" class="node">
<title>schema/chat_sessions.ts</title>
<path fill="none" stroke="#c6c5fe" d="M545.33,-92.44C545.33,-92.44 392.67,-92.44 392.67,-92.44 388.83,-92.44 385,-88.61 385,-84.77 385,-84.77 385,-77.11 385,-77.11 385,-73.27 388.83,-69.44 392.67,-69.44 392.67,-69.44 545.33,-69.44 545.33,-69.44 549.17,-69.44 553,-73.27 553,-77.11 553,-77.11 553,-84.77 553,-84.77 553,-88.61 549.17,-92.44 545.33,-92.44"/>
<text text-anchor="middle" x="469" y="-77.24" font-family="Arial" font-size="14.00" fill="#c6c5fe">schema/chat_sessions.ts</text>
</g>
<!-- schema/index.ts&#45;&gt;schema/chat_sessions.ts -->
<g id="edge13" class="edge">
<title>schema/index.ts&#45;&gt;schema/chat_sessions.ts</title>
<path fill="none" stroke="#757575" d="M299.2,-149.42C317.22,-137.42 347.09,-118.76 375,-106.94 385.39,-102.54 396.74,-98.66 407.83,-95.32"/>
<polygon fill="#757575" stroke="#757575" points="408.85,-98.67 417.48,-92.54 406.9,-91.95 408.85,-98.67"/>
</g>
<!-- schema/modules.ts -->
<g id="node8" class="node">
<title>schema/modules.ts</title>
<path fill="none" stroke="#c6c5fe" d="M734.83,-94.44C734.83,-94.44 616.17,-94.44 616.17,-94.44 612.33,-94.44 608.5,-90.61 608.5,-86.77 608.5,-86.77 608.5,-79.11 608.5,-79.11 608.5,-75.27 612.33,-71.44 616.17,-71.44 616.17,-71.44 734.83,-71.44 734.83,-71.44 738.67,-71.44 742.5,-75.27 742.5,-79.11 742.5,-79.11 742.5,-86.77 742.5,-86.77 742.5,-90.61 738.67,-94.44 734.83,-94.44"/>
<text text-anchor="middle" x="675.5" y="-79.24" font-family="Arial" font-size="14.00" fill="#c6c5fe">schema/modules.ts</text>
</g>
<!-- schema/index.ts&#45;&gt;schema/modules.ts -->
<g id="edge18" class="edge">
<title>schema/index.ts&#45;&gt;schema/modules.ts</title>
<path fill="none" stroke="#757575" d="M334.8,-149.42C347.91,-146.59 361.96,-143.61 375,-140.94 452.78,-125 542.16,-107.84 602.89,-96.36"/>
<polygon fill="#757575" stroke="#757575" points="603.58,-99.79 612.76,-94.49 602.28,-92.91 603.58,-99.79"/>
</g>
<!-- schema/users.ts -->
<g id="node9" class="node">
<title>schema/users.ts</title>
<path fill="none" stroke="#cfffac" d="M1091.33,-221.44C1091.33,-221.44 990.67,-221.44 990.67,-221.44 986.83,-221.44 983,-217.61 983,-213.77 983,-213.77 983,-206.11 983,-206.11 983,-202.27 986.83,-198.44 990.67,-198.44 990.67,-198.44 1091.33,-198.44 1091.33,-198.44 1095.17,-198.44 1099,-202.27 1099,-206.11 1099,-206.11 1099,-213.77 1099,-213.77 1099,-217.61 1095.17,-221.44 1091.33,-221.44"/>
<text text-anchor="middle" x="1041" y="-206.24" font-family="Arial" font-size="14.00" fill="#cfffac">schema/users.ts</text>
</g>
<!-- schema/index.ts&#45;&gt;schema/users.ts -->
<g id="edge19" class="edge">
<title>schema/index.ts&#45;&gt;schema/users.ts</title>
<path fill="none" stroke="#757575" d="M287.36,-172.44C298.59,-197.36 328.94,-256.08 375,-280.94 522.6,-360.6 585.17,-315.22 752,-297.94 838.27,-289 861.03,-286.29 943,-257.94 966.85,-249.69 992.37,-236.89 1011.25,-226.57"/>
<polygon fill="#757575" stroke="#757575" points="1013.17,-229.51 1020.21,-221.6 1009.77,-223.39 1013.17,-229.51"/>
</g>
<!-- schema/courses.ts -->
<g id="node10" class="node">
<title>schema/courses.ts</title>
<path fill="none" stroke="#c6c5fe" d="M922.83,-221.44C922.83,-221.44 808.17,-221.44 808.17,-221.44 804.33,-221.44 800.5,-217.61 800.5,-213.77 800.5,-213.77 800.5,-206.11 800.5,-206.11 800.5,-202.27 804.33,-198.44 808.17,-198.44 808.17,-198.44 922.83,-198.44 922.83,-198.44 926.67,-198.44 930.5,-202.27 930.5,-206.11 930.5,-206.11 930.5,-213.77 930.5,-213.77 930.5,-217.61 926.67,-221.44 922.83,-221.44"/>
<text text-anchor="middle" x="865.5" y="-206.24" font-family="Arial" font-size="14.00" fill="#c6c5fe">schema/courses.ts</text>
</g>
<!-- schema/index.ts&#45;&gt;schema/courses.ts -->
<g id="edge14" class="edge">
<title>schema/index.ts&#45;&gt;schema/courses.ts</title>
<path fill="none" stroke="#757575" d="M327.42,-172.49C342.46,-176 359.37,-179.55 375,-181.94 520.93,-204.25 693.8,-209.18 790.12,-210.04"/>
<polygon fill="#757575" stroke="#757575" points="790.32,-213.54 800.34,-210.12 790.37,-206.54 790.32,-213.54"/>
</g>
<!-- schema/enums.ts -->
<g id="node11" class="node">
<title>schema/enums.ts</title>
<path fill="none" stroke="#cfffac" d="M1095.33,-115.44C1095.33,-115.44 986.67,-115.44 986.67,-115.44 982.83,-115.44 979,-111.61 979,-107.77 979,-107.77 979,-100.11 979,-100.11 979,-96.27 982.83,-92.44 986.67,-92.44 986.67,-92.44 1095.33,-92.44 1095.33,-92.44 1099.17,-92.44 1103,-96.27 1103,-100.11 1103,-100.11 1103,-107.77 1103,-107.77 1103,-111.61 1099.17,-115.44 1095.33,-115.44"/>
<text text-anchor="middle" x="1041" y="-100.24" font-family="Arial" font-size="14.00" fill="#cfffac">schema/enums.ts</text>
</g>
<!-- schema/index.ts&#45;&gt;schema/enums.ts -->
<g id="edge16" class="edge">
<title>schema/index.ts&#45;&gt;schema/enums.ts</title>
<path fill="none" stroke="#757575" d="M289,-149.14C301.98,-126.95 333.46,-79.45 375,-59.94 603.52,47.41 696.91,-12.53 943,-68.94 963.61,-73.66 985.86,-81.48 1003.84,-88.53"/>
<polygon fill="#757575" stroke="#757575" points="1002.76,-91.87 1013.35,-92.34 1005.37,-85.37 1002.76,-91.87"/>
</g>
<!-- schema/enrollments.ts -->
<g id="node12" class="node">
<title>schema/enrollments.ts</title>
<path fill="none" stroke="#c6c5fe" d="M744.33,-288.44C744.33,-288.44 606.67,-288.44 606.67,-288.44 602.83,-288.44 599,-284.61 599,-280.77 599,-280.77 599,-273.11 599,-273.11 599,-269.27 602.83,-265.44 606.67,-265.44 606.67,-265.44 744.33,-265.44 744.33,-265.44 748.17,-265.44 752,-269.27 752,-273.11 752,-273.11 752,-280.77 752,-280.77 752,-284.61 748.17,-288.44 744.33,-288.44"/>
<text text-anchor="middle" x="675.5" y="-273.24" font-family="Arial" font-size="14.00" fill="#c6c5fe">schema/enrollments.ts</text>
</g>
<!-- schema/index.ts&#45;&gt;schema/enrollments.ts -->
<g id="edge15" class="edge">
<title>schema/index.ts&#45;&gt;schema/enrollments.ts</title>
<path fill="none" stroke="#757575" d="M290.28,-172.59C304.43,-192.66 336.49,-233.32 375,-250.94 442.21,-281.69 526.71,-286.38 588.81,-284.43"/>
<polygon fill="#757575" stroke="#757575" points="589.1,-287.92 598.96,-284.04 588.84,-280.92 589.1,-287.92"/>
</g>
<!-- schema/module_progress.ts -->
<g id="node13" class="node">
<title>schema/module_progress.ts</title>
<path fill="none" stroke="#c6c5fe" d="M555.33,-172.44C555.33,-172.44 382.67,-172.44 382.67,-172.44 378.83,-172.44 375,-168.61 375,-164.77 375,-164.77 375,-157.11 375,-157.11 375,-153.27 378.83,-149.44 382.67,-149.44 382.67,-149.44 555.33,-149.44 555.33,-149.44 559.17,-149.44 563,-153.27 563,-157.11 563,-157.11 563,-164.77 563,-164.77 563,-168.61 559.17,-172.44 555.33,-172.44"/>
<text text-anchor="middle" x="469" y="-157.24" font-family="Arial" font-size="14.00" fill="#c6c5fe">schema/module_progress.ts</text>
</g>
<!-- schema/index.ts&#45;&gt;schema/module_progress.ts -->
<g id="edge17" class="edge">
<title>schema/index.ts&#45;&gt;schema/module_progress.ts</title>
<path fill="none" stroke="#757575" d="M339.16,-160.94C347.28,-160.94 355.84,-160.94 364.52,-160.94"/>
<polygon fill="#757575" stroke="#757575" points="364.75,-164.44 374.75,-160.94 364.75,-157.44 364.75,-164.44"/>
</g>
<!-- index.ts -->
<g id="node5" class="node">
<title>index.ts</title>
<path fill="none" stroke="#c6c5fe" d="M55.33,-152.44C55.33,-152.44 7.67,-152.44 7.67,-152.44 3.83,-152.44 0,-148.61 0,-144.77 0,-144.77 0,-137.11 0,-137.11 0,-133.27 3.83,-129.44 7.67,-129.44 7.67,-129.44 55.33,-129.44 55.33,-129.44 59.17,-129.44 63,-133.27 63,-137.11 63,-137.11 63,-144.77 63,-144.77 63,-148.61 59.17,-152.44 55.33,-152.44"/>
<text text-anchor="middle" x="31.5" y="-137.24" font-family="Arial" font-size="14.00" fill="#c6c5fe">index.ts</text>
</g>
<!-- index.ts&#45;&gt;client.ts -->
<g id="edge3" class="edge">
<title>index.ts&#45;&gt;client.ts</title>
<path fill="none" stroke="#757575" d="M63.14,-140.94C75.28,-140.94 89.4,-140.94 102.34,-140.94"/>
<polygon fill="#757575" stroke="#757575" points="102.4,-144.44 112.4,-140.94 102.4,-137.44 102.4,-144.44"/>
</g>
<!-- index.ts&#45;&gt;schema/index.ts -->
<g id="edge4" class="edge">
<title>index.ts&#45;&gt;schema/index.ts</title>
<path fill="none" stroke="#757575" d="M62.16,-152.44C73.5,-156.27 86.68,-160.04 99,-161.94 136.54,-167.73 178.96,-167.84 213.35,-166.34"/>
<polygon fill="#757575" stroke="#757575" points="213.93,-169.82 223.75,-165.83 213.59,-162.83 213.93,-169.82"/>
</g>
<!-- supabase.ts -->
<g id="node6" class="node">
<title>supabase.ts</title>
<path fill="none" stroke="#cfffac" d="M180.33,-111.44C180.33,-111.44 106.67,-111.44 106.67,-111.44 102.83,-111.44 99,-107.61 99,-103.77 99,-103.77 99,-96.11 99,-96.11 99,-92.27 102.83,-88.44 106.67,-88.44 106.67,-88.44 180.33,-88.44 180.33,-88.44 184.17,-88.44 188,-92.27 188,-96.11 188,-96.11 188,-103.77 188,-103.77 188,-107.61 184.17,-111.44 180.33,-111.44"/>
<text text-anchor="middle" x="143.5" y="-96.24" font-family="Arial" font-size="14.00" fill="#cfffac">supabase.ts</text>
</g>
<!-- index.ts&#45;&gt;supabase.ts -->
<g id="edge5" class="edge">
<title>index.ts&#45;&gt;supabase.ts</title>
<path fill="none" stroke="#757575" d="M63.14,-129.52C75.2,-125.02 89.21,-119.8 102.08,-115.01"/>
<polygon fill="#757575" stroke="#757575" points="103.49,-118.21 111.64,-111.44 101.05,-111.65 103.49,-118.21"/>
</g>
<!-- schema/chat_sessions.ts&#45;&gt;schema/modules.ts -->
<g id="edge6" class="edge">
<title>schema/chat_sessions.ts&#45;&gt;schema/modules.ts</title>
<path fill="none" stroke="#757575" d="M553.18,-81.75C568.09,-81.9 583.57,-82.05 598.27,-82.19"/>
<polygon fill="#757575" stroke="#757575" points="598.28,-85.69 608.32,-82.29 598.35,-78.69 598.28,-85.69"/>
</g>
<!-- schema/chat_sessions.ts&#45;&gt;schema/users.ts -->
<g id="edge7" class="edge">
<title>schema/chat_sessions.ts&#45;&gt;schema/users.ts</title>
<path fill="none" stroke="#757575" d="M516.14,-69.41C572.59,-57.23 670.68,-42.27 752,-61.94 857.74,-87.52 968.2,-159 1015.81,-192.37"/>
<polygon fill="#757575" stroke="#757575" points="1014.03,-195.4 1024.21,-198.32 1018.08,-189.69 1014.03,-195.4"/>
</g>
<!-- schema/modules.ts&#45;&gt;schema/courses.ts -->
<g id="edge24" class="edge">
<title>schema/modules.ts&#45;&gt;schema/courses.ts</title>
<path fill="none" stroke="#757575" d="M693.85,-94.66C727.09,-117.11 799.9,-166.3 838.8,-192.58"/>
<polygon fill="#757575" stroke="#757575" points="837.22,-195.73 847.46,-198.43 841.14,-189.93 837.22,-195.73"/>
</g>
<!-- schema/modules.ts&#45;&gt;schema/enums.ts -->
<g id="edge25" class="edge">
<title>schema/modules.ts&#45;&gt;schema/enums.ts</title>
<path fill="none" stroke="#757575" d="M742.75,-86.77C806.6,-90.46 902.93,-96.02 968.5,-99.81"/>
<polygon fill="#757575" stroke="#757575" points="968.56,-103.32 978.75,-100.4 968.96,-96.33 968.56,-103.32"/>
</g>
<!-- schema/courses.ts&#45;&gt;vector.ts -->
<g id="edge10" class="edge">
<title>schema/courses.ts&#45;&gt;vector.ts</title>
<path fill="none" stroke="#757575" d="M887.08,-221.57C917.74,-238.88 975.52,-271.52 1010.61,-291.34"/>
<polygon fill="#757575" stroke="#757575" points="1009.01,-294.46 1019.44,-296.33 1012.46,-288.36 1009.01,-294.46"/>
</g>
<!-- schema/courses.ts&#45;&gt;schema/users.ts -->
<g id="edge9" class="edge">
<title>schema/courses.ts&#45;&gt;schema/users.ts</title>
<path fill="none" stroke="#757575" d="M930.61,-209.94C944.23,-209.94 958.64,-209.94 972.38,-209.94"/>
<polygon fill="#757575" stroke="#757575" points="972.74,-213.44 982.74,-209.94 972.74,-206.44 972.74,-213.44"/>
</g>
<!-- schema/courses.ts&#45;&gt;schema/enums.ts -->
<g id="edge8" class="edge">
<title>schema/courses.ts&#45;&gt;schema/enums.ts</title>
<path fill="none" stroke="#757575" d="M885.4,-198.39C916.03,-179.68 976.69,-142.62 1012.24,-120.9"/>
<polygon fill="#757575" stroke="#757575" points="1014.42,-123.67 1021.13,-115.47 1010.77,-117.7 1014.42,-123.67"/>
</g>
<!-- schema/enrollments.ts&#45;&gt;schema/users.ts -->
<g id="edge12" class="edge">
<title>schema/enrollments.ts&#45;&gt;schema/users.ts</title>
<path fill="none" stroke="#757575" d="M748.19,-265.41C801.93,-256.56 877.21,-243.73 943,-230.94 954.63,-228.68 967.01,-226.12 978.89,-223.58"/>
<polygon fill="#757575" stroke="#757575" points="979.7,-226.99 988.74,-221.46 978.22,-220.14 979.7,-226.99"/>
</g>
<!-- schema/enrollments.ts&#45;&gt;schema/courses.ts -->
<g id="edge11" class="edge">
<title>schema/enrollments.ts&#45;&gt;schema/courses.ts</title>
<path fill="none" stroke="#757575" d="M710.37,-265.42C723.4,-260.95 738.41,-255.75 752,-250.94 775.79,-242.51 802.32,-232.85 823.63,-225.03"/>
<polygon fill="#757575" stroke="#757575" points="824.85,-228.31 833.03,-221.58 822.44,-221.74 824.85,-228.31"/>
</g>
<!-- schema/module_progress.ts&#45;&gt;schema/modules.ts -->
<g id="edge22" class="edge">
<title>schema/module_progress.ts&#45;&gt;schema/modules.ts</title>
<path fill="none" stroke="#757575" d="M523.81,-149.36C536.96,-145.6 550.77,-140.83 563,-134.94 580.78,-126.37 581.48,-118.03 599,-108.94 606.96,-104.81 615.71,-101.11 624.35,-97.88"/>
<polygon fill="#757575" stroke="#757575" points="625.77,-101.09 634.01,-94.44 623.42,-94.5 625.77,-101.09"/>
</g>
<!-- schema/module_progress.ts&#45;&gt;schema/users.ts -->
<g id="edge23" class="edge">
<title>schema/module_progress.ts&#45;&gt;schema/users.ts</title>
<path fill="none" stroke="#757575" d="M563.33,-162.28C659.06,-164.69 812.06,-171.37 943,-189.94 954.97,-191.64 967.68,-193.91 979.83,-196.32"/>
<polygon fill="#757575" stroke="#757575" points="979.37,-199.79 989.86,-198.36 980.76,-192.93 979.37,-199.79"/>
</g>
<!-- schema/module_progress.ts&#45;&gt;schema/courses.ts -->
<g id="edge20" class="edge">
<title>schema/module_progress.ts&#45;&gt;schema/courses.ts</title>
<path fill="none" stroke="#757575" d="M562.99,-172.49C632.4,-181.11 725.98,-192.73 790.38,-200.73"/>
<polygon fill="#757575" stroke="#757575" points="790.1,-204.22 800.46,-201.98 790.96,-197.28 790.1,-204.22"/>
</g>
<!-- schema/module_progress.ts&#45;&gt;schema/enums.ts -->
<g id="edge21" class="edge">
<title>schema/module_progress.ts&#45;&gt;schema/enums.ts</title>
<path fill="none" stroke="#757575" d="M563.17,-151.62C676.69,-140.27 866.01,-121.34 968.62,-111.08"/>
<polygon fill="#757575" stroke="#757575" points="969.28,-114.53 978.88,-110.05 968.58,-107.56 969.28,-114.53"/>
</g>
</g>
</svg>
