<?xml version="1.0" encoding="UTF-8" standalone="no"?>
<!DOCTYPE svg PUBLIC "-//W3C//DTD SVG 1.1//EN"
 "http://www.w3.org/Graphics/SVG/1.1/DTD/svg11.dtd">
<!-- Generated by graphviz version 2.43.0 (0)
 -->
<!-- Title: G Pages: 1 -->
<svg width="479pt" height="189pt"
 viewBox="0.00 0.00 479.20 189.20" xmlns="http://www.w3.org/2000/svg" xmlns:xlink="http://www.w3.org/1999/xlink">
<g id="graph0" class="graph" transform="scale(1 1) rotate(0) translate(21.6 167.6)">
<title>G</title>
<polygon fill="#111111" stroke="transparent" points="-21.6,21.6 -21.6,-167.6 457.6,-167.6 457.6,21.6 -21.6,21.6"/>
<!-- __tests__/completion&#45;evaluator.test.ts -->
<g id="node1" class="node">
<title>__tests__/completion&#45;evaluator.test.ts</title>
<path fill="none" stroke="#c6c5fe" d="M236.33,-146C236.33,-146 7.67,-146 7.67,-146 3.83,-146 0,-142.17 0,-138.33 0,-138.33 0,-130.67 0,-130.67 0,-126.83 3.83,-123 7.67,-123 7.67,-123 236.33,-123 236.33,-123 240.17,-123 244,-126.83 244,-130.67 244,-130.67 244,-138.33 244,-138.33 244,-142.17 240.17,-146 236.33,-146"/>
<text text-anchor="middle" x="122" y="-130.8" font-family="Arial" font-size="14.00" fill="#c6c5fe">__tests__/completion&#45;evaluator.test.ts</text>
</g>
<!-- completion&#45;evaluator.ts -->
<g id="node2" class="node">
<title>completion&#45;evaluator.ts</title>
<path fill="none" stroke="#cfffac" d="M428.33,-135C428.33,-135 287.67,-135 287.67,-135 283.83,-135 280,-131.17 280,-127.33 280,-127.33 280,-119.67 280,-119.67 280,-115.83 283.83,-112 287.67,-112 287.67,-112 428.33,-112 428.33,-112 432.17,-112 436,-115.83 436,-119.67 436,-119.67 436,-127.33 436,-127.33 436,-131.17 432.17,-135 428.33,-135"/>
<text text-anchor="middle" x="358" y="-119.8" font-family="Arial" font-size="14.00" fill="#cfffac">completion&#45;evaluator.ts</text>
</g>
<!-- __tests__/completion&#45;evaluator.test.ts&#45;&gt;completion&#45;evaluator.ts -->
<g id="edge1" class="edge">
<title>__tests__/completion&#45;evaluator.test.ts&#45;&gt;completion&#45;evaluator.ts</title>
<path fill="none" stroke="#757575" d="M244.11,-128.81C252.75,-128.4 261.37,-128 269.76,-127.6"/>
<polygon fill="#757575" stroke="#757575" points="270.05,-131.09 279.88,-127.13 269.72,-124.1 270.05,-131.09"/>
</g>
<!-- __tests__/course&#45;generation.test.ts -->
<g id="node3" class="node">
<title>__tests__/course&#45;generation.test.ts</title>
<path fill="none" stroke="#c6c5fe" d="M227.83,-64C227.83,-64 16.17,-64 16.17,-64 12.33,-64 8.5,-60.17 8.5,-56.33 8.5,-56.33 8.5,-48.67 8.5,-48.67 8.5,-44.83 12.33,-41 16.17,-41 16.17,-41 227.83,-41 227.83,-41 231.67,-41 235.5,-44.83 235.5,-48.67 235.5,-48.67 235.5,-56.33 235.5,-56.33 235.5,-60.17 231.67,-64 227.83,-64"/>
<text text-anchor="middle" x="122" y="-48.8" font-family="Arial" font-size="14.00" fill="#c6c5fe">__tests__/course&#45;generation.test.ts</text>
</g>
<!-- course&#45;generation.ts -->
<g id="node4" class="node">
<title>course&#45;generation.ts</title>
<path fill="none" stroke="#cfffac" d="M420.33,-84C420.33,-84 295.67,-84 295.67,-84 291.83,-84 288,-80.17 288,-76.33 288,-76.33 288,-68.67 288,-68.67 288,-64.83 291.83,-61 295.67,-61 295.67,-61 420.33,-61 420.33,-61 424.17,-61 428,-64.83 428,-68.67 428,-68.67 428,-76.33 428,-76.33 428,-80.17 424.17,-84 420.33,-84"/>
<text text-anchor="middle" x="358" y="-68.8" font-family="Arial" font-size="14.00" fill="#cfffac">course&#45;generation.ts</text>
</g>
<!-- __tests__/course&#45;generation.test.ts&#45;&gt;course&#45;generation.ts -->
<g id="edge2" class="edge">
<title>__tests__/course&#45;generation.test.ts&#45;&gt;course&#45;generation.ts</title>
<path fill="none" stroke="#757575" d="M235.54,-62.12C249.73,-63.33 264,-64.55 277.52,-65.71"/>
<polygon fill="#757575" stroke="#757575" points="277.44,-69.21 287.7,-66.58 278.03,-62.24 277.44,-69.21"/>
</g>
<!-- __tests__/module&#45;teacher.test.ts -->
<g id="node5" class="node">
<title>__tests__/module&#45;teacher.test.ts</title>
<path fill="none" stroke="#c6c5fe" d="M220.33,-23C220.33,-23 23.67,-23 23.67,-23 19.83,-23 16,-19.17 16,-15.33 16,-15.33 16,-7.67 16,-7.67 16,-3.83 19.83,0 23.67,0 23.67,0 220.33,0 220.33,0 224.17,0 228,-3.83 228,-7.67 228,-7.67 228,-15.33 228,-15.33 228,-19.17 224.17,-23 220.33,-23"/>
<text text-anchor="middle" x="122" y="-7.8" font-family="Arial" font-size="14.00" fill="#c6c5fe">__tests__/module&#45;teacher.test.ts</text>
</g>
<!-- module&#45;teacher.ts -->
<g id="node6" class="node">
<title>module&#45;teacher.ts</title>
<path fill="none" stroke="#cfffac" d="M412.83,-33C412.83,-33 303.17,-33 303.17,-33 299.33,-33 295.5,-29.17 295.5,-25.33 295.5,-25.33 295.5,-17.67 295.5,-17.67 295.5,-13.83 299.33,-10 303.17,-10 303.17,-10 412.83,-10 412.83,-10 416.67,-10 420.5,-13.83 420.5,-17.67 420.5,-17.67 420.5,-25.33 420.5,-25.33 420.5,-29.17 416.67,-33 412.83,-33"/>
<text text-anchor="middle" x="358" y="-17.8" font-family="Arial" font-size="14.00" fill="#cfffac">module&#45;teacher.ts</text>
</g>
<!-- __tests__/module&#45;teacher.test.ts&#45;&gt;module&#45;teacher.ts -->
<g id="edge3" class="edge">
<title>__tests__/module&#45;teacher.test.ts&#45;&gt;module&#45;teacher.ts</title>
<path fill="none" stroke="#757575" d="M228.02,-15.99C247.31,-16.81 267.03,-17.66 285.07,-18.43"/>
<polygon fill="#757575" stroke="#757575" points="285.05,-21.93 295.19,-18.86 285.35,-14.93 285.05,-21.93"/>
</g>
<!-- index.ts -->
<g id="node7" class="node">
<title>index.ts</title>
<path fill="none" stroke="#c6c5fe" d="M145.83,-105C145.83,-105 98.17,-105 98.17,-105 94.33,-105 90.5,-101.17 90.5,-97.33 90.5,-97.33 90.5,-89.67 90.5,-89.67 90.5,-85.83 94.33,-82 98.17,-82 98.17,-82 145.83,-82 145.83,-82 149.67,-82 153.5,-85.83 153.5,-89.67 153.5,-89.67 153.5,-97.33 153.5,-97.33 153.5,-101.17 149.67,-105 145.83,-105"/>
<text text-anchor="middle" x="122" y="-89.8" font-family="Arial" font-size="14.00" fill="#c6c5fe">index.ts</text>
</g>
<!-- index.ts&#45;&gt;completion&#45;evaluator.ts -->
<g id="edge4" class="edge">
<title>index.ts&#45;&gt;completion&#45;evaluator.ts</title>
<path fill="none" stroke="#757575" d="M153.59,-97.42C183.06,-101.2 229.06,-107.1 269.86,-112.33"/>
<polygon fill="#757575" stroke="#757575" points="269.47,-115.81 279.84,-113.61 270.36,-108.86 269.47,-115.81"/>
</g>
<!-- index.ts&#45;&gt;course&#45;generation.ts -->
<g id="edge5" class="edge">
<title>index.ts&#45;&gt;course&#45;generation.ts</title>
<path fill="none" stroke="#757575" d="M153.59,-90.75C184.9,-87.94 234.87,-83.46 277.44,-79.64"/>
<polygon fill="#757575" stroke="#757575" points="277.87,-83.12 287.52,-78.74 277.25,-76.14 277.87,-83.12"/>
</g>
<!-- index.ts&#45;&gt;module&#45;teacher.ts -->
<g id="edge6" class="edge">
<title>index.ts&#45;&gt;module&#45;teacher.ts</title>
<path fill="none" stroke="#757575" d="M153.61,-91.53C178.55,-89.2 214.35,-84.19 244,-73.5 261.43,-67.22 263.36,-60.65 280,-52.5 291.43,-46.9 304.13,-41.48 315.87,-36.78"/>
<polygon fill="#757575" stroke="#757575" points="317.43,-39.92 325.45,-33.01 314.87,-33.41 317.43,-39.92"/>
</g>
</g>
</svg>
