<?xml version="1.0" encoding="UTF-8" standalone="no"?>
<!DOCTYPE svg PUBLIC "-//W3C//DTD SVG 1.1//EN"
 "http://www.w3.org/Graphics/SVG/1.1/DTD/svg11.dtd">
<!-- Generated by graphviz version 2.43.0 (0)
 -->
<!-- Title: G Pages: 1 -->
<svg width="968pt" height="840pt"
 viewBox="0.00 0.00 968.20 840.20" xmlns="http://www.w3.org/2000/svg" xmlns:xlink="http://www.w3.org/1999/xlink">
<g id="graph0" class="graph" transform="scale(1 1) rotate(0) translate(21.6 818.6)">
<title>G</title>
<polygon fill="#111111" stroke="transparent" points="-21.6,21.6 -21.6,-818.6 946.6,-818.6 946.6,21.6 -21.6,21.6"/>
<!-- api/client.ts -->
<g id="node1" class="node">
<title>api/client.ts</title>
<path fill="none" stroke="#c6c5fe" d="M674.83,-104C674.83,-104 606.17,-104 606.17,-104 602.33,-104 598.5,-100.17 598.5,-96.33 598.5,-96.33 598.5,-88.67 598.5,-88.67 598.5,-84.83 602.33,-81 606.17,-81 606.17,-81 674.83,-81 674.83,-81 678.67,-81 682.5,-84.83 682.5,-88.67 682.5,-88.67 682.5,-96.33 682.5,-96.33 682.5,-100.17 678.67,-104 674.83,-104"/>
<text text-anchor="middle" x="640.5" y="-88.8" font-family="Arial" font-size="14.00" fill="#c6c5fe">api/client.ts</text>
</g>
<!-- lib/supabase.ts -->
<g id="node2" class="node">
<title>lib/supabase.ts</title>
<path fill="none" stroke="#cfffac" d="M905.33,-104C905.33,-104 813.67,-104 813.67,-104 809.83,-104 806,-100.17 806,-96.33 806,-96.33 806,-88.67 806,-88.67 806,-84.83 809.83,-81 813.67,-81 813.67,-81 905.33,-81 905.33,-81 909.17,-81 913,-84.83 913,-88.67 913,-88.67 913,-96.33 913,-96.33 913,-100.17 909.17,-104 905.33,-104"/>
<text text-anchor="middle" x="859.5" y="-88.8" font-family="Arial" font-size="14.00" fill="#cfffac">lib/supabase.ts</text>
</g>
<!-- api/client.ts&#45;&gt;lib/supabase.ts -->
<g id="edge1" class="edge">
<title>api/client.ts&#45;&gt;lib/supabase.ts</title>
<path fill="none" stroke="#757575" d="M682.57,-92.5C714.47,-92.5 759.25,-92.5 795.64,-92.5"/>
<polygon fill="#757575" stroke="#757575" points="795.67,-96 805.67,-92.5 795.67,-89 795.67,-96"/>
</g>
<!-- stores/auth.store.ts -->
<g id="node3" class="node">
<title>stores/auth.store.ts</title>
<path fill="none" stroke="#cfffac" d="M917.33,-63C917.33,-63 801.67,-63 801.67,-63 797.83,-63 794,-59.17 794,-55.33 794,-55.33 794,-47.67 794,-47.67 794,-43.83 797.83,-40 801.67,-40 801.67,-40 917.33,-40 917.33,-40 921.17,-40 925,-43.83 925,-47.67 925,-47.67 925,-55.33 925,-55.33 925,-59.17 921.17,-63 917.33,-63"/>
<text text-anchor="middle" x="859.5" y="-47.8" font-family="Arial" font-size="14.00" fill="#cfffac">stores/auth.store.ts</text>
</g>
<!-- api/client.ts&#45;&gt;stores/auth.store.ts -->
<g id="edge2" class="edge">
<title>api/client.ts&#45;&gt;stores/auth.store.ts</title>
<path fill="none" stroke="#757575" d="M682.57,-84.74C712.1,-79.16 752.65,-71.5 787.39,-64.94"/>
<polygon fill="#757575" stroke="#757575" points="788.31,-68.32 797.49,-63.03 787.01,-61.44 788.31,-68.32"/>
</g>
<!-- api/courses.ts -->
<g id="node4" class="node">
<title>api/courses.ts</title>
<path fill="none" stroke="#c6c5fe" d="M405.33,-145C405.33,-145 320.67,-145 320.67,-145 316.83,-145 313,-141.17 313,-137.33 313,-137.33 313,-129.67 313,-129.67 313,-125.83 316.83,-122 320.67,-122 320.67,-122 405.33,-122 405.33,-122 409.17,-122 413,-125.83 413,-129.67 413,-129.67 413,-137.33 413,-137.33 413,-141.17 409.17,-145 405.33,-145"/>
<text text-anchor="middle" x="363" y="-129.8" font-family="Arial" font-size="14.00" fill="#c6c5fe">api/courses.ts</text>
</g>
<!-- api/courses.ts&#45;&gt;api/client.ts -->
<g id="edge3" class="edge">
<title>api/courses.ts&#45;&gt;api/client.ts</title>
<path fill="none" stroke="#757575" d="M413.25,-126.17C462.63,-118.82 538.31,-107.56 588.35,-100.11"/>
<polygon fill="#757575" stroke="#757575" points="588.93,-103.56 598.31,-98.63 587.9,-96.64 588.93,-103.56"/>
</g>
<!-- api/progress.ts -->
<g id="node5" class="node">
<title>api/progress.ts</title>
<path fill="none" stroke="#c6c5fe" d="M407.83,-104C407.83,-104 318.17,-104 318.17,-104 314.33,-104 310.5,-100.17 310.5,-96.33 310.5,-96.33 310.5,-88.67 310.5,-88.67 310.5,-84.83 314.33,-81 318.17,-81 318.17,-81 407.83,-81 407.83,-81 411.67,-81 415.5,-84.83 415.5,-88.67 415.5,-88.67 415.5,-96.33 415.5,-96.33 415.5,-100.17 411.67,-104 407.83,-104"/>
<text text-anchor="middle" x="363" y="-88.8" font-family="Arial" font-size="14.00" fill="#c6c5fe">api/progress.ts</text>
</g>
<!-- api/progress.ts&#45;&gt;api/client.ts -->
<g id="edge4" class="edge">
<title>api/progress.ts&#45;&gt;api/client.ts</title>
<path fill="none" stroke="#757575" d="M415.82,-92.5C465.15,-92.5 538.96,-92.5 588.14,-92.5"/>
<polygon fill="#757575" stroke="#757575" points="588.24,-96 598.24,-92.5 588.24,-89 588.24,-96"/>
</g>
<!-- components/display/Badge.tsx -->
<g id="node6" class="node">
<title>components/display/Badge.tsx</title>
<path fill="none" stroke="#c6c5fe" d="M455.33,-676C455.33,-676 270.67,-676 270.67,-676 266.83,-676 263,-672.17 263,-668.33 263,-668.33 263,-660.67 263,-660.67 263,-656.83 266.83,-653 270.67,-653 270.67,-653 455.33,-653 455.33,-653 459.17,-653 463,-656.83 463,-660.67 463,-660.67 463,-668.33 463,-668.33 463,-672.17 459.17,-676 455.33,-676"/>
<text text-anchor="middle" x="363" y="-660.8" font-family="Arial" font-size="14.00" fill="#c6c5fe">components/display/Badge.tsx</text>
</g>
<!-- components/typography/AppText.tsx -->
<g id="node7" class="node">
<title>components/typography/AppText.tsx</title>
<path fill="none" stroke="#cfffac" d="M750.33,-473C750.33,-473 530.67,-473 530.67,-473 526.83,-473 523,-469.17 523,-465.33 523,-465.33 523,-457.67 523,-457.67 523,-453.83 526.83,-450 530.67,-450 530.67,-450 750.33,-450 750.33,-450 754.17,-450 758,-453.83 758,-457.67 758,-457.67 758,-465.33 758,-465.33 758,-469.17 754.17,-473 750.33,-473"/>
<text text-anchor="middle" x="640.5" y="-457.8" font-family="Arial" font-size="14.00" fill="#cfffac">components/typography/AppText.tsx</text>
</g>
<!-- components/display/Badge.tsx&#45;&gt;components/typography/AppText.tsx -->
<g id="edge5" class="edge">
<title>components/display/Badge.tsx&#45;&gt;components/typography/AppText.tsx</title>
<path fill="none" stroke="#757575" d="M452.97,-652.98C464.89,-649.38 476.57,-644.67 487,-638.5 553.67,-599.08 605.72,-520 627.87,-482.35"/>
<polygon fill="#757575" stroke="#757575" points="631.13,-483.72 633.09,-473.31 625.06,-480.22 631.13,-483.72"/>
</g>
<!-- components/display/Card.tsx -->
<g id="node8" class="node">
<title>components/display/Card.tsx</title>
<path fill="none" stroke="#cfffac" d="M450.83,-596C450.83,-596 275.17,-596 275.17,-596 271.33,-596 267.5,-592.17 267.5,-588.33 267.5,-588.33 267.5,-580.67 267.5,-580.67 267.5,-576.83 271.33,-573 275.17,-573 275.17,-573 450.83,-573 450.83,-573 454.67,-573 458.5,-576.83 458.5,-580.67 458.5,-580.67 458.5,-588.33 458.5,-588.33 458.5,-592.17 454.67,-596 450.83,-596"/>
<text text-anchor="middle" x="363" y="-580.8" font-family="Arial" font-size="14.00" fill="#cfffac">components/display/Card.tsx</text>
</g>
<!-- components/display/ChatBubble.tsx -->
<g id="node9" class="node">
<title>components/display/ChatBubble.tsx</title>
<path fill="none" stroke="#c6c5fe" d="M471.33,-555C471.33,-555 254.67,-555 254.67,-555 250.83,-555 247,-551.17 247,-547.33 247,-547.33 247,-539.67 247,-539.67 247,-535.83 250.83,-532 254.67,-532 254.67,-532 471.33,-532 471.33,-532 475.17,-532 479,-535.83 479,-539.67 479,-539.67 479,-547.33 479,-547.33 479,-551.17 475.17,-555 471.33,-555"/>
<text text-anchor="middle" x="363" y="-539.8" font-family="Arial" font-size="14.00" fill="#c6c5fe">components/display/ChatBubble.tsx</text>
</g>
<!-- components/display/ChatBubble.tsx&#45;&gt;components/typography/AppText.tsx -->
<g id="edge6" class="edge">
<title>components/display/ChatBubble.tsx&#45;&gt;components/typography/AppText.tsx</title>
<path fill="none" stroke="#757575" d="M446.25,-531.94C459.97,-529.31 473.97,-526.17 487,-522.5 529.1,-510.63 575.5,-491.08 605.93,-477.32"/>
<polygon fill="#757575" stroke="#757575" points="607.59,-480.41 615.23,-473.07 604.68,-474.05 607.59,-480.41"/>
</g>
<!-- components/display/EmptyState.tsx -->
<g id="node10" class="node">
<title>components/display/EmptyState.tsx</title>
<path fill="none" stroke="#c6c5fe" d="M471.33,-514C471.33,-514 254.67,-514 254.67,-514 250.83,-514 247,-510.17 247,-506.33 247,-506.33 247,-498.67 247,-498.67 247,-494.83 250.83,-491 254.67,-491 254.67,-491 471.33,-491 471.33,-491 475.17,-491 479,-494.83 479,-498.67 479,-498.67 479,-506.33 479,-506.33 479,-510.17 475.17,-514 471.33,-514"/>
<text text-anchor="middle" x="363" y="-498.8" font-family="Arial" font-size="14.00" fill="#c6c5fe">components/display/EmptyState.tsx</text>
</g>
<!-- components/display/EmptyState.tsx&#45;&gt;components/typography/AppText.tsx -->
<g id="edge7" class="edge">
<title>components/display/EmptyState.tsx&#45;&gt;components/typography/AppText.tsx</title>
<path fill="none" stroke="#757575" d="M441.48,-490.97C475.81,-485.86 516.36,-479.83 551.8,-474.55"/>
<polygon fill="#757575" stroke="#757575" points="552.75,-477.95 562.13,-473.01 551.72,-471.02 552.75,-477.95"/>
</g>
<!-- components/display/PositionBadge.tsx -->
<g id="node11" class="node">
<title>components/display/PositionBadge.tsx</title>
<path fill="none" stroke="#c6c5fe" d="M479.33,-473C479.33,-473 246.67,-473 246.67,-473 242.83,-473 239,-469.17 239,-465.33 239,-465.33 239,-457.67 239,-457.67 239,-453.83 242.83,-450 246.67,-450 246.67,-450 479.33,-450 479.33,-450 483.17,-450 487,-453.83 487,-457.67 487,-457.67 487,-465.33 487,-465.33 487,-469.17 483.17,-473 479.33,-473"/>
<text text-anchor="middle" x="363" y="-457.8" font-family="Arial" font-size="14.00" fill="#c6c5fe">components/display/PositionBadge.tsx</text>
</g>
<!-- components/display/PositionBadge.tsx&#45;&gt;components/typography/AppText.tsx -->
<g id="edge8" class="edge">
<title>components/display/PositionBadge.tsx&#45;&gt;components/typography/AppText.tsx</title>
<path fill="none" stroke="#757575" d="M487.25,-461.5C495.79,-461.5 504.41,-461.5 512.98,-461.5"/>
<polygon fill="#757575" stroke="#757575" points="513,-465 523,-461.5 513,-458 513,-465"/>
</g>
<!-- components/display/ProgressBar.tsx -->
<g id="node12" class="node">
<title>components/display/ProgressBar.tsx</title>
<path fill="none" stroke="#c6c5fe" d="M473.33,-432C473.33,-432 252.67,-432 252.67,-432 248.83,-432 245,-428.17 245,-424.33 245,-424.33 245,-416.67 245,-416.67 245,-412.83 248.83,-409 252.67,-409 252.67,-409 473.33,-409 473.33,-409 477.17,-409 481,-412.83 481,-416.67 481,-416.67 481,-424.33 481,-424.33 481,-428.17 477.17,-432 473.33,-432"/>
<text text-anchor="middle" x="363" y="-416.8" font-family="Arial" font-size="14.00" fill="#c6c5fe">components/display/ProgressBar.tsx</text>
</g>
<!-- components/display/ProgressBar.tsx&#45;&gt;components/typography/AppText.tsx -->
<g id="edge9" class="edge">
<title>components/display/ProgressBar.tsx&#45;&gt;components/typography/AppText.tsx</title>
<path fill="none" stroke="#757575" d="M441.48,-432.03C475.81,-437.14 516.36,-443.17 551.8,-448.45"/>
<polygon fill="#757575" stroke="#757575" points="551.72,-451.98 562.13,-449.99 552.75,-445.05 551.72,-451.98"/>
</g>
<!-- components/index.ts -->
<g id="node13" class="node">
<title>components/index.ts</title>
<path fill="none" stroke="#c6c5fe" d="M164.33,-432C164.33,-432 38.67,-432 38.67,-432 34.83,-432 31,-428.17 31,-424.33 31,-424.33 31,-416.67 31,-416.67 31,-412.83 34.83,-409 38.67,-409 38.67,-409 164.33,-409 164.33,-409 168.17,-409 172,-412.83 172,-416.67 172,-416.67 172,-424.33 172,-424.33 172,-428.17 168.17,-432 164.33,-432"/>
<text text-anchor="middle" x="101.5" y="-416.8" font-family="Arial" font-size="14.00" fill="#c6c5fe">components/index.ts</text>
</g>
<!-- components/index.ts&#45;&gt;components/display/Badge.tsx -->
<g id="edge10" class="edge">
<title>components/index.ts&#45;&gt;components/display/Badge.tsx</title>
<path fill="none" stroke="#757575" d="M106.08,-432.02C118.11,-468.74 160.85,-583.9 239,-638.5 244.97,-642.67 251.46,-646.19 258.26,-649.17"/>
<polygon fill="#757575" stroke="#757575" points="257.09,-652.47 267.67,-652.9 259.66,-645.96 257.09,-652.47"/>
</g>
<!-- components/index.ts&#45;&gt;components/typography/AppText.tsx -->
<g id="edge21" class="edge">
<title>components/index.ts&#45;&gt;components/typography/AppText.tsx</title>
<path fill="none" stroke="#757575" d="M106.72,-432.06C119.92,-466.24 164.03,-566.77 239,-604.5 337.46,-654.05 384.5,-645.04 487,-604.5 550.24,-579.49 602.61,-514.48 626.14,-481.42"/>
<polygon fill="#757575" stroke="#757575" points="629.15,-483.21 631.99,-473.01 623.41,-479.22 629.15,-483.21"/>
</g>
<!-- components/index.ts&#45;&gt;components/display/Card.tsx -->
<g id="edge11" class="edge">
<title>components/index.ts&#45;&gt;components/display/Card.tsx</title>
<path fill="none" stroke="#757575" d="M109.72,-432.14C127.7,-460.03 177.49,-530.78 239,-563.5 244.91,-566.64 251.19,-569.34 257.66,-571.64"/>
<polygon fill="#757575" stroke="#757575" points="256.66,-574.99 267.25,-574.74 258.81,-568.33 256.66,-574.99"/>
</g>
<!-- components/index.ts&#45;&gt;components/display/ChatBubble.tsx -->
<g id="edge12" class="edge">
<title>components/index.ts&#45;&gt;components/display/ChatBubble.tsx</title>
<path fill="none" stroke="#757575" d="M114.04,-432.24C136.12,-453.92 186.8,-500.1 239,-522.5 244.81,-525 250.9,-527.19 257.13,-529.13"/>
<polygon fill="#757575" stroke="#757575" points="256.42,-532.57 267,-531.97 258.35,-525.84 256.42,-532.57"/>
</g>
<!-- components/index.ts&#45;&gt;components/display/EmptyState.tsx -->
<g id="edge13" class="edge">
<title>components/index.ts&#45;&gt;components/display/EmptyState.tsx</title>
<path fill="none" stroke="#757575" d="M124.07,-432.19C150.44,-445.99 196.78,-468.68 239,-481.5 248.25,-484.31 258.01,-486.77 267.83,-488.93"/>
<polygon fill="#757575" stroke="#757575" points="267.14,-492.37 277.65,-490.99 268.58,-485.51 267.14,-492.37"/>
</g>
<!-- components/index.ts&#45;&gt;components/display/PositionBadge.tsx -->
<g id="edge14" class="edge">
<title>components/index.ts&#45;&gt;components/display/PositionBadge.tsx</title>
<path fill="none" stroke="#757575" d="M172.04,-431.49C204.97,-436.69 244.55,-442.94 279.04,-448.39"/>
<polygon fill="#757575" stroke="#757575" points="278.67,-451.88 289.09,-449.98 279.76,-444.96 278.67,-451.88"/>
</g>
<!-- components/index.ts&#45;&gt;components/display/ProgressBar.tsx -->
<g id="edge15" class="edge">
<title>components/index.ts&#45;&gt;components/display/ProgressBar.tsx</title>
<path fill="none" stroke="#757575" d="M172.04,-420.5C191.35,-420.5 212.95,-420.5 234.47,-420.5"/>
<polygon fill="#757575" stroke="#757575" points="234.67,-424 244.67,-420.5 234.67,-417 234.67,-424"/>
</g>
<!-- components/interactive/Button.tsx -->
<g id="node14" class="node">
<title>components/interactive/Button.tsx</title>
<path fill="none" stroke="#c6c5fe" d="M465.33,-391C465.33,-391 260.67,-391 260.67,-391 256.83,-391 253,-387.17 253,-383.33 253,-383.33 253,-375.67 253,-375.67 253,-371.83 256.83,-368 260.67,-368 260.67,-368 465.33,-368 465.33,-368 469.17,-368 473,-371.83 473,-375.67 473,-375.67 473,-383.33 473,-383.33 473,-387.17 469.17,-391 465.33,-391"/>
<text text-anchor="middle" x="363" y="-375.8" font-family="Arial" font-size="14.00" fill="#c6c5fe">components/interactive/Button.tsx</text>
</g>
<!-- components/index.ts&#45;&gt;components/interactive/Button.tsx -->
<g id="edge16" class="edge">
<title>components/index.ts&#45;&gt;components/interactive/Button.tsx</title>
<path fill="none" stroke="#757575" d="M172.04,-409.51C204.97,-404.31 244.55,-398.06 279.04,-392.61"/>
<polygon fill="#757575" stroke="#757575" points="279.76,-396.04 289.09,-391.02 278.67,-389.12 279.76,-396.04"/>
</g>
<!-- components/interactive/Chip.tsx -->
<g id="node15" class="node">
<title>components/interactive/Chip.tsx</title>
<path fill="none" stroke="#c6c5fe" d="M459.83,-350C459.83,-350 266.17,-350 266.17,-350 262.33,-350 258.5,-346.17 258.5,-342.33 258.5,-342.33 258.5,-334.67 258.5,-334.67 258.5,-330.83 262.33,-327 266.17,-327 266.17,-327 459.83,-327 459.83,-327 463.67,-327 467.5,-330.83 467.5,-334.67 467.5,-334.67 467.5,-342.33 467.5,-342.33 467.5,-346.17 463.67,-350 459.83,-350"/>
<text text-anchor="middle" x="363" y="-334.8" font-family="Arial" font-size="14.00" fill="#c6c5fe">components/interactive/Chip.tsx</text>
</g>
<!-- components/index.ts&#45;&gt;components/interactive/Chip.tsx -->
<g id="edge17" class="edge">
<title>components/index.ts&#45;&gt;components/interactive/Chip.tsx</title>
<path fill="none" stroke="#757575" d="M123.56,-408.8C149.81,-394.72 196.4,-371.39 239,-358.5 246.89,-356.11 255.15,-353.99 263.51,-352.12"/>
<polygon fill="#757575" stroke="#757575" points="264.29,-355.53 273.34,-350.02 262.83,-348.68 264.29,-355.53"/>
</g>
<!-- components/interactive/IconButton.tsx -->
<g id="node16" class="node">
<title>components/interactive/IconButton.tsx</title>
<path fill="none" stroke="#cfffac" d="M477.83,-309C477.83,-309 248.17,-309 248.17,-309 244.33,-309 240.5,-305.17 240.5,-301.33 240.5,-301.33 240.5,-293.67 240.5,-293.67 240.5,-289.83 244.33,-286 248.17,-286 248.17,-286 477.83,-286 477.83,-286 481.67,-286 485.5,-289.83 485.5,-293.67 485.5,-293.67 485.5,-301.33 485.5,-301.33 485.5,-305.17 481.67,-309 477.83,-309"/>
<text text-anchor="middle" x="363" y="-293.8" font-family="Arial" font-size="14.00" fill="#cfffac">components/interactive/IconButton.tsx</text>
</g>
<!-- components/index.ts&#45;&gt;components/interactive/IconButton.tsx -->
<g id="edge18" class="edge">
<title>components/index.ts&#45;&gt;components/interactive/IconButton.tsx</title>
<path fill="none" stroke="#757575" d="M113.66,-408.95C135.48,-387.12 186.31,-340.01 239,-317.5 243.79,-315.45 248.76,-313.62 253.85,-311.96"/>
<polygon fill="#757575" stroke="#757575" points="255.16,-315.23 263.74,-309.01 253.16,-308.52 255.16,-315.23"/>
</g>
<!-- components/interactive/Input.tsx -->
<g id="node17" class="node">
<title>components/interactive/Input.tsx</title>
<path fill="none" stroke="#c6c5fe" d="M460.83,-268C460.83,-268 265.17,-268 265.17,-268 261.33,-268 257.5,-264.17 257.5,-260.33 257.5,-260.33 257.5,-252.67 257.5,-252.67 257.5,-248.83 261.33,-245 265.17,-245 265.17,-245 460.83,-245 460.83,-245 464.67,-245 468.5,-248.83 468.5,-252.67 468.5,-252.67 468.5,-260.33 468.5,-260.33 468.5,-264.17 464.67,-268 460.83,-268"/>
<text text-anchor="middle" x="363" y="-252.8" font-family="Arial" font-size="14.00" fill="#c6c5fe">components/interactive/Input.tsx</text>
</g>
<!-- components/index.ts&#45;&gt;components/interactive/Input.tsx -->
<g id="edge19" class="edge">
<title>components/index.ts&#45;&gt;components/interactive/Input.tsx</title>
<path fill="none" stroke="#757575" d="M109.68,-408.74C127.58,-380.59 177.19,-309.2 239,-276.5 242.3,-274.75 245.72,-273.15 249.22,-271.68"/>
<polygon fill="#757575" stroke="#757575" points="250.55,-274.92 258.66,-268.1 248.06,-268.38 250.55,-274.92"/>
</g>
<!-- components/layout/Screen.tsx -->
<g id="node18" class="node">
<title>components/layout/Screen.tsx</title>
<path fill="none" stroke="#cfffac" d="M454.33,-227C454.33,-227 271.67,-227 271.67,-227 267.83,-227 264,-223.17 264,-219.33 264,-219.33 264,-211.67 264,-211.67 264,-207.83 267.83,-204 271.67,-204 271.67,-204 454.33,-204 454.33,-204 458.17,-204 462,-207.83 462,-211.67 462,-211.67 462,-219.33 462,-219.33 462,-223.17 458.17,-227 454.33,-227"/>
<text text-anchor="middle" x="363" y="-211.8" font-family="Arial" font-size="14.00" fill="#cfffac">components/layout/Screen.tsx</text>
</g>
<!-- components/index.ts&#45;&gt;components/layout/Screen.tsx -->
<g id="edge20" class="edge">
<title>components/index.ts&#45;&gt;components/layout/Screen.tsx</title>
<path fill="none" stroke="#757575" d="M107.21,-408.96C121.44,-375.69 167.46,-279.18 239,-235.5 243.79,-232.58 248.87,-230.04 254.14,-227.84"/>
<polygon fill="#757575" stroke="#757575" points="255.64,-231.01 263.79,-224.24 253.2,-224.46 255.64,-231.01"/>
</g>
<!-- components/typography/Heading.tsx -->
<g id="node19" class="node">
<title>components/typography/Heading.tsx</title>
<path fill="none" stroke="#cfffac" d="M473.33,-186C473.33,-186 252.67,-186 252.67,-186 248.83,-186 245,-182.17 245,-178.33 245,-178.33 245,-170.67 245,-170.67 245,-166.83 248.83,-163 252.67,-163 252.67,-163 473.33,-163 473.33,-163 477.17,-163 481,-166.83 481,-170.67 481,-170.67 481,-178.33 481,-178.33 481,-182.17 477.17,-186 473.33,-186"/>
<text text-anchor="middle" x="363" y="-170.8" font-family="Arial" font-size="14.00" fill="#cfffac">components/typography/Heading.tsx</text>
</g>
<!-- components/index.ts&#45;&gt;components/typography/Heading.tsx -->
<g id="edge22" class="edge">
<title>components/index.ts&#45;&gt;components/typography/Heading.tsx</title>
<path fill="none" stroke="#757575" d="M105.68,-408.95C116.76,-371.02 157.54,-249.55 239,-194.5 240.97,-193.17 242.99,-191.92 245.06,-190.74"/>
<polygon fill="#757575" stroke="#757575" points="247.07,-193.65 254.43,-186.03 243.93,-187.39 247.07,-193.65"/>
</g>
<!-- components/interactive/Button.tsx&#45;&gt;components/typography/AppText.tsx -->
<g id="edge23" class="edge">
<title>components/interactive/Button.tsx&#45;&gt;components/typography/AppText.tsx</title>
<path fill="none" stroke="#757575" d="M450.56,-391.05C462.89,-393.43 475.34,-396.23 487,-399.5 529.46,-411.42 576.14,-431.49 606.52,-445.56"/>
<polygon fill="#757575" stroke="#757575" points="605.25,-448.83 615.79,-449.9 608.22,-442.49 605.25,-448.83"/>
</g>
<!-- components/interactive/Chip.tsx&#45;&gt;components/typography/AppText.tsx -->
<g id="edge24" class="edge">
<title>components/interactive/Chip.tsx&#45;&gt;components/typography/AppText.tsx</title>
<path fill="none" stroke="#757575" d="M460.45,-350.04C469.57,-352.36 478.55,-355.15 487,-358.5 538.94,-379.1 591.1,-419.63 618.92,-443.24"/>
<polygon fill="#757575" stroke="#757575" points="616.89,-446.11 626.75,-449.99 621.46,-440.81 616.89,-446.11"/>
</g>
<!-- components/interactive/Input.tsx&#45;&gt;components/typography/AppText.tsx -->
<g id="edge25" class="edge">
<title>components/interactive/Input.tsx&#45;&gt;components/typography/AppText.tsx</title>
<path fill="none" stroke="#757575" d="M468.55,-267.95C474.97,-270.34 481.18,-273.16 487,-276.5 556.88,-316.63 608.28,-401.86 629.19,-441.03"/>
<polygon fill="#757575" stroke="#757575" points="626.11,-442.7 633.84,-449.94 632.32,-439.46 626.11,-442.7"/>
</g>
<!-- design/config.ts -->
<g id="node20" class="node">
<title>design/config.ts</title>
<path fill="none" stroke="#c6c5fe" d="M148.83,-757C148.83,-757 54.17,-757 54.17,-757 50.33,-757 46.5,-753.17 46.5,-749.33 46.5,-749.33 46.5,-741.67 46.5,-741.67 46.5,-737.83 50.33,-734 54.17,-734 54.17,-734 148.83,-734 148.83,-734 152.67,-734 156.5,-737.83 156.5,-741.67 156.5,-741.67 156.5,-749.33 156.5,-749.33 156.5,-753.17 152.67,-757 148.83,-757"/>
<text text-anchor="middle" x="101.5" y="-741.8" font-family="Arial" font-size="14.00" fill="#c6c5fe">design/config.ts</text>
</g>
<!-- design/themes.ts -->
<g id="node21" class="node">
<title>design/themes.ts</title>
<path fill="none" stroke="#c6c5fe" d="M414.83,-797C414.83,-797 311.17,-797 311.17,-797 307.33,-797 303.5,-793.17 303.5,-789.33 303.5,-789.33 303.5,-781.67 303.5,-781.67 303.5,-777.83 307.33,-774 311.17,-774 311.17,-774 414.83,-774 414.83,-774 418.67,-774 422.5,-777.83 422.5,-781.67 422.5,-781.67 422.5,-789.33 422.5,-789.33 422.5,-793.17 418.67,-797 414.83,-797"/>
<text text-anchor="middle" x="363" y="-781.8" font-family="Arial" font-size="14.00" fill="#c6c5fe">design/themes.ts</text>
</g>
<!-- design/config.ts&#45;&gt;design/themes.ts -->
<g id="edge26" class="edge">
<title>design/config.ts&#45;&gt;design/themes.ts</title>
<path fill="none" stroke="#757575" d="M156.58,-753.84C196.33,-759.96 250.63,-768.33 293.42,-774.93"/>
<polygon fill="#757575" stroke="#757575" points="293.06,-778.41 303.47,-776.48 294.12,-771.5 293.06,-778.41"/>
</g>
<!-- design/tokens.ts -->
<g id="node22" class="node">
<title>design/tokens.ts</title>
<path fill="none" stroke="#cfffac" d="M689.83,-777C689.83,-777 591.17,-777 591.17,-777 587.33,-777 583.5,-773.17 583.5,-769.33 583.5,-769.33 583.5,-761.67 583.5,-761.67 583.5,-757.83 587.33,-754 591.17,-754 591.17,-754 689.83,-754 689.83,-754 693.67,-754 697.5,-757.83 697.5,-761.67 697.5,-761.67 697.5,-769.33 697.5,-769.33 697.5,-773.17 693.67,-777 689.83,-777"/>
<text text-anchor="middle" x="640.5" y="-761.8" font-family="Arial" font-size="14.00" fill="#cfffac">design/tokens.ts</text>
</g>
<!-- design/config.ts&#45;&gt;design/tokens.ts -->
<g id="edge27" class="edge">
<title>design/config.ts&#45;&gt;design/tokens.ts</title>
<path fill="none" stroke="#757575" d="M156.95,-747.53C256.14,-751.22 465.93,-759.04 573.24,-763.03"/>
<polygon fill="#757575" stroke="#757575" points="573.18,-766.53 583.3,-763.41 573.44,-759.54 573.18,-766.53"/>
</g>
<!-- design/typography.ts -->
<g id="node23" class="node">
<title>design/typography.ts</title>
<path fill="none" stroke="#cfffac" d="M425.33,-717C425.33,-717 300.67,-717 300.67,-717 296.83,-717 293,-713.17 293,-709.33 293,-709.33 293,-701.67 293,-701.67 293,-697.83 296.83,-694 300.67,-694 300.67,-694 425.33,-694 425.33,-694 429.17,-694 433,-697.83 433,-701.67 433,-701.67 433,-709.33 433,-709.33 433,-713.17 429.17,-717 425.33,-717"/>
<text text-anchor="middle" x="363" y="-701.8" font-family="Arial" font-size="14.00" fill="#cfffac">design/typography.ts</text>
</g>
<!-- design/config.ts&#45;&gt;design/typography.ts -->
<g id="edge28" class="edge">
<title>design/config.ts&#45;&gt;design/typography.ts</title>
<path fill="none" stroke="#757575" d="M156.58,-737.16C193.09,-731.54 241.87,-724.02 282.73,-717.72"/>
<polygon fill="#757575" stroke="#757575" points="283.32,-721.17 292.67,-716.19 282.25,-714.25 283.32,-721.17"/>
</g>
<!-- design/themes.ts&#45;&gt;design/tokens.ts -->
<g id="edge29" class="edge">
<title>design/themes.ts&#45;&gt;design/tokens.ts</title>
<path fill="none" stroke="#757575" d="M422.76,-781.23C466.84,-778.03 527.21,-773.65 573.04,-770.32"/>
<polygon fill="#757575" stroke="#757575" points="573.46,-773.8 583.18,-769.59 572.95,-766.82 573.46,-773.8"/>
</g>
<!-- hooks/useCourseGeneration.ts -->
<g id="node24" class="node">
<title>hooks/useCourseGeneration.ts</title>
<path fill="none" stroke="#c6c5fe" d="M195.33,-145C195.33,-145 7.67,-145 7.67,-145 3.83,-145 0,-141.17 0,-137.33 0,-137.33 0,-129.67 0,-129.67 0,-125.83 3.83,-122 7.67,-122 7.67,-122 195.33,-122 195.33,-122 199.17,-122 203,-125.83 203,-129.67 203,-129.67 203,-137.33 203,-137.33 203,-141.17 199.17,-145 195.33,-145"/>
<text text-anchor="middle" x="101.5" y="-129.8" font-family="Arial" font-size="14.00" fill="#c6c5fe">hooks/useCourseGeneration.ts</text>
</g>
<!-- hooks/useCourseGeneration.ts&#45;&gt;api/courses.ts -->
<g id="edge30" class="edge">
<title>hooks/useCourseGeneration.ts&#45;&gt;api/courses.ts</title>
<path fill="none" stroke="#757575" d="M203.2,-133.5C236.85,-133.5 273.24,-133.5 302.68,-133.5"/>
<polygon fill="#757575" stroke="#757575" points="302.79,-137 312.79,-133.5 302.79,-130 302.79,-137"/>
</g>
<!-- hooks/useSSE.ts -->
<g id="node25" class="node">
<title>hooks/useSSE.ts</title>
<path fill="none" stroke="#c6c5fe" d="M414.83,-63C414.83,-63 311.17,-63 311.17,-63 307.33,-63 303.5,-59.17 303.5,-55.33 303.5,-55.33 303.5,-47.67 303.5,-47.67 303.5,-43.83 307.33,-40 311.17,-40 311.17,-40 414.83,-40 414.83,-40 418.67,-40 422.5,-43.83 422.5,-47.67 422.5,-47.67 422.5,-55.33 422.5,-55.33 422.5,-59.17 418.67,-63 414.83,-63"/>
<text text-anchor="middle" x="363" y="-47.8" font-family="Arial" font-size="14.00" fill="#c6c5fe">hooks/useSSE.ts</text>
</g>
<!-- hooks/useSSE.ts&#45;&gt;api/client.ts -->
<g id="edge31" class="edge">
<title>hooks/useSSE.ts&#45;&gt;api/client.ts</title>
<path fill="none" stroke="#757575" d="M422.76,-60.25C471.94,-67.56 541.39,-77.9 588.32,-84.88"/>
<polygon fill="#757575" stroke="#757575" points="587.86,-88.35 598.27,-86.36 588.89,-81.43 587.86,-88.35"/>
</g>
<!-- hooks/useSSE.ts&#45;&gt;stores/auth.store.ts -->
<g id="edge32" class="edge">
<title>hooks/useSSE.ts&#45;&gt;stores/auth.store.ts</title>
<path fill="none" stroke="#757575" d="M422.67,-51.5C512.61,-51.5 684.52,-51.5 783.43,-51.5"/>
<polygon fill="#757575" stroke="#757575" points="783.65,-55 793.65,-51.5 783.65,-48 783.65,-55"/>
</g>
<!-- stores/chat.store.ts -->
<g id="node26" class="node">
<title>stores/chat.store.ts</title>
<path fill="none" stroke="#cfffac" d="M698.33,-23C698.33,-23 582.67,-23 582.67,-23 578.83,-23 575,-19.17 575,-15.33 575,-15.33 575,-7.67 575,-7.67 575,-3.83 578.83,0 582.67,0 582.67,0 698.33,0 698.33,0 702.17,0 706,-3.83 706,-7.67 706,-7.67 706,-15.33 706,-15.33 706,-19.17 702.17,-23 698.33,-23"/>
<text text-anchor="middle" x="640.5" y="-7.8" font-family="Arial" font-size="14.00" fill="#cfffac">stores/chat.store.ts</text>
</g>
<!-- hooks/useSSE.ts&#45;&gt;stores/chat.store.ts -->
<g id="edge33" class="edge">
<title>hooks/useSSE.ts&#45;&gt;stores/chat.store.ts</title>
<path fill="none" stroke="#757575" d="M422.76,-42.97C464.19,-36.95 520.02,-28.85 564.64,-22.37"/>
<polygon fill="#757575" stroke="#757575" points="565.17,-25.83 574.56,-20.93 564.16,-18.9 565.17,-25.83"/>
</g>
</g>
</svg>
