<?xml version="1.0" encoding="UTF-8" standalone="no"?>
<!DOCTYPE svg PUBLIC "-//W3C//DTD SVG 1.1//EN"
 "http://www.w3.org/Graphics/SVG/1.1/DTD/svg11.dtd">
<!-- Generated by graphviz version 2.43.0 (0)
 -->
<!-- Title: G Pages: 1 -->
<svg width="305pt" height="187pt"
 viewBox="0.00 0.00 305.20 187.20" xmlns="http://www.w3.org/2000/svg" xmlns:xlink="http://www.w3.org/1999/xlink">
<g id="graph0" class="graph" transform="scale(1 1) rotate(0) translate(21.6 165.6)">
<title>G</title>
<polygon fill="#111111" stroke="transparent" points="-21.6,21.6 -21.6,-165.6 283.6,-165.6 283.6,21.6 -21.6,21.6"/>
<!-- chat.ts -->
<g id="node1" class="node">
<title>chat.ts</title>
<path fill="none" stroke="#cfffac" d="M147.33,-144C147.33,-144 106.67,-144 106.67,-144 102.83,-144 99,-140.17 99,-136.33 99,-136.33 99,-128.67 99,-128.67 99,-124.83 102.83,-121 106.67,-121 106.67,-121 147.33,-121 147.33,-121 151.17,-121 155,-124.83 155,-128.67 155,-128.67 155,-136.33 155,-136.33 155,-140.17 151.17,-144 147.33,-144"/>
<text text-anchor="middle" x="127" y="-128.8" font-family="Arial" font-size="14.00" fill="#cfffac">chat.ts</text>
</g>
<!-- course.ts -->
<g id="node2" class="node">
<title>course.ts</title>
<path fill="none" stroke="#cfffac" d="M254.33,-64C254.33,-64 198.67,-64 198.67,-64 194.83,-64 191,-60.17 191,-56.33 191,-56.33 191,-48.67 191,-48.67 191,-44.83 194.83,-41 198.67,-41 198.67,-41 254.33,-41 254.33,-41 258.17,-41 262,-44.83 262,-48.67 262,-48.67 262,-56.33 262,-56.33 262,-60.17 258.17,-64 254.33,-64"/>
<text text-anchor="middle" x="226.5" y="-48.8" font-family="Arial" font-size="14.00" fill="#cfffac">course.ts</text>
</g>
<!-- index.ts -->
<g id="node3" class="node">
<title>index.ts</title>
<path fill="none" stroke="#c6c5fe" d="M55.33,-84C55.33,-84 7.67,-84 7.67,-84 3.83,-84 0,-80.17 0,-76.33 0,-76.33 0,-68.67 0,-68.67 0,-64.83 3.83,-61 7.67,-61 7.67,-61 55.33,-61 55.33,-61 59.17,-61 63,-64.83 63,-68.67 63,-68.67 63,-76.33 63,-76.33 63,-80.17 59.17,-84 55.33,-84"/>
<text text-anchor="middle" x="31.5" y="-68.8" font-family="Arial" font-size="14.00" fill="#c6c5fe">index.ts</text>
</g>
<!-- index.ts&#45;&gt;chat.ts -->
<g id="edge1" class="edge">
<title>index.ts&#45;&gt;chat.ts</title>
<path fill="none" stroke="#757575" d="M50.53,-84.07C64.37,-92.95 83.69,-105.35 99.32,-115.38"/>
<polygon fill="#757575" stroke="#757575" points="97.72,-118.51 108.03,-120.97 101.5,-112.62 97.72,-118.51"/>
</g>
<!-- index.ts&#45;&gt;course.ts -->
<g id="edge2" class="edge">
<title>index.ts&#45;&gt;course.ts</title>
<path fill="none" stroke="#757575" d="M63.13,-75.33C88.02,-77 123.96,-78.03 155,-73.5 164.66,-72.09 174.84,-69.65 184.36,-66.92"/>
<polygon fill="#757575" stroke="#757575" points="185.45,-70.25 194,-64 183.42,-63.55 185.45,-70.25"/>
</g>
<!-- jobs.ts -->
<g id="node4" class="node">
<title>jobs.ts</title>
<path fill="none" stroke="#c6c5fe" d="M147.33,-64C147.33,-64 106.67,-64 106.67,-64 102.83,-64 99,-60.17 99,-56.33 99,-56.33 99,-48.67 99,-48.67 99,-44.83 102.83,-41 106.67,-41 106.67,-41 147.33,-41 147.33,-41 151.17,-41 155,-44.83 155,-48.67 155,-48.67 155,-56.33 155,-56.33 155,-60.17 151.17,-64 147.33,-64"/>
<text text-anchor="middle" x="127" y="-48.8" font-family="Arial" font-size="14.00" fill="#c6c5fe">jobs.ts</text>
</g>
<!-- index.ts&#45;&gt;jobs.ts -->
<g id="edge3" class="edge">
<title>index.ts&#45;&gt;jobs.ts</title>
<path fill="none" stroke="#757575" d="M63.12,-65.95C71.38,-64.18 80.42,-62.25 89,-60.41"/>
<polygon fill="#757575" stroke="#757575" points="89.74,-63.84 98.78,-58.32 88.27,-56.99 89.74,-63.84"/>
</g>
<!-- user.ts -->
<g id="node5" class="node">
<title>user.ts</title>
<path fill="none" stroke="#c6c5fe" d="M147.33,-23C147.33,-23 106.67,-23 106.67,-23 102.83,-23 99,-19.17 99,-15.33 99,-15.33 99,-7.67 99,-7.67 99,-3.83 102.83,0 106.67,0 106.67,0 147.33,0 147.33,0 151.17,0 155,-3.83 155,-7.67 155,-7.67 155,-15.33 155,-15.33 155,-19.17 151.17,-23 147.33,-23"/>
<text text-anchor="middle" x="127" y="-7.8" font-family="Arial" font-size="14.00" fill="#c6c5fe">user.ts</text>
</g>
<!-- index.ts&#45;&gt;user.ts -->
<g id="edge4" class="edge">
<title>index.ts&#45;&gt;user.ts</title>
<path fill="none" stroke="#757575" d="M50.53,-60.74C64.46,-51.65 83.94,-38.94 99.62,-28.71"/>
<polygon fill="#757575" stroke="#757575" points="101.88,-31.41 108.34,-23.02 98.06,-25.55 101.88,-31.41"/>
</g>
<!-- jobs.ts&#45;&gt;course.ts -->
<g id="edge5" class="edge">
<title>jobs.ts&#45;&gt;course.ts</title>
<path fill="none" stroke="#757575" d="M155.16,-52.5C163.1,-52.5 171.99,-52.5 180.72,-52.5"/>
<polygon fill="#757575" stroke="#757575" points="180.81,-56 190.81,-52.5 180.81,-49 180.81,-56"/>
</g>
<!-- user.ts&#45;&gt;course.ts -->
<g id="edge6" class="edge">
<title>user.ts&#45;&gt;course.ts</title>
<path fill="none" stroke="#757575" d="M155.16,-22.92C165.53,-27.28 177.54,-32.33 188.66,-37.01"/>
<polygon fill="#757575" stroke="#757575" points="187.57,-40.35 198.15,-41 190.29,-33.9 187.57,-40.35"/>
</g>
</g>
</svg>
